<?xml version="1.0" encoding="UTF-8"?>
<svg id="Layer_1" data-name="Layer 1" xmlns="http://www.w3.org/2000/svg" viewBox="0 0 384 384">
  <defs>
    <style>
      .cls-1 {
        fill: #93b5b5;
      }

      .cls-2 {
        fill: #fff;
      }

      .cls-3 {
        fill: #c6cdc9;
      }

      .cls-4 {
        fill: #eabe79;
      }

      .cls-5 {
        fill: #7fa3a2;
      }

      .cls-6 {
        fill: #3d2515;
      }

      .cls-7 {
        fill: #b08766;
      }

      .cls-8 {
        fill: #995a2b;
      }

      .cls-9 {
        fill: #ededed;
      }
    </style>
  </defs>
  <path class="cls-2" d="m196.5,0h187.5v384h-154.5c.42-.23.82-.59,1.26-.66,21.42-3.56,37.96-20.39,39.94-41.67,1.7-18.23,2.56-36.55,3.79-54.83.96-14.3,1.96-28.6,2.83-42.9.37-6.09.48-12.19.7-18.28.09-.48.18-.96.27-1.44.08-.06.22-.13.22-.19-.01-.18-.09-.35-.13-.53.16-1.49.38-2.97.47-4.46,1.02-15.8,2.06-31.6,3.01-47.4.6-9.95,1.05-19.91,1.58-29.86,2.23,0,4.49-.2,6.69.04,3.23.36,4-1.04,3.87-4.02-.22-4.95-.06-9.92-.06-14.88q0-8.78-8.88-9c-.25,0-.49-.04-.74-.05-1.44-6.77-2.22-13.77-4.44-20.28-6.32-18.48-17.34-33.75-33.23-45.29-12.7-9.22-26.74-15.18-42.46-16.83-.12-7-.25-14-.37-21,.5-5.55-1.01-7.58-7.26-9.77-.06-.23-.08-.46-.04-.69Z"/>
  <path class="cls-2" d="m153,384H0C0,256,0,128,0,0,62.25,0,124.5,0,186.75,0c.04.24.03.47-.03.71-6.24,2.19-7.73,4.2-7.25,9.75-.11,7-.23,14-.34,21.01-3.66.62-7.4.92-10.96,1.91-18.94,5.24-34.93,15.07-47.73,30.2-12.37,14.62-19.19,31.45-21.5,50.29-1.99.03-3.99.19-5.96.05-2.36-.16-3,.87-2.94,3.07.12,4.6.04,9.2.04,13.8,0,3.56,0,7.11,0,11.01h9.86c.44,8.55.79,17.11,1.33,25.66.82,12.89,1.76,25.78,2.65,38.67.4,8.07.69,16.15,1.21,24.21,1.38,21.39,2.87,42.76,4.28,64.15,1.04,15.79,1.78,31.61,3.11,47.37,1.76,20.76,19.84,39.04,40.52,41.51,0,.21-.01.42-.04.63Z"/>
  <path class="cls-4" d="m153.04,383.37c-20.67-2.47-38.76-20.75-40.52-41.51-1.33-15.77-2.07-31.58-3.11-47.37-1.41-21.38-2.91-42.76-4.28-64.15-.52-8.06-.81-16.14-1.21-24.21.17.33.35.66.5,1,3.71,8.72,11.63,13.41,19.79,11.71,9.1-1.9,14.52-8.82,14.55-18.6.02-6.49.02-12.98.03-19.47.21-.76.42-1.53.62-2.29,1.89-7.18,7.69-12.12,15.06-12.82,1.03-.02,2.06-.03,3.09-.05,8,.66,13.33,5.03,15.75,12.89.21.76.43,1.53.64,2.29,0,18.19-.01,36.39.03,54.58.02,9.26,7.23,16.98,16.12,17.39,10.34.48,18.23-5.96,19.23-15.7.21-1.07.61-2.13.61-3.2.03-11.96,0-23.91-.02-35.87,1.2-8.97,8.74-15.11,18.39-14.97,8.79.13,16.03,6.82,17,15.72-.02,3.36-.14,6.71-.05,10.06.11,3.93.4,7.85.61,11.77.92,7.98,6.51,13.89,14.27,15.07.31.15.62.3.94.45,1.21.01,2.41.02,3.62.04.54-.17,1.08-.35,1.62-.52,5.86-1.02,9.22-4.97,11.7-9.96-.23,6.1-.33,12.2-.7,18.28-.88,14.3-1.87,28.6-2.83,42.9-1.23,18.28-2.09,36.59-3.79,54.83-1.98,21.28-18.52,38.11-39.94,41.67-.45.07-.84.44-1.26.66h-72c-1.49-.21-2.97-.42-4.46-.63Zm95.95-59.55c1.12.08,2.24.22,3.36.23,7.86.12,14.1-4.96,15.72-12.76,1.43-6.91-2.47-14.23-9.12-17.13-6.86-2.99-15.05-.58-19.21,5.66-4.25,6.38-3.41,14.34,2.1,19.86.69.69,1.33,1.43,1.99,2.15-11.53-1.23-17.07,2.02-20.36,11.94-.22.05-.44.04-.65-.04-1.9-7.44-7.56-12.2-14.85-12.49-6.68-.27-12.58,4.01-15.24,11.05-.46.22-.93.44-1.39.66-2.31-7.69-9.23-12.52-16.55-11.56-6.05.79-10.46,3.88-12.84,9.53-2.65,6.29-1.18,11.93,3.14,16.98-.03.37-.06.75-.09,1.12-.99-.12-1.97-.29-2.97-.35-8.47-.44-15.53,5.02-16.62,12.84-1.18,8.49,3.82,16.14,11.7,17.88,8.32,1.84,15.93-2.66,18.59-11.01.41-.05.82-.09,1.24-.14,2.4,7.19,7.52,11.24,14.45,11.44,7.44.21,12.73-3.65,15.67-11.42l1.08.09c4.45,11.84,17.61,15.3,26.09,6.86,6.04-6.01,6.06-14.61.06-22.27.22-.22.43-.45.65-.67,9.09.75,14.9-2.07,18.08-8.75,2.99-6.3,1.6-12.66-4.1-18.7.02-.34.05-.68.07-1.02Zm-132.13,6.88c.01,8.54,6.91,15.55,15.4,15.65,8.59.1,15.7-7.04,15.67-15.75-.03-8.67-6.79-15.52-15.39-15.59-8.72-.07-15.69,6.9-15.67,15.69Z"/>
  <path class="cls-5" d="m179.47,10.46c-.48-5.56,1.01-7.56,7.25-9.75.76-.24,1.52-.47,2.28-.71,1.75,0,3.5,0,5.25,0,.76.23,1.53.46,2.29.69,6.25,2.19,7.76,4.22,7.26,9.77-7.53,7.04-17.04,6.87-24.33,0Z"/>
  <path class="cls-3" d="m153.04,383.37c1.49.21,2.97.42,4.46.63h-4.5c.03-.21.04-.42.04-.63Z"/>
  <path class="cls-3" d="m189,0c-.76.24-1.52.47-2.28.71.06-.23.07-.47.03-.71C187.5,0,188.25,0,189,0Z"/>
  <path class="cls-3" d="m196.54.69c-.76-.23-1.53-.46-2.29-.69.75,0,1.5,0,2.25,0-.04.23-.02.47.04.69Z"/>
  <path class="cls-8" d="m154.46,165.65c-7.37.71-13.17,5.64-15.06,12.82-.21.76-.42,1.53-.62,2.29,0,6.49-.01,12.98-.03,19.47-.03,9.79-5.45,16.71-14.55,18.6-8.16,1.7-16.08-2.99-19.79-11.71-.15-.34-.33-.67-.5-1-.89-12.89-1.84-25.77-2.65-38.67-.54-8.55-.89-17.11-1.33-25.66,1.49.06,2.99.17,4.48.17,52.43,0,104.87-.02,157.3-.05,7.24,0,14.48-.09,21.72-.15-.52,9.95-.98,19.91-1.58,29.86-.95,15.8-1.99,31.6-3.01,47.4-.1,1.49-.31,2.97-.47,4.46-.03.24-.05.48-.08.72-.09.48-.18.96-.27,1.44-2.48,4.99-5.84,8.94-11.7,9.96-.54.17-1.08.35-1.62.52-1.21-.01-2.41-.02-3.62-.03-.31-.15-.62-.3-.94-.45-7.76-1.18-13.35-7.09-14.27-15.07.04-3.86.17-7.71.08-11.57-.08-3.43-.42-6.85-.64-10.27-.97-8.9-8.21-15.59-17-15.72-9.65-.14-17.19,6-18.39,14.97-.23.81-.66,1.62-.66,2.43-.01,12.21.03,24.43.07,36.64-1,9.74-8.9,16.18-19.23,15.7-8.9-.42-16.1-8.14-16.12-17.39-.04-18.19-.02-36.39-.03-54.58-.21-.76-.43-1.53-.64-2.29-2.42-7.86-7.76-12.23-15.75-12.89-1.03.02-2.06.03-3.09.05Z"/>
  <path class="cls-3" d="m283.43,141.78c-7.24.05-14.48.14-21.72.15-52.43.03-104.87.04-157.3.05-1.49,0-2.99-.11-4.48-.17-3.09,0-6.18,0-9.86,0,0-3.9,0-7.46,0-11.01,0-4.6.08-9.2-.04-13.8-.06-2.2.58-3.23,2.94-3.07,1.98.14,3.97-.02,5.96-.05,25.99.04,51.97.09,77.95.09.8,0,1.59-.47,2.39-.72,8.24,0,16.47,0,24.71.01.8.25,1.6.71,2.39.71,25.98,0,51.95-.05,77.93-.09.25.02.49.05.74.05q8.88.22,8.88,9c0,4.96-.16,9.93.06,14.88.13,2.98-.63,4.38-3.87,4.02-2.2-.24-4.46-.04-6.69-.04Z"/>
  <path class="cls-9" d="m284.31,113.86c-25.98.04-51.95.09-77.93.09-.8,0-1.6-.46-2.39-.71,0-9.09,0-18.18.03-27.26.04-18.17.1-36.35.15-54.52,15.72,1.65,29.76,7.61,42.46,16.83,15.9,11.54,26.92,26.81,33.23,45.29,2.22,6.51,3,13.51,4.44,20.28Z"/>
  <path class="cls-1" d="m204.17,31.46c-.05,18.17-.11,36.35-.15,54.52-.02,9.09-.02,18.18-.03,27.26-8.24,0-16.47,0-24.71-.01-.01-3.11-.03-6.22-.03-9.33-.04-24.14-.08-48.29-.12-72.43.11-7,.23-14,.34-21.01,7.29,6.88,16.8,7.05,24.33,0,.12,7,.25,14,.37,21Z"/>
  <path class="cls-4" d="m278.29,224.22c.03-.24.05-.48.08-.72.05.18.12.35.13.53,0,.06-.14.13-.22.19Z"/>
  <path class="cls-9" d="m179.13,31.47c.04,24.14.08,48.29.12,72.43,0,3.11.02,6.22.03,9.33-.8.25-1.59.72-2.39.72-25.98,0-51.97-.05-77.95-.09,2.31-18.84,9.13-35.67,21.5-50.29,12.8-15.13,28.8-24.96,47.73-30.2,3.56-.98,7.3-1.29,10.96-1.91Zm-12.1,24c-.15-.5-.44-1.69-.88-2.83-1.81-4.65-2.38-5.08-6.64-2.54-5.84,3.48-11.42,7.4-17.03,11.24-.69.47-1.38,1.68-1.28,2.43.51,3.6,5.74,5.43,8.73,3.33,5.45-3.82,11-7.5,17.1-11.63Zm-36.7,21.24c2.93,1.54,5.4,2.83,7.83,4.11,5.33-7.01,4.83-9.21-2.73-11.73-1.58,2.36-3.21,4.8-5.1,7.62Z"/>
  <path class="cls-6" d="m165.09,347.9c-4.32-5.05-5.79-10.69-3.14-16.98,2.38-5.65,6.79-8.74,12.84-9.53,7.32-.96,14.24,3.86,16.55,11.56.15.64.3,1.28.44,1.92.23-.04.46-.08.69-.11.09-.82.17-1.64.26-2.46,2.66-7.03,8.56-11.31,15.24-11.05,7.29.29,12.95,5.05,14.85,12.49.02,2.03.04,4.06.06,6.08-1.68,2.98-3.37,5.97-5.05,8.95-.17.19-.34.38-.51.57-.32.15-.64.31-.97.46.06.12.11.24.17.36.36-.18.72-.36,1.08-.54.19.03.35-.03.46-.17,3.22-.34,6.43-.68,9.36-1-1.28-2.74-2.65-5.69-4.03-8.64.03-2.01.05-4.02.08-6.03,3.29-9.92,8.83-13.17,20.36-11.94l-.06-.07c.5.25.99.5,1.49.74l-.03-.02c.51.26,1.02.51,1.53.77l-.05-.03c.74.54,1.47,1.07,2.21,1.61,5.7,6.04,7.1,12.4,4.1,18.7-3.18,6.68-8.99,9.5-18.08,8.75-.32-.17-.65-.34-.97-.52-.16-.13-.35-.2-.56-.22-.56-.18-1.12-.36-1.68-.54-.04-.09-.07-.2-.13-.27-.04-.04-.13-.04-.19-.06.12.1.23.2.35.3.43.31.86.63,1.29.94.23.21.46.43.69.64.17.14.36.27.55.39,6,7.66,5.98,16.26-.06,22.27-8.49,8.44-21.65,4.98-26.09-6.86-.23-.75-.47-1.5-.7-2.25,0-1.32.01-2.65.02-3.97.08-.47.15-.95.23-1.42,1.55-2.71,3.1-5.42,4.65-8.14.16-.2.31-.41.47-.61-.3.06-.59.12-.89.18-2.91-.08-5.83-.16-8.74-.24-.49-.09-.97-.19-1.46-.28-.14-.1-.28-.21-.42-.31.12.13.24.27.37.4l1.56,1.52c1.32,2.48,2.63,4.95,3.95,7.43.03.49.07.98.1,1.46,0,1.33,0,2.65.01,3.98l-.23,2.15c-2.94,7.77-8.24,11.62-15.67,11.42-6.93-.19-12.05-4.24-14.45-11.44-.04-2.54-.08-5.07-.12-7.61,1.3-2.48,2.61-4.95,3.91-7.43.51-.49,1.02-.99,1.53-1.48.09-.17.17-.33.26-.5-.09.16-.18.32-.27.48-.48.06-.96.12-1.44.18-2.92.1-5.85.2-8.77.3-.29-.06-.57-.13-.86-.2.16.19.31.39.47.58l4.61,8.19c-.19,2.54-.38,5.07-.56,7.61-2.67,8.35-10.27,12.85-18.59,11.01-7.87-1.74-12.87-9.39-11.7-17.88,1.08-7.82,8.14-13.29,16.62-12.84.99.05,1.98.23,2.97.34.5.16,1,.31,1.51.47.33.09.67.18,1,.27l-1.03-.24-1.39-1.61Zm32.92,1.58c.12.13.25.25.37.38-.02-.08-.01-.21-.06-.24-.09-.06-.22-.08-.33-.11-.49-.5-.99-1.01-1.48-1.51-1.28-2.24-2.56-4.48-3.84-6.72-.16-.68-.31-1.35-.47-2.03-.21.02-.41.04-.62.06-.1.64-.2,1.28-.3,1.91-1.27,2.25-2.54,4.5-3.8,6.76-.41.39-.82.78-1.22,1.17.4,0,.81.02,1.21.02,3.03.01,6.05.02,9.08.03.49.09.98.18,1.47.28Zm16.24,1.91l-.21-.13-.03.19.24-.06Zm-44.32-.16l-.13.17.21.03-.08-.2Zm59.91-1.24l.13-.17-.2-.03.08.2Z"/>
  <path class="cls-6" d="m116.86,330.7c-.01-8.79,6.96-15.76,15.67-15.69,8.6.07,15.37,6.92,15.39,15.59.03,8.71-7.08,15.85-15.67,15.75-8.49-.1-15.39-7.11-15.4-15.65Z"/>
  <path class="cls-6" d="m243.83,321.83c-.66-.72-1.3-1.46-1.99-2.15-5.51-5.52-6.35-13.48-2.1-19.86,4.16-6.24,12.36-8.65,19.21-5.66,6.65,2.9,10.54,10.22,9.12,17.13-1.61,7.8-7.86,12.88-15.72,12.76-1.12-.02-2.24-.15-3.36-.23-.76-.2-1.52-.39-2.28-.59,0,0,.05.03.05.03-.51-.26-1.02-.51-1.53-.77,0,0,.03.02.03.02-.5-.25-.99-.5-1.49-.74l.06.07Z"/>
  <path class="cls-7" d="m209.33,237.06c-.03-12.21-.08-24.43-.07-36.64,0-.81.43-1.62.66-2.43.01,11.96.04,23.92.01,35.87,0,1.07-.4,2.13-.61,3.2Z"/>
  <path class="cls-7" d="m245.32,198.73c.22,3.42.56,6.85.64,10.27.09,3.85-.04,7.71-.08,11.57-.21-3.92-.5-7.85-.61-11.77-.09-3.35.02-6.71.05-10.06Z"/>
  <path class="cls-8" d="m176.82,360.64c.04,2.54.08,5.07.12,7.61-.41.04-.82.09-1.23.13.19-2.54.38-5.07.56-7.61.17-.12.35-.16.55-.13Z"/>
  <path class="cls-8" d="m222.87,339.82c-.02-2.03-.04-4.06-.06-6.08.21.07.43.08.65.04-.03,2.01-.05,4.02-.08,6.03-.17,0-.35,0-.52.01Z"/>
  <path class="cls-8" d="m192.73,332.29c-.09.82-.17,1.64-.26,2.46-.23.04-.46.08-.69.11-.15-.64-.3-1.28-.44-1.92.46-.22.93-.44,1.39-.66Z"/>
  <path class="cls-7" d="m207.45,366.12c.23.75.47,1.5.7,2.25-.36-.03-.72-.06-1.08-.09.08-.72.15-1.43.23-2.15,0,0,.14,0,.14,0Z"/>
  <path class="cls-7" d="m246.72,323.23c.76.2,1.52.39,2.28.59-.02.34-.05.68-.07,1.02-.74-.54-1.47-1.07-2.21-1.61Z"/>
  <path class="cls-7" d="m154.46,165.65c1.03-.02,2.06-.03,3.09-.05-1.03.02-2.06.03-3.09.05Z"/>
  <path class="cls-7" d="m138.78,180.76c.21-.76.42-1.53.62-2.29-.21.76-.42,1.53-.62,2.29Z"/>
  <path class="cls-7" d="m173.31,178.49c.21.76.43,1.53.64,2.29-.21-.76-.43-1.53-.64-2.29Z"/>
  <path class="cls-7" d="m166.51,349.49c-.5-.16-1-.32-1.51-.47.03-.37.06-.74.09-1.12.46.54.93,1.08,1.39,1.61,0,0,.02-.02.02-.02Z"/>
  <path class="cls-7" d="m264.7,236.13c.54-.17,1.08-.35,1.62-.52-.54.17-1.08.35-1.62.52Z"/>
  <path class="cls-7" d="m260.15,235.65c.31.15.62.3.94.45-.31-.15-.62-.3-.94-.45Z"/>
  <path class="cls-3" d="m167.03,55.47c-6.1,4.14-11.65,7.82-17.1,11.63-3,2.1-8.23.26-8.73-3.33-.11-.75.59-1.96,1.28-2.43,5.61-3.84,11.19-7.76,17.03-11.24,4.26-2.54,4.83-2.11,6.64,2.54.44,1.13.73,2.33.88,2.83Z"/>
  <path class="cls-3" d="m130.33,76.71c1.89-2.82,3.52-5.25,5.1-7.62,7.56,2.52,8.06,4.72,2.73,11.73-2.43-1.27-4.9-2.57-7.83-4.11Z"/>
  <path class="cls-4" d="m222.87,339.82c.17-.01.35-.02.52-.01,1.38,2.95,2.75,5.91,4.03,8.64-2.93.31-6.14.65-9.36,1-.08-.22-.16-.45-.24-.67,1.68-2.98,3.37-5.97,5.05-8.95Z"/>
  <path class="cls-4" d="m196.54,349.21c-3.03-.01-6.05-.02-9.08-.03,0-.4,0-.8.01-1.19,1.27-2.25,2.54-4.5,3.8-6.76.46.02.93.03,1.39.05,1.28,2.24,2.56,4.48,3.84,6.72.01.4.02.8.03,1.21Z"/>
  <path class="cls-4" d="m212.35,352.59c-1.55,2.71-3.1,5.42-4.65,8.14-.17-.06-.34-.08-.51-.05-1.32-2.48-2.63-4.95-3.95-7.43-.02-.44-.03-.89-.05-1.33,2.91.08,5.83.16,8.74.24.14.15.28.29.42.43Z"/>
  <path class="cls-4" d="m176.82,360.64c-.2-.03-.39.01-.55.13-1.54-2.73-3.07-5.46-4.61-8.19.13-.13.26-.25.39-.38,2.92-.1,5.85-.2,8.77-.29-.03.44-.06.87-.09,1.31-1.3,2.48-2.61,4.95-3.91,7.43Z"/>
  <path class="cls-8" d="m192.67,341.28c-.46-.02-.93-.03-1.39-.05.1-.64.2-1.28.3-1.92.21-.02.41-.04.62-.06.16.68.31,1.35.47,2.03Z"/>
  <path class="cls-8" d="m207.45,366.12s-.15,0-.14,0c0-1.33,0-2.65-.01-3.98,0,0,.18,0,.18,0,0,1.32-.01,2.65-.02,3.97Z"/>
  <path class="cls-7" d="m187.48,347.98c0,.4,0,.8-.01,1.19-.4,0-.81-.01-1.21-.02.41-.39.82-.78,1.22-1.17Z"/>
  <path class="cls-7" d="m196.54,349.21c-.01-.4-.02-.8-.03-1.21.49.5.99,1.01,1.48,1.51l.02-.03c-.49-.09-.98-.18-1.47-.28Z"/>
  <path class="cls-7" d="m203.19,351.93c.02.44.03.89.05,1.33-.52-.51-1.04-1.01-1.56-1.52l.05-.09c.49.09.97.19,1.46.28Z"/>
  <path class="cls-7" d="m180.74,353.22c.03-.44.06-.87.09-1.31.48-.06.96-.12,1.44-.18h0c-.51.51-1.02,1-1.53,1.5Z"/>
  <path class="cls-8" d="m245.23,322.49c.51.26,1.02.51,1.53.77-.51-.26-1.02-.51-1.53-.77Z"/>
  <path class="cls-8" d="m166.49,349.51l1.03.24c-.33-.09-.67-.18-1-.27,0,0-.02.02-.02.02Z"/>
  <path class="cls-7" d="m207.47,362.15s-.18,0-.18,0c-.03-.49-.07-.98-.1-1.46.17-.03.35-.02.51.05-.08.47-.15.95-.23,1.42Z"/>
  <path class="cls-8" d="m217.6,349.61c-.36.18-.72.36-1.08.54-.06-.12-.11-.24-.17-.36.32-.15.64-.31.97-.46.1.09.2.18.29.28Z"/>
  <path class="cls-8" d="m233.05,351.93c-.43-.31-.86-.63-1.29-.94l-.03.03c.56.18,1.12.36,1.68.54-.11.13-.23.26-.36.38Z"/>
  <path class="cls-8" d="m243.77,321.76c.5.25.99.5,1.49.74-.5-.25-.99-.5-1.49-.74Z"/>
  <path class="cls-8" d="m218.07,349.44c-.12.14-.27.2-.46.17-.09-.1-.18-.19-.29-.28.17-.19.34-.38.51-.57.08.22.16.45.24.67Z"/>
  <path class="cls-8" d="m197.99,349.51c.11.03.24.05.33.11.05.04.04.16.06.24-.12-.13-.25-.25-.37-.38,0,0-.02.03-.02.03Z"/>
  <path class="cls-8" d="m231.77,350.99c-.12-.1-.23-.2-.35-.3.07.02.16.02.19.06.06.08.09.18.13.27,0,0,.03-.03.03-.03Z"/>
  <path class="cls-4" d="m211.93,352.17c.3-.06.59-.12.89-.18-.16.2-.31.41-.47.61-.15-.14-.29-.28-.42-.43Z"/>
  <path class="cls-8" d="m233.41,351.56c.21.01.4.09.56.22-.08.27-.15.53-.23.8-.23-.21-.46-.43-.69-.64.13-.12.25-.24.36-.37Z"/>
  <path class="cls-4" d="m233.74,352.57c.08-.27.15-.53.23-.8.32.17.65.35.97.52-.22.22-.43.44-.65.67-.2-.11-.38-.24-.56-.39Z"/>
  <path class="cls-8" d="m201.67,351.73c-.12-.13-.24-.27-.37-.4.14.11.28.21.42.31,0,0-.05.09-.05.09Z"/>
  <polygon class="cls-8" points="214.25 351.4 214.01 351.46 214.04 351.27 214.25 351.4"/>
  <polygon class="cls-8" points="169.93 351.24 170.01 351.44 169.8 351.41 169.93 351.24"/>
  <path class="cls-4" d="m171.66,352.58c-.16-.19-.31-.39-.47-.58.29.07.57.13.86.2-.13.13-.26.26-.39.38Z"/>
  <polygon class="cls-8" points="229.84 350.01 229.76 349.81 229.97 349.84 229.84 350.01"/>
  <path class="cls-8" d="m182.26,351.72c.09-.16.18-.32.27-.48-.09.17-.17.33-.26.5,0,0,0-.01,0-.01Z"/>
</svg>