<?xml version="1.0" encoding="utf-8"?>
<!-- Generator: Adobe Illustrator 27.1.1, SVG Export Plug-In . SVG Version: 6.00 Build 0)  -->
<svg version="1.1" id="Layer_1" xmlns="http://www.w3.org/2000/svg" xmlns:xlink="http://www.w3.org/1999/xlink" x="0px" y="0px"
	 viewBox="0 0 384 384" style="enable-background:new 0 0 384 384;" xml:space="preserve">
<style type="text/css">
	.st0{fill:#FEF1DA;}
	.st1{fill:#FAE2C0;}
	.st2{fill:#C68D7A;}
	.st3{fill:#E6CCC4;}
	.st4{fill:#BC7C63;}
	.st5{fill:#F9F7F8;}
</style>
<path class="st0" d="M384,6v366c-14.6,0-29.2,0-43.9,0c-55.8,0-111.5,0-167.2-0.1c-8.5,0-15.4-3.6-19.9-11.1c1.6,0,3.2-0.1,4.9-0.1
	c64.1,0,128.2,0,192.3,0c8.2,0,10.5-2.2,10.5-10.4c0-105.6,0-211.2,0-316.8c0-8-2.2-10.3-10.1-10.3c-66.1,0-132.2,0-198.4,0
	c-1.7,0-3.5-0.1-5.2-0.2c0-7.7,0-15.3,0-23c77.2,0,154.5,0,231.8,0C380.5,2,382.2,4,384,6L384,6z"/>
<path class="st1" d="M153,360.9c4.5,7.5,11.4,11.1,19.9,11.1c55.8,0.1,111.5,0.1,167.2,0.1c14.6,0,29.2,0,43.9,0v6
	c-1.8,2-3.5,4-5.2,6h-273c-3.9-2.7-5.3-6.4-5.3-11.2c0.1-31.4,0-62.8,0-94.2c0-8.3,0-16.5,0-24.8c0-0.8,0.1-1.5,0.1-2.2
	c0-55.9,0-111.8,0-167.6c0-8.2,0-16.5,0-24.7c0-16.1,0.2-32.1-0.1-48.2c-0.1-4.8,1.3-8.5,5.3-11.1H147c0,7.7,0,15.3,0,23l0,0.3
	c-5.4,0-10.8-0.1-16.1-0.1c-3.1,0-5.3,1.6-6.3,4.4c-0.6,1.8-0.8,3.9-0.8,5.9c0,105.6,0,211.2,0,316.9c0,1.1-0.1,2.3,0,3.4
	c0.4,4.2,3.2,7,7.4,7c7,0.1,14,0,21-0.1C152.5,360.7,152.7,360.8,153,360.9L153,360.9z"/>
<path class="st2" d="M0,377.2c0-122.5,0-245,0-367.5C0.2,9,0.4,8.2,0.6,7.4C2.6,4.9,4.7,2.5,6.8,0h18c3.5,2.2,6.9,4.4,6.9,9.3
	c-0.1,16.6-0.1,33.1-0.1,49.7c0,8.4,0,16.9,0,25.3c0,0.9,0.1,1.7,0.1,2.6c0,54.8,0,109.5,0,164.3c0,0.9-0.1,1.7-0.1,2.6
	c0,4.4-0.1,8.7,0,13c0.1,3.9,0.4,7.9,0.6,11.8c-0.1,4-0.4,8-0.4,12c0,27.6-0.1,55.1,0.1,82.7c0,5.1-1.7,8.6-6.3,10.7H6
	C4,381.8,2,379.5,0,377.2z"/>
<path class="st3" d="M0,7.5c0.2-0.2,0.3-0.2,0.6-0.1C0.4,8.2,0.2,9,0,9.8C0,9,0,8.2,0,7.5z"/>
<path class="st2" d="M153,360.9c-0.3-0.1-0.6-0.1-0.8-0.2c-3.8-5.1-5.1-11.1-5.1-17.3c-0.1-106.7,0-213.4,0-320l0-0.3
	c1.7,0.1,3.5,0.2,5.2,0.2c66.1,0,132.2,0,198.3,0c7.9,0,10.1,2.2,10.1,10.3c0,105.6,0,211.2,0,316.8c0,8.2-2.2,10.4-10.5,10.4
	c-64.1,0-128.2,0-192.4,0C156.3,360.8,154.6,360.8,153,360.9L153,360.9z M198.9,192c0.3,0.2,0.4,0.2,0.5,0.3c0.7,1,1.4,2,2.2,3
	c9,11.8,20.6,19.5,35.5,20.5c12.3,0.9,24.7,0.8,37,0c19.5-1.2,39.1-17.7,42.8-36.9c2-10,1.5-20.6,1.9-30.9c0.2-4.2-0.8-5-5-5
	c-39,0-77.9,0-116.9,0c-3.4,0-5.2,1.2-5,4.8c0.1,0.8-0.1,1.6-0.2,2.5c-15.5-3.4-26.2,0.6-31.9,11.8c-5.3,10.3-3,22.4,6,30.3
	C173.4,199.1,186.3,201.8,198.9,192L198.9,192z M236.1,60L236.1,60c-17.5,0-35-0.1-52.5,0.1c-12.8,0.2-22.9,10.4-23.7,23.4
	c-0.7,11.7,8.3,23.2,20.3,24.5c9.1,1,18.4,0.7,27.7,0.7c8.7-0.1,12-0.3,11.2,10.7c-0.2,3.1,1.3,4.7,4.4,4.7c4.8,0,9.5,0,14.2,0
	c3.1,0,4.6-1.4,4.6-4.6c-0.1-4.1,0-8.2,0-12.4c0-10.1,4.6-14.7,14.7-14.6c19.9,0.1,39.7,0.4,59.6,0.5c8.8,0.1,14.8-6.1,14.9-14.8
	c0-7,0.1-14,0-21c0-4.7-2.4-7.4-7-7.5c-7.9-0.2-15.7,0-23.6,0c-2.5,0-3.9,1.1-4.4,3.6c-1.1,5.2-3.1,6.8-8.5,6.8
	C270.6,60,253.3,60,236.1,60L236.1,60z M230.1,299.4c0,4.4-0.1,8.6,0,12.8c0.1,3.9,2.2,5.9,5.8,5.9c3.2,0,5.6-2.2,5.6-5.8
	c0.1-10.7,0.2-21.5-0.1-32.2c-0.2-9.1-8.7-16.7-17.9-16.8c-9.5,0-17.9,7.6-18.1,17c-0.2,10.6-0.1,21.2-0.1,31.8c0,3.8,2,5.8,5.4,5.9
	c3.6,0.1,5.9-2.2,6-6.1c0.1-4.2,0-8.4,0-12.6L230.1,299.4L230.1,299.4z M159.6,290.7L159.6,290.7c0,3.9,0,7.7,0,11.6
	c0.1,5.4,2.7,9.5,6.8,12.7c3.9,3.1,8.5,3.3,13.2,3.2c9.4-0.2,15.8-5.8,17.2-15c0.6-3.9-1.4-7.1-4.8-7.6c-3.3-0.5-6,1.7-6.7,5.5
	c-0.8,4.6-2.9,5.9-8.4,5.6c-3.9-0.3-5.8-2.3-5.9-6.7c-0.1-5.9,0-11.7,0-17.6c0-4.8,1.6-6.9,5.2-7.3c6.3-0.6,7.9,0.5,9.1,5.9
	c0.8,3.4,3.1,5.2,6.4,4.9c3.3-0.3,4.9-2.4,4.9-6.3c-0.1-8.1-5.8-14.6-14.5-16c-13.7-2.3-23.8,6.6-22.7,18.8
	C159.8,285.2,159.6,287.9,159.6,290.7L159.6,290.7z M305.8,306.7v-9.6c4.6-0.7,10.7,0.6,10.6-6.3c0-7.2-6.4-5.3-10.7-6.1v-9.6
	c4.2,0,8,0.1,11.9,0c4-0.1,6.4-2.5,6.4-5.9c0-3.2-2.4-5.7-6.1-5.8c-5.2-0.2-10.5-0.2-15.8,0c-5,0.2-8.1,3.5-8.1,8.5
	c-0.1,12.6-0.1,25.2,0,37.9c0,5.1,3.1,8.2,8.2,8.3c5.1,0.1,10.2,0.1,15.4,0c4-0.1,6.5-2.4,6.4-5.7c-0.1-3.4-2.5-5.6-6.5-5.7
	C313.6,306.7,309.7,306.7,305.8,306.7L305.8,306.7z M265.3,275.2c4.8,0,9,0.1,13.2,0c4.1-0.1,7-2.5,7-5.8c0.1-3.3-2.8-5.9-6.9-5.9
	c-5.2-0.1-10.5-0.2-15.8,0c-5.2,0.2-9.3,3.6-9.3,8.4c-0.2,13.6-0.2,27.2,0,40.9c0,3.1,2,5.1,5.2,5.3c3.4,0.2,5.5-1.4,6.2-4.7
	c0.3-1.6,0.3-3.2,0.3-4.8c0-3.3,0-6.6,0-10.2c3,0,5.4,0.1,7.7,0c4-0.3,6.2-2.6,6-6.2c-0.1-3.3-2.4-5.4-6.3-5.5c-2.3-0.1-4.7,0-7.2,0
	c-0.1-1.2-0.3-1.9-0.3-2.6C265.3,281.3,265.3,278.5,265.3,275.2L265.3,275.2z"/>
<path class="st4" d="M147,23.3c0,106.7,0,213.4,0,320c0,6.2,1.4,12.1,5.1,17.3c-7,0-14,0.1-21,0.1c-4.1,0-6.9-2.8-7.4-7
	c-0.1-1.1,0-2.2,0-3.4c0-105.6,0-211.2,0-316.9c0-2,0.2-4,0.8-5.9c1-2.8,3.2-4.4,6.3-4.4C136.3,23.3,141.6,23.3,147,23.3L147,23.3z"
	/>
<path class="st4" d="M31.6,253.8c19.1,0,38.2,0,57.2,0c3.9,0,7.7,0.1,11.6,0.1c0,8.3,0,16.5,0,24.8c-22.8,0-45.5,0-68.3,0
	c-0.2-3.9-0.5-7.9-0.6-11.8C31.4,262.5,31.5,258.1,31.6,253.8L31.6,253.8z"/>
<path class="st4" d="M100.5,84C79,84,57.5,84,36,84c-1.5,0-3,0.2-4.5,0.2c0-8.4,0-16.9,0-25.3c2.6,0.1,5.2,0.2,7.8,0.3
	c20.4,0,40.7,0,61.1,0C100.5,67.5,100.5,75.8,100.5,84z"/>
<path class="st5" d="M198.9,192c-12.7,9.8-25.5,7.1-33.1,0.4c-9-7.8-11.3-19.9-6-30.3c5.7-11.2,16.4-15.2,31.9-11.8
	c0.1-0.9,0.3-1.7,0.2-2.5c-0.2-3.6,1.5-4.8,5-4.8c39,0.1,77.9,0,116.9,0c4.3,0,5.2,0.8,5,5c-0.4,10.3,0.1,20.9-1.9,30.9
	c-3.8,19.2-23.3,35.8-42.8,36.9c-12.3,0.7-24.7,0.8-37,0c-14.9-1-26.5-8.7-35.5-20.5c-0.8-1-1.5-2-2.2-3
	C199.4,192.2,199.2,192.2,198.9,192L198.9,192z M182.2,159.7c-8.4,0.7-14.2,7.3-13.4,15.6c0.7,7.1,8.2,13,15.4,11.2
	c3.2-0.8,6.2-3.1,8.6-5.5c1.1-1.1,0.2-4.1,0.1-6.2c-0.2-2.7-0.4-5.5-0.8-8.2c-0.2-1.2-0.8-2.8-1.8-3.3
	C187.6,161.9,184.8,160.9,182.2,159.7L182.2,159.7z"/>
<path class="st5" d="M236.1,60c17.2,0,34.5,0,51.7,0c5.5,0,7.5-1.5,8.5-6.8c0.5-2.5,2-3.6,4.4-3.6c7.9,0,15.7-0.1,23.6,0
	c4.6,0.1,7,2.7,7,7.5c0.1,7,0.1,14,0,21c-0.1,8.8-6.1,14.9-14.9,14.8c-19.9-0.1-39.7-0.4-59.6-0.5c-10.1-0.1-14.7,4.6-14.7,14.6
	c0,4.1-0.1,8.2,0,12.4c0.1,3.2-1.5,4.6-4.6,4.6c-4.8,0-9.5,0-14.2,0c-3.1,0-4.7-1.6-4.4-4.7c0.8-11-2.5-10.7-11.2-10.7
	c-9.2,0.1-18.5,0.3-27.7-0.7c-12-1.3-21-12.7-20.3-24.5c0.8-13.1,10.9-23.3,23.7-23.4C201.1,59.9,218.6,60,236.1,60L236.1,60
	L236.1,60z"/>
<path class="st5" d="M230.1,299.4h-13.4c0,4.2,0.1,8.4,0,12.6c-0.1,4-2.5,6.2-6,6.1c-3.3-0.1-5.3-2.2-5.4-5.9
	c-0.1-10.6-0.2-21.2,0.1-31.8c0.2-9.3,8.6-17,18.1-17c9.2,0,17.7,7.7,17.9,16.8c0.3,10.7,0.1,21.5,0.1,32.2c0,3.5-2.3,5.7-5.6,5.8
	c-3.5,0.1-5.7-2-5.8-5.9C230.1,308,230.1,303.8,230.1,299.4L230.1,299.4z M229.8,287.4c0.4-4.3,1.2-8.5-2.7-10.8
	c-1.9-1.1-5.3-1.2-7.2-0.2c-4.3,2.4-3.3,7-3,11L229.8,287.4L229.8,287.4z"/>
<path class="st5" d="M159.6,290.7c0-2.8,0.2-5.5,0-8.2c-1.1-12.1,9-21.1,22.7-18.8c8.6,1.5,14.4,7.9,14.5,16c0,3.9-1.6,6-4.9,6.3
	c-3.3,0.3-5.7-1.5-6.4-4.9c-1.2-5.4-2.8-6.4-9.1-5.9c-3.6,0.3-5.2,2.5-5.2,7.3c0,5.9,0,11.7,0,17.6c0,4.3,1.9,6.4,5.9,6.7
	c5.5,0.4,7.6-1,8.4-5.6c0.7-3.8,3.4-6,6.7-5.5c3.4,0.5,5.4,3.7,4.8,7.6c-1.4,9.2-7.8,14.7-17.2,15c-4.7,0.1-9.2-0.1-13.2-3.2
	c-4.1-3.3-6.7-7.4-6.8-12.7C159.6,298.4,159.7,294.5,159.6,290.7L159.6,290.7L159.6,290.7z"/>
<path class="st5" d="M305.8,306.7c3.9,0,7.8,0,11.6,0c4,0.1,6.5,2.2,6.5,5.7c0.1,3.4-2.4,5.7-6.4,5.7c-5.1,0.1-10.2,0.1-15.4,0
	c-5.1-0.1-8.2-3.2-8.2-8.3c-0.1-12.6-0.1-25.2,0-37.9c0-5,3.1-8.2,8.1-8.5c5.2-0.2,10.5-0.2,15.8,0c3.8,0.1,6.1,2.5,6.1,5.8
	c0,3.4-2.3,5.8-6.4,5.9c-3.9,0.1-7.7,0-11.9,0v9.6c4.3,0.8,10.7-1.1,10.7,6.1c0,6.9-6,5.6-10.6,6.3L305.8,306.7L305.8,306.7z"/>
<path class="st5" d="M265.3,275.2c0,3.4,0,6.1,0,8.8c0,0.7,0.2,1.4,0.3,2.6c2.5,0,4.8-0.1,7.2,0c3.9,0.1,6.2,2.2,6.3,5.5
	c0.1,3.6-2.1,5.9-6,6.2c-2.4,0.2-4.7,0-7.7,0c0,3.6,0,6.9,0,10.2c0,1.6,0,3.3-0.3,4.8c-0.6,3.3-2.8,4.9-6.2,4.7
	c-3.2-0.2-5.2-2.3-5.2-5.3c-0.1-13.6-0.2-27.2,0-40.9c0.1-4.9,4.1-8.3,9.3-8.4c5.2-0.2,10.5-0.1,15.8,0c4.1,0.1,6.9,2.7,6.9,5.9
	c-0.1,3.3-2.9,5.7-7,5.8C274.4,275.2,270.1,275.2,265.3,275.2L265.3,275.2z"/>
<path class="st2" d="M182.1,159.8c2.7,1.2,5.5,2.1,8,3.6c0.9,0.5,1.6,2.1,1.8,3.3c0.5,2.7,0.7,5.4,0.8,8.2c0.1,2.1,1,5.1-0.1,6.2
	c-2.3,2.4-5.4,4.7-8.6,5.5c-7.1,1.8-14.7-4.1-15.4-11.2C168,167,173.8,160.4,182.1,159.8L182.1,159.8z"/>
<path class="st2" d="M229.8,287.4H217c-0.3-4.1-1.3-8.6,3-11c1.9-1,5.3-0.9,7.2,0.2C231,278.9,230.3,283.1,229.8,287.4L229.8,287.4z
	"/>
</svg>
