<?xml version="1.0" encoding="UTF-8"?>
<svg id="Layer_1" data-name="Layer 1" xmlns="http://www.w3.org/2000/svg" viewBox="0 0 384 384">
  <defs>
    <style>
      .cls-1 {
        fill: #c68d7a;
      }

      .cls-2 {
        fill: #bc7c63;
      }

      .cls-3 {
        fill: #fff;
      }

      .cls-4 {
        fill: #e6ccc4;
      }

      .cls-5 {
        fill: #fef1da;
      }

      .cls-6 {
        fill: #f9f7f8;
      }

      .cls-7 {
        fill: #fae2c0;
      }
    </style>
  </defs>
  <path class="cls-5" d="m384,6v366c-14.62,0-29.25,0-43.87,0-55.75,0-111.5.05-167.25-.06-8.47-.02-15.35-3.59-19.86-11.08,1.62-.03,3.25-.1,4.87-.1,64.12,0,128.24,0,192.35,0,8.23,0,10.46-2.23,10.46-10.42,0-105.61,0-211.23,0-316.84,0-8.03-2.21-10.27-10.15-10.27-66.12,0-132.24,0-198.35-.01-1.74,0-3.49-.14-5.23-.22,0-7.67.01-15.34.02-23,77.25,0,154.5,0,231.75,0,1.75,2,3.5,4,5.25,6Z"/>
  <path class="cls-7" d="m153.02,360.87c4.5,7.49,11.39,11.06,19.86,11.08,55.75.11,111.5.06,167.25.06,14.62,0,29.25,0,43.87,0v6c-1.75,2-3.5,4-5.25,6H105.75c-3.93-2.69-5.31-6.36-5.3-11.16.11-31.4,0-62.79-.03-94.19,0-8.26,0-16.52,0-24.78.04-.75.1-1.49.1-2.24,0-55.88-.02-111.77-.03-167.65,0-8.23,0-16.47,0-24.7.01-16.06.16-32.13-.05-48.19-.06-4.8,1.26-8.48,5.3-11.09h41.25c0,7.67-.01,15.34-.02,23,0,0,.04.33.04.33-5.37-.03-10.75-.07-16.12-.09-3.12-.01-5.32,1.57-6.28,4.41-.62,1.83-.78,3.9-.78,5.86-.03,105.62-.03,211.24-.03,316.86,0,1.12-.07,2.26.04,3.37.42,4.19,3.22,6.95,7.36,6.98,7,.06,13.99-.05,20.99-.09.28.07.55.15.83.22Z"/>
  <path class="cls-1" d="m0,377.25C0,254.75,0,132.25,0,9.75c.18-.79.37-1.58.55-2.38C2.62,4.92,4.68,2.46,6.75,0h18c3.53,2.19,6.94,4.41,6.92,9.3-.07,16.56-.07,33.12-.1,49.68,0,8.43,0,16.86,0,25.3.05.87.13,1.74.13,2.61,0,54.76,0,109.52,0,164.28,0,.87-.09,1.74-.13,2.61-.02,4.35-.12,8.7-.03,13.05.08,3.94.38,7.88.58,11.82-.14,3.98-.39,7.97-.4,11.95-.04,27.56-.11,55.11.06,82.67.03,5.12-1.66,8.64-6.28,10.73H6C4,381.75,2,379.5,0,377.25Z"/>
  <path class="cls-3" d="m25.5,384c4.63-2.1,6.31-5.62,6.28-10.73-.17-27.55-.1-55.11-.06-82.67,0-3.98.26-7.97.4-11.95,22.77,0,45.54,0,68.31,0,.04,31.4.14,62.79.03,94.19-.02,4.8,1.36,8.47,5.3,11.16H25.5Z"/>
  <path class="cls-3" d="m31.56,58.98c.03-16.56.04-33.12.1-49.68.02-4.89-3.38-7.11-6.92-9.3h81c-4.04,2.62-5.36,6.29-5.3,11.09.2,16.06.06,32.13.05,48.19-20.36-.01-40.73-.01-61.09-.04-2.62,0-5.23-.17-7.84-.26Z"/>
  <path class="cls-3" d="m6.75,0C4.68,2.46,2.62,4.92.56,7.37c-.21-.07-.39-.02-.56.13V0h6.75Z"/>
  <path class="cls-6" d="m0,377.25c2,2.25,4,4.5,6,6.75H0c0-2.25,0-4.5,0-6.75Z"/>
  <path class="cls-3" d="m384,6c-1.75-2-3.5-4-5.25-6,1.75,0,3.5,0,5.25,0v6Z"/>
  <path class="cls-3" d="m378.75,384c1.75-2,3.5-4,5.25-6v6h-5.25Z"/>
  <path class="cls-4" d="m0,7.5c.16-.15.35-.19.56-.13C.37,8.17.18,8.96,0,9.75c0-.75,0-1.5,0-2.25Z"/>
  <path class="cls-1" d="m153.02,360.87c-.28-.07-.55-.15-.83-.22-3.75-5.15-5.14-11.1-5.14-17.26-.06-106.68-.04-213.37-.03-320.05,0,0-.04-.33-.04-.33,1.74.08,3.49.22,5.23.22,66.12.01,132.24,0,198.35.01,7.93,0,10.15,2.25,10.15,10.27,0,105.61,0,211.23,0,316.84,0,8.2-2.23,10.42-10.46,10.42-64.12,0-128.24,0-192.35,0-1.62,0-3.25.06-4.87.1Zm45.9-168.87c.3.19.44.24.51.33.74,1,1.45,2.03,2.2,3.02,8.96,11.82,20.63,19.49,35.51,20.53,12.28.86,24.7.75,37,.02,19.54-1.16,39.06-17.69,42.84-36.93,1.97-10.03,1.47-20.57,1.91-30.88.18-4.24-.76-5.03-5.04-5.03-38.97-.02-77.94,0-116.91-.04-3.44,0-5.21,1.24-4.98,4.83.05.82-.13,1.65-.21,2.5-15.5-3.35-26.23.65-31.95,11.82-5.3,10.33-2.96,22.44,6.01,30.26,7.63,6.65,20.46,9.37,33.13-.43Zm37.15-132.02v.02c-17.49,0-34.98-.15-52.47.05-12.83.15-22.92,10.36-23.69,23.44-.69,11.72,8.28,23.15,20.32,24.46,9.14.99,18.44.71,27.67.65,8.71-.05,11.96-.33,11.16,10.68-.22,3.07,1.3,4.68,4.44,4.66,4.75-.02,9.49-.02,14.24,0,3.09.02,4.61-1.38,4.55-4.55-.07-4.12-.02-8.24-.01-12.37,0-10.05,4.59-14.68,14.69-14.61,19.86.14,39.71.41,59.57.52,8.76.05,14.81-6.09,14.88-14.85.05-7,.06-13.99,0-20.99-.04-4.72-2.42-7.37-7.02-7.46-7.87-.15-15.74-.04-23.61-.05-2.48,0-3.92,1.06-4.44,3.59-1.09,5.24-3.1,6.78-8.55,6.79-17.24.01-34.48,0-51.72,0Zm-5.94,239.45c0,4.4-.08,8.6.02,12.81.09,3.86,2.23,5.94,5.77,5.88,3.24-.05,5.55-2.25,5.57-5.75.07-10.74.22-21.48-.07-32.21-.24-9.06-8.74-16.72-17.95-16.75-9.48-.03-17.85,7.63-18.05,16.96-.23,10.61-.13,21.23-.06,31.84.02,3.75,2.02,5.78,5.35,5.91,3.56.14,5.92-2.17,6.02-6.11.1-4.18.02-8.37.02-12.57h13.38Zm-70.51-8.76h.03c0,3.87-.06,7.74.01,11.61.1,5.38,2.66,9.47,6.81,12.73,3.92,3.09,8.48,3.27,13.16,3.16,9.39-.23,15.77-5.75,17.17-14.97.6-3.92-1.41-7.08-4.82-7.61-3.29-.5-6,1.74-6.67,5.55-.82,4.59-2.85,5.94-8.38,5.58-3.94-.26-5.84-2.34-5.88-6.66-.05-5.87-.03-11.73,0-17.6.02-4.75,1.6-6.94,5.18-7.26,6.31-.57,7.9.45,9.15,5.86.79,3.42,3.13,5.21,6.44,4.91,3.29-.3,4.95-2.41,4.92-6.27-.06-8.1-5.83-14.56-14.47-16.02-13.71-2.32-23.81,6.62-22.68,18.76.25,2.72.04,5.49.04,8.24Zm146.2,16.06v-9.57c4.65-.74,10.68.62,10.65-6.29-.04-7.25-6.42-5.27-10.74-6.12v-9.58c4.17,0,8.03.11,11.89-.03,4.02-.15,6.38-2.47,6.36-5.91-.02-3.25-2.36-5.67-6.11-5.79-5.24-.17-10.51-.22-15.75.03-5.04.24-8.09,3.54-8.12,8.49-.06,12.62-.07,25.25,0,37.87.03,5.06,3.13,8.17,8.2,8.29,5.12.12,10.25.09,15.37.02,4-.06,6.48-2.36,6.4-5.74-.07-3.43-2.53-5.6-6.55-5.66-3.84-.06-7.69-.01-11.62-.01Zm-40.51-31.56c4.8,0,9.02.08,13.25-.02,4.15-.1,6.97-2.51,7.03-5.79.07-3.27-2.76-5.85-6.86-5.94-5.25-.12-10.5-.16-15.75.01-5.24.17-9.26,3.56-9.34,8.43-.22,13.62-.17,27.25-.04,40.87.03,3.08,1.97,5.1,5.21,5.34,3.35.25,5.54-1.35,6.19-4.67.31-1.57.27-3.23.29-4.84.04-3.31.01-6.63.01-10.24,3.03,0,5.4.13,7.74-.03,3.96-.27,6.17-2.62,6.03-6.19-.13-3.31-2.44-5.37-6.3-5.5-2.34-.08-4.68-.01-7.17-.01-.13-1.16-.28-1.87-.29-2.59-.03-2.73-.01-5.47-.01-8.81Z"/>
  <path class="cls-3" d="m31.57,253.78c.05-.87.13-1.74.13-2.61,0-54.76,0-109.52,0-164.28,0-.87-.09-1.74-.13-2.61,1.49-.09,2.98-.25,4.47-.25,21.49-.03,42.97-.03,64.46-.05.01,55.88.02,111.77.03,167.65,0,.75-.07,1.49-.1,2.24-3.87-.03-7.73-.09-11.6-.09-19.08,0-38.17,0-57.25,0Z"/>
  <path class="cls-2" d="m147.02,23.33c0,106.68-.03,213.37.03,320.05,0,6.16,1.39,12.12,5.14,17.26-7,.04-14,.15-20.99.09-4.14-.03-6.94-2.79-7.36-6.98-.11-1.11-.04-2.25-.04-3.37,0-105.62,0-211.24.03-316.86,0-1.96.16-4.03.78-5.86.96-2.84,3.16-4.42,6.28-4.41,5.37.02,10.75.06,16.12.09Z"/>
  <path class="cls-2" d="m31.57,253.78c19.08,0,38.17,0,57.25,0,3.87,0,7.73.06,11.6.09,0,8.26,0,16.52,0,24.78-22.77,0-45.54,0-68.31,0-.2-3.94-.5-7.88-.58-11.82-.09-4.35.01-8.7.03-13.05Z"/>
  <path class="cls-2" d="m100.5,83.98c-21.49.01-42.97.02-64.46.05-1.49,0-2.98.16-4.47.25,0-8.43,0-16.86,0-25.3,2.61.09,5.23.25,7.84.26,20.36.03,40.73.03,61.09.04,0,8.23,0,16.47,0,24.7Z"/>
  <path class="cls-6" d="m198.93,192c-12.67,9.8-25.5,7.08-33.13.43-8.97-7.82-11.31-19.93-6.01-30.26,5.73-11.16,16.45-15.17,31.95-11.82.08-.85.26-1.68.21-2.5-.23-3.59,1.54-4.84,4.98-4.83,38.97.05,77.94.02,116.91.04,4.28,0,5.22.79,5.04,5.03-.44,10.32.06,20.85-1.91,30.88-3.77,19.24-23.3,35.78-42.84,36.93-12.3.73-24.72.83-37-.02-14.87-1.04-26.54-8.71-35.51-20.53-.75-.99-1.46-2.02-2.2-3.02-.07-.09-.21-.14-.51-.33Zm-16.77-32.26c-8.36.69-14.17,7.29-13.39,15.56.67,7.12,8.21,12.98,15.36,11.17,3.16-.8,6.25-3.08,8.55-5.48,1.05-1.1.22-4.1.08-6.23-.18-2.73-.37-5.48-.84-8.17-.21-1.19-.84-2.75-1.77-3.28-2.53-1.44-5.31-2.41-8-3.57Z"/>
  <path class="cls-6" d="m236.08,59.98c17.24,0,34.48,0,51.72,0,5.45,0,7.45-1.55,8.55-6.79.53-2.53,1.96-3.6,4.44-3.59,7.87.02,15.74-.1,23.61.05,4.61.09,6.98,2.74,7.02,7.46.06,7,.06,13.99,0,20.99-.06,8.76-6.12,14.9-14.88,14.85-19.86-.11-39.71-.38-59.57-.52-10.1-.07-14.68,4.56-14.69,14.61,0,4.12-.06,8.25.01,12.37.05,3.17-1.46,4.57-4.55,4.55-4.75-.03-9.49-.02-14.24,0-3.15.01-4.67-1.6-4.44-4.66.8-11.01-2.46-10.73-11.16-10.68-9.23.06-18.53.34-27.67-.65-12.04-1.31-21.01-12.74-20.32-24.46.77-13.08,10.86-23.29,23.69-23.44,17.49-.2,34.98-.05,52.47-.05v-.02Z"/>
  <path class="cls-6" d="m230.14,299.43h-13.38c0,4.2.08,8.39-.02,12.57-.1,3.95-2.46,6.25-6.02,6.11-3.33-.13-5.32-2.16-5.35-5.91-.07-10.61-.17-21.23.06-31.84.2-9.34,8.58-16.99,18.05-16.96,9.21.03,17.71,7.69,17.95,16.75.29,10.73.14,21.47.07,32.21-.02,3.5-2.33,5.7-5.57,5.75-3.53.06-5.67-2.02-5.77-5.88-.1-4.2-.02-8.41-.02-12.81Zm-.32-12.05c.45-4.27,1.23-8.49-2.68-10.8-1.85-1.1-5.32-1.24-7.17-.21-4.32,2.41-3.26,6.95-2.99,11.01h12.84Z"/>
  <path class="cls-6" d="m159.63,290.67c0-2.75.21-5.51-.04-8.24-1.12-12.14,8.97-21.08,22.68-18.76,8.64,1.46,14.41,7.92,14.47,16.02.03,3.87-1.63,5.98-4.92,6.27-3.31.3-5.66-1.48-6.44-4.91-1.24-5.41-2.84-6.44-9.15-5.86-3.59.32-5.17,2.51-5.18,7.26-.02,5.87-.04,11.74,0,17.6.04,4.32,1.94,6.41,5.88,6.66,5.53.36,7.56-1,8.38-5.58.68-3.8,3.38-6.05,6.67-5.55,3.41.52,5.41,3.69,4.82,7.61-1.41,9.22-7.78,14.74-17.17,14.97-4.68.11-9.24-.07-13.16-3.16-4.15-3.26-6.7-7.35-6.81-12.73-.07-3.87-.01-7.74-.01-11.61h-.03Z"/>
  <path class="cls-6" d="m305.83,306.73c3.93,0,7.78-.04,11.62.01,4.02.06,6.47,2.23,6.55,5.66.07,3.38-2.41,5.68-6.4,5.74-5.12.07-10.25.11-15.37-.02-5.06-.12-8.17-3.23-8.2-8.29-.07-12.62-.06-25.25,0-37.87.02-4.95,3.07-8.25,8.12-8.49,5.24-.25,10.5-.19,15.75-.03,3.75.12,6.08,2.54,6.11,5.79.03,3.44-2.34,5.77-6.36,5.91-3.86.14-7.73.03-11.89.03v9.58c4.32.84,10.7-1.13,10.74,6.12.04,6.91-6,5.56-10.65,6.29v9.57Z"/>
  <path class="cls-6" d="m265.32,275.17c0,3.35-.02,6.08.01,8.81,0,.72.16,1.43.29,2.59,2.49,0,4.83-.06,7.17.01,3.86.13,6.18,2.19,6.3,5.5.14,3.57-2.07,5.93-6.03,6.19-2.35.16-4.72.03-7.74.03,0,3.61.03,6.93-.01,10.24-.02,1.62.02,3.27-.29,4.84-.65,3.32-2.84,4.92-6.19,4.67-3.24-.24-5.18-2.26-5.21-5.34-.13-13.62-.18-27.25.04-40.87.08-4.87,4.1-8.26,9.34-8.43,5.24-.17,10.5-.13,15.75-.01,4.1.09,6.93,2.67,6.86,5.94-.07,3.28-2.88,5.69-7.03,5.79-4.22.1-8.45.02-13.25.02Z"/>
  <path class="cls-1" d="m182.15,159.75c2.68,1.16,5.47,2.13,8,3.57.93.53,1.56,2.09,1.77,3.28.47,2.69.66,5.44.84,8.17.14,2.13.97,5.14-.08,6.23-2.3,2.4-5.4,4.68-8.55,5.48-7.15,1.81-14.69-4.05-15.36-11.17-.78-8.27,5.03-14.87,13.39-15.56Z"/>
  <path class="cls-1" d="m229.82,287.37h-12.84c-.27-4.06-1.33-8.6,2.99-11.01,1.85-1.03,5.32-.89,7.17.21,3.9,2.31,3.13,6.54,2.68,10.8Z"/>
</svg>