<?xml version="1.0" encoding="utf-8"?>
<!-- Generator: Adobe Illustrator 27.1.1, SVG Export Plug-In . SVG Version: 6.00 Build 0)  -->
<svg version="1.1" id="Layer_1" xmlns="http://www.w3.org/2000/svg" xmlns:xlink="http://www.w3.org/1999/xlink" x="0px" y="0px"
	 viewBox="0 0 252.3 383.9" style="enable-background:new 0 0 252.3 383.9;" xml:space="preserve">
<style type="text/css">
	.st0{fill:#F4DBB3;}
	.st1{fill:#8E868E;}
	.st2{fill:#FFFFFF;}
	.st3{fill:#CDC0AD;}
	.st4{fill:#766D78;}
	.st5{fill:#ECBD83;}
	.st6{fill:#EAC89F;}
	.st7{fill:#F6D190;}
	.st8{fill:#F9EAC7;}
	.st9{fill:#9D5E5E;}
	.st10{fill:#B06C6C;}
</style>
<path class="st0" d="M220.6,364.5c-0.2,3-0.3,6-0.7,8.9c-0.7,5.8-4.5,8.8-9.7,10.5H41.5c-8.5-2.9-9.1-10.2-9.6-17.4
	c-0.3-4.7-0.6-9.4-0.8-14.1c6,0,12,0,17.9,0c1.6,8.9,8.2,12.1,15.7,12.1C116.7,364.3,168.7,364.4,220.6,364.5L220.6,364.5z"/>
<path class="st1" d="M203.5,0c5.6,3.4,6.2,9.6,8.4,14.9C163.5,15,115,15,66.6,15c-0.6,0-1.3,0-1.9-0.1c-3.5-0.7-5.6-2.3-3.8-6.2
	C79.5,7.5,98,6.4,116.5,5.2c20.3-1.2,40.5-2.5,60.8-3.8c0.7,0,1.4-0.9,2.1-1.4c0.5,0,1,0,1.5,0c0.6,0.4,1.2,1.1,1.7,1.1
	c2.7,0,5.3-0.3,8-0.4c2.3-0.2,4.5-0.5,6.8-0.7C199.5,0,201.5,0,203.5,0L203.5,0z"/>
<path class="st2" d="M190.7,0.7c-2.7,0.2-5.3,0.4-8,0.4c-0.6,0-1.2-0.7-1.7-1.1c3.2,0,6.5,0,9.8,0C190.8,0.2,190.8,0.5,190.7,0.7z"
	/>
<path class="st3" d="M190.7,0.7c0.1-0.2,0.1-0.4,0-0.7c2.2,0,4.5,0,6.8,0C195.2,0.2,193,0.5,190.7,0.7z"/>
<path class="st4" d="M252.1,78.8c0,1,0.1,2,0.1,3c0,9.8-0.8,10.7-10.4,11.7c-1.2-0.1-2.5-0.2-3.7-0.2c-69,0-138.1,0-207.1,0
	c-1.2,0-2.5,0.1-3.7,0.2c-5.6,0-11.1,0.1-16.7,0.1c-1.2-0.1-2.5-0.2-3.7-0.3c-3.9-0.3-6.5-2.8-6.6-6.7c-0.2-4.2-0.2-8.4,0-12.6
	c0.1-3.3,1.7-5.6,5.1-6.4c1.8,0,3.6,0,5.3,0c0-0.2,0-0.4,0-0.6H5.4c-3.7-1.4-4.9-4.2-5.3-8.1c-0.9-9.1,3-16.8,6.5-24.6
	c0.9-2,4.1-3.6,6.5-4c4.1-0.6,8.4-0.1,12.7-0.1c-0.9,3-1.3,6.2-2.7,8.8c-3.5,6.6,1.6,13.2,9.1,13.1c73.3-0.3,146.6-0.2,220-0.2
	c0,2.2,0,4.5,0.2,6.7c0.3,3.8-1.3,6.5-4.7,8.2c-0.5,0-0.9,0.1-1.3,0.1c-75.3,0-150.6,0-226,0c-0.4,0-0.9-0.2-1.1,0
	c-0.9,0.7-2.2,1.5-2.3,2.4c-0.8,6.1,2.8,9.6,9.3,9.6C101.5,78.7,176.8,78.7,252.1,78.8L252.1,78.8z"/>
<path class="st1" d="M252.1,51.8c-73.3,0-146.7-0.1-220,0.2c-7.5,0-12.6-6.5-9.1-13.1c1.4-2.7,1.8-5.9,2.7-8.8
	c3.2-0.5,6.4-1.1,9.6-1.6c1.5,0.5,3.1,1.6,4.6,1.6c59.3,0.1,118.6,0,177.9,0c7,0,14-0.2,21,0.1c2.1,0.1,5.4,1.1,6.1,2.7
	C247.7,38.9,249.8,45.4,252.1,51.8z"/>
<path class="st5" d="M29.4,329.3c-7.3-0.9-9.2-3.3-9.7-10.7c-1.3-17.4-2.9-34.7-4.3-52.1c-1.1-13.8-2.1-27.6-3.2-41.3
	c-1.4-17.5-2.9-35-4.3-52.4c-0.4-5.3-0.8-10.7-1-16c-0.2-5.2,2-7.6,7.3-8.5c5.8,0.1,11.6,0.1,17.4,0.2c0.2,2.2,0.6,4.4,0.7,6.6
	c0.6,6.9,1,13.9,1.6,20.8c0.9,11.2,1.9,22.5,2.9,33.8c0.6,6.8,1,13.6,1.6,20.4c0.9,10.2,2,20.5,2.8,30.8c0.9,10.4,1.6,20.8,2.3,31.2
	c0.9,12.4,1.9,24.8,2.9,37.1C40.9,329.2,35.2,329.2,29.4,329.3L29.4,329.3z"/>
<path class="st4" d="M217.8,30c-59.3,0-118.6,0-177.9,0c-1.5,0-3.1-1-4.6-1.6c1.9-4.7,3.3-9.7,5.8-14.1c1.2-2.1,4.1-4.1,6.5-4.6
	c4.3-1,8.8-0.8,13.3-1.1c-1.8,3.9,0.3,5.5,3.8,6.2C65.3,15,66,15,66.6,15c48.4,0,96.9,0,145.3-0.1C213.9,19.9,215.9,25,217.8,30z"/>
<path class="st0" d="M31.8,148.4c-5.8-0.1-11.6-0.1-17.4-0.2c-0.4-7.4-0.8-14.8-1.4-22.2c-0.8-10.9-1.6-21.8-2.4-32.6
	c5.6,0,11.1-0.1,16.7-0.1c0.3,4.1,0.5,8.1,0.8,12.2c1.2,14.2,2.4,28.5,3.7,42.7L31.8,148.4L31.8,148.4z"/>
<path class="st0" d="M29.4,329.3c5.8,0,11.6-0.1,17.3-0.1c0.3,0,0.5,0,0.8,0c0.2,4,0.5,8,0.7,12c-6,0-12,0-18,0
	C30,337.2,29.7,333.2,29.4,329.3L29.4,329.3z"/>
<path class="st6" d="M30.3,341.2c6,0,12,0,18,0l0,0c0.2,3.8,0.5,7.5,0.8,11.3l0,0c-6,0-12,0-17.9,0
	C30.8,348.7,30.5,344.9,30.3,341.2L30.3,341.2z"/>
<path class="st1" d="M5.4,66.8h5.3c0,0.2,0,0.4,0,0.6c-1.8,0-3.6,0-5.3,0C5.4,67.2,5.4,67,5.4,66.8z"/>
<path class="st7" d="M47.5,329.2c-0.3,0-0.5,0-0.8,0c-1-12.4-2-24.7-2.9-37.1c-0.8-10.4-1.5-20.8-2.3-31.2
	c-0.9-10.3-1.9-20.5-2.8-30.8c-0.6-6.8-1.1-13.6-1.6-20.4c-0.9-11.2-2-22.5-2.9-33.8c-0.6-6.9-1.1-13.9-1.6-20.8
	c-0.2-2.2-0.5-4.4-0.7-6.6l0-0.2c1,0.1,2,0.1,3,0.1c66.7,0,133.3,0,200,0c1.1,0,2.2-0.1,3.4-0.2c5.5,0.9,7.7,3.2,7.3,8.9
	c-1,15.1-2.4,30.3-3.6,45.4c-0.8,10.6-1.6,21.1-2.4,31.7c-1.4,17.5-2.9,35-4.3,52.5c-0.9,10.8-1.8,21.6-2.4,32.4
	c-0.4,6.9-2.8,9.6-9.7,10.2C164.5,329.2,106,329.2,47.5,329.2L47.5,329.2z M90.9,220.4L90.9,220.4c-1.7,2.2-3.8,4.2-5.1,6.7
	c-6.4,11.8-6.7,24.5-4.2,37.1c2.4,12.2,8.1,22.3,21.7,25.3c0.8,0.2,1.7,1.3,2.1,2.2c6.7,13.9,19.1,18.9,33.6,13.3
	c14.2-5.7,24.1-15.9,30.5-29.6c3.9-8.4,4.3-17-1.1-25.2l-9.1-8.3c-4.4-3.2-9.3-3.2-14.4-2.7l-10.5,2.3c-1.9-5.4-3.2-11.2-5.9-16.2
	c-3-5.9-8.2-9.8-15-11.1c-4.3,0.1-8.5,0.2-12.8,0.2c-3,1.7-6,3.4-9,5.1C91.5,219.9,91.2,220.2,90.9,220.4L90.9,220.4z M126.4,185.2
	c17.9,0,35.7,0,53.6,0c3.3,0,5.7-0.9,6.2-4.5c0.6-4.2-2-6.7-6.7-6.7c-35.1,0-70.2,0-105.3,0c-4.8,0-7.1,1.9-7.1,5.6
	c0,4.2,1.8,5.6,6.9,5.6C91.5,185.2,108.9,185.2,126.4,185.2L126.4,185.2z"/>
<path class="st8" d="M238.1,148.2c-1.1,0.1-2.2,0.2-3.4,0.2c-66.7,0-133.3,0-200,0c-1,0-2-0.1-3-0.1c-1.2-14.2-2.5-28.5-3.7-42.8
	c-0.3-4.1-0.6-8.1-0.8-12.2c1.2-0.1,2.5-0.2,3.7-0.2c69,0,138.1,0,207.1,0c1.2,0,2.5,0.2,3.7,0.2c-1.3,16.3-2.5,32.6-3.8,48.9
	C237.9,144.3,238.1,146.3,238.1,148.2L238.1,148.2z"/>
<path class="st1" d="M252.1,78.8c-75.3,0-150.6,0-226,0c-6.6,0-10.1-3.5-9.3-9.6c0.1-0.9,1.5-1.7,2.3-2.4c0.2-0.2,0.7,0,1.1,0
	c75.3,0,150.6,0,226,0c0.5,0.2,1,0.5,1.5,0.7C253.2,69.7,252.3,74.4,252.1,78.8L252.1,78.8z"/>
<path class="st8" d="M47.5,329.2c58.5,0,117,0,175.5,0.1c-0.3,4-0.5,8-0.8,11.9c-58,0-116,0-174,0l0,0
	C48,337.2,47.8,333.2,47.5,329.2L47.5,329.2z"/>
<path class="st8" d="M220.6,364.5c-52,0-104-0.1-155.9,0.1c-7.5,0-14.1-3.2-15.7-12.1l0,0c57.5,0,114.9,0,172.4,0
	C221.2,356.4,220.9,360.5,220.6,364.5L220.6,364.5z"/>
<path class="st0" d="M221.4,352.4c-57.5,0-114.9,0-172.4,0c-0.2-3.8-0.5-7.5-0.8-11.3c58,0,116,0,174,0
	C222,344.9,221.7,348.6,221.4,352.4L221.4,352.4z"/>
<path class="st3" d="M247.7,67.5c-0.5-0.2-1-0.5-1.5-0.7c0.5,0,0.9-0.1,1.3-0.1C247.6,66.9,247.7,67.2,247.7,67.5z"/>
<path class="st9" d="M139,305.1c-14.4,5.6-26.9,0.6-33.6-13.3c-0.4-0.9-1.3-2-2.1-2.2c-13.6-3-19.3-13.1-21.7-25.3
	c-2.5-12.7-2.2-25.4,4.2-37.1c1.3-2.5,3.4-4.5,5.2-6.8c-0.1,1,0,2-0.3,2.9c-3.5,11.7-3.8,23.5-0.4,35.3c1.9,6.7,5.2,12.6,11.1,16.7
	c1.4,1,3.2,2.4,3.8-0.7c1.2-6.4,0.8-12.6-2-18.5c-3.1-6.7-5.5-13.6-4.7-21.2c0.7-6.8,1.5-13.5,2.3-20.3c4.3-0.1,8.5-0.2,12.8-0.2
	c-5,14.1-5.9,27.9,2.3,41.1c6.1-4.5,12.3-9.2,18.5-13.8c3.5-0.8,7-1.6,10.5-2.3c-1.2,0.8-2.4,1.7-3.7,2.5
	c-11.8,7.7-21.2,17.5-24.8,31.5c-1.4,5.3-1.7,10.9,1.4,16c7.9-5,12.5-11.8,15.6-20c2.5-6.6,6.2-12.4,12-16.7
	c4.7-3.5,9.3-7.1,13.9-10.6c3,2.8,6,5.5,9.1,8.3c-1.2,0.8-2.4,1.6-3.7,2.4c-7.9,5.1-16.4,10-19.9,19.4c-3.7,9.9-9.1,18.5-17.6,24.8
	c-2.8,2.1-1.6,3.2,0.7,4.1C131.5,302.5,135.3,303.8,139,305.1L139,305.1z"/>
<path class="st5" d="M126.4,185.2c-17.5,0-35,0-52.5,0c-5.2,0-7-1.4-6.9-5.6c0-3.8,2.4-5.6,7.1-5.6c35.1,0,70.2,0,105.3,0
	c4.8,0,7.3,2.6,6.7,6.7c-0.5,3.6-2.9,4.5-6.2,4.5C162.2,185.2,144.3,185.2,126.4,185.2L126.4,185.2z"/>
<path class="st10" d="M139,305.1c-3.7-1.3-7.4-2.6-11.1-4c-2.3-0.9-3.4-2-0.7-4.1c8.5-6.4,13.9-14.9,17.6-24.8
	c3.5-9.4,11.9-14.3,19.9-19.4c1.2-0.8,2.5-1.6,3.7-2.4c5.4,8.2,5,16.8,1.1,25.2C163.1,289.2,153.1,299.4,139,305.1L139,305.1z"/>
<path class="st10" d="M159.3,242c-4.6,3.5-9.2,7.1-13.9,10.6c-5.8,4.3-9.5,10.2-12,16.7c-3.1,8.2-7.8,15-15.6,20
	c-3.1-5.1-2.8-10.7-1.4-16c3.7-14,13-23.8,24.8-31.5c1.2-0.8,2.5-1.7,3.7-2.5C150,238.8,154.9,238.8,159.3,242L159.3,242z"/>
<path class="st10" d="M134.4,241.6c-6.2,4.6-12.4,9.2-18.5,13.8c-8.2-13.2-7.4-27.1-2.3-41.1c6.8,1.3,12,5.2,15,11.1
	C131.2,230.5,132.5,236.2,134.4,241.6L134.4,241.6z"/>
<path class="st10" d="M100.8,214.6c-0.8,6.8-1.6,13.5-2.3,20.3c-0.8,7.6,1.6,14.5,4.7,21.2c2.7,6,3.2,12.2,2,18.5
	c-0.6,3.1-2.4,1.7-3.8,0.7c-5.9-4.1-9.1-10-11.1-16.7c-3.4-11.8-3.1-23.5,0.4-35.3c0.3-0.9,0.2-2,0.3-2.9l0,0.1
	c0.3-0.3,0.5-0.5,0.8-0.8C94.8,218,97.8,216.3,100.8,214.6L100.8,214.6z"/>
<path class="st9" d="M91.7,219.6c-0.3,0.3-0.5,0.5-0.8,0.8C91.2,220.2,91.5,219.9,91.7,219.6z"/>
</svg>
