<?xml version="1.0" encoding="UTF-8"?>
<svg id="Layer_1" data-name="Layer 1" xmlns="http://www.w3.org/2000/svg" viewBox="0 0 384 384">
  <defs>
    <style>
      .cls-1 {
        fill: #fff;
      }

      .cls-2 {
        fill: #b06c6c;
      }

      .cls-3 {
        fill: #eac89f;
      }

      .cls-4 {
        fill: #ecbd83;
      }

      .cls-5 {
        fill: #766d78;
      }

      .cls-6 {
        fill: #cdc0ad;
      }

      .cls-7 {
        fill: #9d5e5e;
      }

      .cls-8 {
        fill: #f9eac7;
      }

      .cls-9 {
        fill: #8e868e;
      }

      .cls-10 {
        fill: #f4dbb3;
      }

      .cls-11 {
        fill: #f6d190;
      }
    </style>
  </defs>
  <path class="cls-1" d="m107.32,383.94c-34.87,0-69.74-.03-104.61.06-2.24,0-2.69-.45-2.69-2.69C.09,255.1.09,128.88,0,2.66,0-.09,1.06,0,3.08,0c80.74.04,161.48.04,242.22.04-.71.49-1.39,1.37-2.13,1.41-20.27,1.32-40.54,2.56-60.82,3.8-18.53,1.13-37.06,2.25-55.6,3.37-4.44.31-9,.15-13.29,1.11-2.44.55-5.3,2.47-6.49,4.6-2.45,4.39-3.9,9.34-5.76,14.06-3.21.53-6.43,1.07-9.64,1.6-4.24-.01-8.55-.5-12.68.14-2.37.36-5.57,2.04-6.47,4.01-3.52,7.75-7.39,15.48-6.49,24.56.39,3.92,1.57,6.67,5.29,8.12.02.21,0,.41-.07.61-3.4.78-4.95,3.15-5.06,6.42-.14,4.21-.14,8.42,0,12.63.13,3.87,2.72,6.33,6.61,6.66,1.23.1,2.46.21,3.68.32.79,10.87,1.62,21.74,2.37,32.62.51,7.41.91,14.82,1.36,22.23-5.31.84-7.52,3.25-7.34,8.48.18,5.35.55,10.69.98,16.03,1.4,17.48,2.9,34.96,4.3,52.44,1.1,13.77,2.08,27.55,3.19,41.31,1.4,17.36,2.98,34.71,4.26,52.07.54,7.39,2.4,9.74,9.7,10.66.29,3.96.58,7.93.87,11.89.27,3.74.54,7.48.81,11.22.28,4.69.51,9.38.83,14.07.51,7.28,1.11,14.54,9.6,17.44Z"/>
  <path class="cls-1" d="m269.3.04h114.7v383.9h-107.95c5.17-1.74,9.01-4.74,9.7-10.54.35-2.95.47-5.94.69-8.91.27-4.02.53-8.04.8-12.06.26-3.74.53-7.48.79-11.22.28-3.98.55-7.95.83-11.93,6.92-.53,9.32-3.28,9.73-10.18.64-10.81,1.52-21.61,2.39-32.41,1.4-17.49,2.9-34.98,4.31-52.47.85-10.55,1.6-21.11,2.43-31.66,1.19-15.14,2.51-30.27,3.57-45.42.39-5.61-1.82-7.95-7.34-8.86-.03-1.99-.21-3.99-.06-5.97,1.22-16.3,2.49-32.6,3.75-48.9,9.66-.98,10.47-1.88,10.43-11.66,0-.99-.07-1.97-.11-2.96.17-4.41,1.04-9.09-4.41-11.3-.04-.27-.08-.53-.12-.8,3.38-1.68,4.95-4.36,4.67-8.16-.16-2.23-.12-4.48-.17-6.72-2.34-6.37-4.38-12.88-7.22-19.02-.71-1.54-3.94-2.6-6.07-2.7-6.98-.32-13.98-.09-20.97-.08-1.99-5.01-3.97-10.03-5.96-15.04-2.22-5.3-2.8-11.52-8.4-14.92Z"/>
  <path class="cls-10" d="m286.44,364.49c-.22,2.97-.34,5.95-.69,8.91-.69,5.8-4.54,8.8-9.7,10.54H107.32c-8.49-2.9-9.1-10.16-9.6-17.44-.33-4.69-.56-9.38-.83-14.07,5.98.01,11.96.02,17.95.03,1.59,8.9,8.16,12.15,15.66,12.11,51.98-.23,103.97-.1,155.95-.09Z"/>
  <path class="cls-9" d="m269.3.04c5.6,3.4,6.18,9.62,8.4,14.92-48.43.02-96.86.04-145.28.05-.62,0-1.26,0-1.86-.14-3.48-.73-5.56-2.33-3.8-6.25,18.53-1.12,37.07-2.24,55.6-3.37,20.27-1.24,40.55-2.48,60.82-3.8.74-.05,1.42-.92,2.13-1.41.5,0,1,0,1.5,0,.58.39,1.17,1.11,1.74,1.1,2.66-.03,5.32-.26,7.98-.41,2.26-.23,4.52-.46,6.78-.69,2,0,4,0,6,0Z"/>
  <path class="cls-1" d="m256.52.72c-2.66.16-5.32.39-7.98.41-.58,0-1.16-.71-1.74-1.1,3.25,0,6.5,0,9.75,0,.06.23.05.46-.03.69Z"/>
  <path class="cls-6" d="m256.52.72c.07-.23.08-.45.03-.69,2.25,0,4.5,0,6.75,0-2.26.23-4.52.46-6.78.69Z"/>
  <path class="cls-5" d="m317.95,78.79c.04.99.11,1.97.11,2.96.05,9.78-.76,10.68-10.43,11.66-1.24-.09-2.48-.25-3.72-.25-69.03-.01-138.07-.01-207.1,0-1.24,0-2.48.14-3.72.21-5.57.02-11.13.05-16.7.07-1.23-.11-2.46-.21-3.68-.32-3.89-.33-6.47-2.79-6.61-6.66-.15-4.21-.15-8.42,0-12.63.11-3.27,1.66-5.63,5.06-6.42,1.78,0,3.57,0,5.35,0,0-.2,0-.41,0-.61h-5.28c-3.72-1.44-4.91-4.19-5.29-8.12-.89-9.08,2.97-16.81,6.49-24.56.89-1.97,4.1-3.64,6.47-4.01,4.14-.64,8.45-.15,12.68-.14-.87,2.96-1.27,6.18-2.69,8.84-3.53,6.6,1.57,13.16,9.05,13.13,73.33-.29,146.65-.17,219.98-.16.05,2.24,0,4.49.17,6.72.28,3.81-1.29,6.49-4.67,8.16-.45.03-.89.07-1.34.1-75.32,0-150.64,0-225.96-.01-.37,0-.88-.16-1.1.03-.87.74-2.24,1.5-2.35,2.39-.76,6.05,2.76,9.56,9.33,9.56,75.32.01,150.64.02,225.96.03Z"/>
  <path class="cls-9" d="m317.92,51.8c-73.33,0-146.66-.13-219.98.16-7.48.03-12.57-6.52-9.05-13.13,1.42-2.67,1.82-5.88,2.69-8.84,3.21-.53,6.43-1.07,9.64-1.6,1.52.54,3.05,1.56,4.57,1.56,59.29.07,118.58.05,177.87.05,6.99-.02,13.99-.24,20.97.08,2.13.1,5.35,1.15,6.07,2.7,2.84,6.14,4.88,12.65,7.22,19.02Z"/>
  <path class="cls-4" d="m95.21,329.3c-7.3-.93-9.15-3.28-9.7-10.66-1.28-17.37-2.86-34.71-4.26-52.07-1.11-13.77-2.08-27.55-3.19-41.31-1.4-17.48-2.9-34.96-4.3-52.44-.43-5.34-.79-10.68-.98-16.03-.18-5.22,2.04-7.64,7.34-8.48,5.81.06,11.62.11,17.44.17.25,2.22.56,4.43.74,6.65.56,6.93,1.03,13.87,1.61,20.8.94,11.25,1.95,22.5,2.9,33.75.57,6.81,1.03,13.62,1.63,20.42.91,10.25,1.99,20.49,2.85,30.75.87,10.39,1.55,20.8,2.35,31.2.95,12.37,1.93,24.75,2.9,37.12-5.78.05-11.56.09-17.34.14Z"/>
  <path class="cls-5" d="m283.66,30c-59.29,0-118.58.03-177.87-.05-1.52,0-3.05-1.02-4.57-1.56,1.86-4.72,3.31-9.66,5.76-14.06,1.19-2.13,4.05-4.06,6.49-4.6,4.3-.96,8.85-.8,13.29-1.11-1.77,3.92.32,5.52,3.8,6.25.6.13,1.24.14,1.86.14,48.43-.01,96.86-.03,145.28-.05,1.99,5.01,3.97,10.03,5.96,15.04Z"/>
  <path class="cls-10" d="m97.57,148.47c-5.81-.06-11.62-.11-17.44-.17-.45-7.41-.85-14.83-1.36-22.23-.75-10.88-1.58-21.75-2.37-32.62,5.57-.02,11.13-.05,16.7-.07.28,4.06.5,8.13.84,12.19,1.2,14.25,2.45,28.5,3.67,42.75l-.04.16Z"/>
  <path class="cls-10" d="m95.21,329.3c5.78-.05,11.56-.09,17.34-.14.26.02.52.03.78.05.25,3.99.49,7.98.74,11.98-6,0-12,0-18,0-.29-3.96-.58-7.93-.87-11.89Z"/>
  <path class="cls-3" d="m96.07,341.2c6,0,12,0,18,0,0,0,0,0,0,0,.25,3.75.51,7.51.76,11.26h0c-5.98,0-11.96-.02-17.95-.03-.27-3.74-.54-7.48-.81-11.22Z"/>
  <path class="cls-9" d="m71.23,66.82h5.28c0,.2,0,.41,0,.61-1.78,0-3.57,0-5.35,0,.06-.2.09-.4.07-.61Z"/>
  <path class="cls-11" d="m113.33,329.22c-.26-.02-.52-.03-.78-.05-.97-12.37-1.96-24.74-2.9-37.12-.8-10.4-1.48-20.81-2.35-31.2-.86-10.26-1.94-20.5-2.85-30.75-.61-6.8-1.06-13.62-1.63-20.42-.95-11.25-1.96-22.5-2.9-33.75-.58-6.93-1.05-13.87-1.61-20.8-.18-2.22-.49-4.43-.74-6.65,0,0,.04-.16.04-.16,1,.05,1.99.14,2.99.14,66.66,0,133.33,0,199.99,0,1.12,0,2.24-.12,3.36-.18,5.52.91,7.73,3.25,7.34,8.86-1.05,15.15-2.38,30.28-3.57,45.42-.83,10.55-1.58,21.11-2.43,31.66-1.41,17.49-2.91,34.98-4.31,52.47-.87,10.8-1.75,21.6-2.39,32.41-.41,6.9-2.81,9.64-9.73,10.18-58.51-.02-117.02-.04-175.53-.06Zm43.42-108.75v-.07c-1.73,2.24-3.81,4.3-5.15,6.76-6.41,11.77-6.73,24.46-4.23,37.14,2.41,12.24,8.09,22.3,21.7,25.31.84.19,1.7,1.33,2.13,2.23,6.66,13.9,19.14,18.87,33.57,13.3,14.17-5.74,24.15-15.93,30.51-29.58,3.91-8.4,4.3-17.03-1.13-25.2l-9.05-8.31c-4.36-3.18-9.31-3.2-14.36-2.72l-10.5,2.33c-1.9-5.43-3.23-11.16-5.85-16.22-3.04-5.89-8.2-9.84-15-11.1-4.27.08-8.54.17-12.81.25-3.01,1.7-6.02,3.39-9.03,5.09-.27.27-.54.53-.81.8Zm35.5-35.23c17.87,0,35.74-.02,53.61.02,3.27,0,5.67-.93,6.17-4.53.57-4.18-1.98-6.74-6.73-6.74-35.12,0-70.23,0-105.35,0-4.76,0-7.12,1.86-7.13,5.62-.02,4.17,1.75,5.62,6.95,5.63,17.5,0,34.99,0,52.49,0Z"/>
  <path class="cls-8" d="m303.95,148.28c-1.12.06-2.24.18-3.36.18-66.66,0-133.33,0-199.99,0-1,0-1.99-.09-2.99-.14-1.23-14.25-2.47-28.5-3.67-42.75-.34-4.06-.56-8.13-.84-12.19,1.24-.07,2.48-.21,3.72-.21,69.03-.01,138.07-.01,207.1,0,1.24,0,2.48.16,3.72.25-1.26,16.3-2.54,32.6-3.75,48.9-.15,1.98.03,3.98.06,5.97Z"/>
  <path class="cls-9" d="m317.95,78.79c-75.32-.01-150.64-.02-225.96-.03-6.56,0-10.08-3.51-9.33-9.56.11-.89,1.49-1.66,2.35-2.39.22-.19.73-.03,1.1-.03,75.32,0,150.64,0,225.96.01.49.23.97.47,1.46.7,5.45,2.22,4.58,6.9,4.41,11.3Z"/>
  <path class="cls-8" d="m113.33,329.22c58.51.02,117.02.04,175.53.06-.28,3.98-.55,7.95-.83,11.93-57.99,0-115.98,0-173.96,0,0,0,0,0,0,0-.25-3.99-.49-7.98-.74-11.98Z"/>
  <path class="cls-8" d="m286.44,364.49c-51.98-.01-103.97-.14-155.95.09-7.5.03-14.07-3.22-15.66-12.11,0,0,0,0,0,0,57.47-.01,114.94-.02,172.41-.03-.27,4.02-.53,8.04-.8,12.06Z"/>
  <path class="cls-10" d="m287.24,352.42c-57.47.01-114.94.02-172.41.03-.25-3.75-.51-7.51-.76-11.26,57.99,0,115.98,0,173.96,0-.26,3.74-.53,7.48-.79,11.22Z"/>
  <path class="cls-6" d="m313.54,67.49c-.49-.23-.97-.47-1.46-.7.45-.03.89-.07,1.34-.1.04.27.08.53.12.8Z"/>
  <path class="cls-7" d="m204.77,305.15c-14.43,5.57-26.92.6-33.57-13.3-.43-.9-1.28-2.04-2.13-2.23-13.61-3.01-19.29-13.07-21.7-25.31-2.5-12.68-2.19-25.37,4.23-37.14,1.34-2.46,3.42-4.52,5.16-6.76-.09.98-.02,2.02-.3,2.94-3.51,11.73-3.79,23.5-.38,35.27,1.94,6.69,5.23,12.6,11.08,16.74,1.39.98,3.24,2.43,3.83-.7,1.19-6.35.75-12.56-1.97-18.53-3.07-6.74-5.51-13.65-4.7-21.25.72-6.77,1.51-13.53,2.27-20.3,4.27-.08,8.54-.17,12.8-.25-5.03,14.05-5.88,27.86,2.34,41.11,6.1-4.54,12.31-9.17,18.51-13.79,3.5-.78,7-1.55,10.5-2.33-1.23.84-2.44,1.7-3.69,2.51-11.82,7.71-21.17,17.5-24.84,31.5-1.39,5.28-1.72,10.9,1.37,16.03,7.85-5.02,12.54-11.79,15.62-19.99,2.47-6.57,6.2-12.43,12-16.74,4.68-3.47,9.27-7.06,13.9-10.59,3.02,2.77,6.03,5.54,9.05,8.31-1.23.81-2.45,1.62-3.68,2.42-7.93,5.14-16.36,10.02-19.87,19.4-3.71,9.93-9.05,18.47-17.57,24.83-2.76,2.06-1.6,3.21.66,4.11,3.65,1.45,7.38,2.7,11.08,4.04Z"/>
  <path class="cls-4" d="m192.25,185.24c-17.5,0-34.99,0-52.49,0-5.2,0-6.97-1.45-6.95-5.63.02-3.76,2.37-5.62,7.13-5.62,35.12,0,70.23,0,105.35,0,4.75,0,7.31,2.56,6.73,6.74-.49,3.6-2.9,4.54-6.17,4.53-17.87-.04-35.74-.02-53.61-.02Z"/>
  <path class="cls-2" d="m204.77,305.15c-3.7-1.34-7.43-2.59-11.08-4.04-2.27-.9-3.42-2.04-.66-4.11,8.53-6.36,13.86-14.9,17.57-24.83,3.5-9.38,11.94-14.26,19.87-19.4,1.23-.8,2.46-1.61,3.68-2.42,5.43,8.17,5.04,16.81,1.13,25.2-6.36,13.65-16.34,23.85-30.51,29.58Z"/>
  <path class="cls-2" d="m225.11,242.05c-4.63,3.53-9.22,7.12-13.9,10.59-5.8,4.31-9.53,10.17-12,16.74-3.08,8.2-7.77,14.97-15.62,19.99-3.09-5.13-2.76-10.74-1.37-16.03,3.68-14.01,13.02-23.79,24.84-31.5,1.25-.81,2.46-1.67,3.69-2.51,5.05-.48,10.01-.46,14.36,2.72Z"/>
  <path class="cls-2" d="m200.24,241.66c-6.2,4.62-12.41,9.24-18.51,13.79-8.22-13.25-7.37-27.07-2.34-41.11,6.81,1.26,11.96,5.21,15,11.1,2.61,5.06,3.95,10.79,5.85,16.22Z"/>
  <path class="cls-2" d="m166.59,214.58c-.76,6.76-1.56,13.53-2.27,20.3-.81,7.6,1.63,14.51,4.7,21.25,2.72,5.97,3.16,12.18,1.97,18.53-.59,3.13-2.44,1.68-3.83.7-5.85-4.13-9.15-10.04-11.08-16.74-3.4-11.77-3.13-23.54.38-35.27.28-.93.21-1.96.3-2.94,0,0-.01.07-.01.07.27-.27.54-.53.81-.79,3.01-1.7,6.02-3.39,9.03-5.09Z"/>
  <path class="cls-7" d="m157.56,219.67c-.27.26-.54.53-.81.79.27-.26.54-.53.81-.79Z"/>
</svg>