<?xml version="1.0" encoding="utf-8"?>
<!-- Generator: Adobe Illustrator 27.1.1, SVG Export Plug-In . SVG Version: 6.00 Build 0)  -->
<svg version="1.1" id="Layer_1" xmlns="http://www.w3.org/2000/svg" xmlns:xlink="http://www.w3.org/1999/xlink" x="0px" y="0px"
	 viewBox="0 0 384 328.9" style="enable-background:new 0 0 384 328.9;" xml:space="preserve">
<style type="text/css">
	.st0{fill:#845C47;}
	.st1{fill:#986B54;}
	.st2{fill:#B89E90;}
	.st3{fill:#C8B0A4;}
	.st4{fill:#D7C7BE;}
	.st5{fill:#865E49;}
	.st6{fill:#523838;}
	.st7{fill:#966A53;}
	.st8{fill:#976A54;}
	.st9{fill:#684646;}
	.st10{fill:#543A39;}
	.st11{fill:#664545;}
	.st12{fill:#FFFFFF;}
</style>
<path class="st0" d="M383.4,162c-2,21.4-8.6,41.4-18.9,60.1c-25.5,46.3-62.5,79.8-112.4,98.2c-15.4,5.7-31.5,8.7-47.9,8.5
	c-23.7-0.3-45.2-6.9-62.8-23.6c-0.8-0.8-2.7-1.2-3.7-0.9c-31.6,11-59.7,3.9-84.6-17.3c-6.7-5.7-12.1-12.9-18.1-19.3
	c0.9,0.3,1.9,0.5,2.7,1c14.5,8.9,30,14.1,47.2,13.1c0.5-0.2,1-0.5,1.5-0.7c3.2,0,5.1-2.2,6.8-4.5c0.5-0.8,1-1.5,1.5-2.2
	c2.7-3.5,2-7.4,1.5-11.2c-0.2-0.5-0.5-1-0.7-1.5c0-1,0-2,0-3c-0.2-0.8-0.5-1.5-0.7-2.3c0-1.2,0-2.5,0-3.7c-0.2-1.2-0.5-2.5-0.7-3.8
	l0.7-18.7c0-0.8,0-1.5,0-2.2c0.8-11.8,2.6-23.4,6.8-34.6c0.4,0.9,1,1.7,1.2,2.7c4.1,15.9,8.2,31.8,12.2,47.6c0,0.8,0,1.5,0,2.2
	c0.4,1.5,0.7,3,1.1,4.6c0.2,0,0.4-0.1,0.6-0.1c-0.3-1.5-0.6-3-0.9-4.5c0-0.8,0-1.5,0-2.2c0-3.1-0.2-6.3,0.1-9.4
	c0.3-3.6,1-7.3,1.5-10.9c0.5,0.6,1.2,1.1,1.4,1.8c5.1,21.9,16.7,39.4,35.8,51.5c8.1,5.2,16.9,8.9,26.5,10.4c1.8,0.5,3.5,1,5.2,1.5
	c1.1,0.2,2.2,0.6,3.3,0.7c11.7,0.8,23.3,1.3,34.9-0.6c15.8-2.6,30.9-7.2,45.4-14.2c16.9-8.1,32.8-17.9,46.4-30.9
	c9.7-9.2,19.3-18.7,27.9-29c10.9-13,19.7-27.5,26.4-43.2c5.6-13.2,10.4-26.6,11.8-41c0.4,2.4,0.9,4.9,1.3,7.3c0,0.8,0,1.5-0.1,2.3
	c0.2,1,0.5,2,0.7,3V156c-0.2,1.3-0.3,2.6-0.5,3.9C383.5,160.6,383.4,161.3,383.4,162L383.4,162z"/>
<path class="st1" d="M0,164.2v-12.8l0.3-0.1l0.3,0c3.4,0.7,3.1,3.5,1.9,5.1c-2,2.5-1.5,5.1-1.7,7.7C0.5,164.2,0.3,164.2,0,164.2z"/>
<path class="st2" d="M0.6,151.4l-0.3,0L0,151.5V144c0.2,0,0.4,0,0.6,0C0.6,146.4,0.6,148.9,0.6,151.4L0.6,151.4z"/>
<path class="st3" d="M0,164.2c0.2,0,0.5,0,0.8,0c0,1.5,0,3-0.1,4.5c-0.2,0-0.5,0-0.7,0V164.2z"/>
<path class="st3" d="M0.6,143.9c-0.2,0-0.4,0-0.6,0v-4.5h0.4h0.4C0.7,141,0.7,142.5,0.6,143.9L0.6,143.9z"/>
<path class="st2" d="M383.5,159.8c0.2-1.3,0.3-2.6,0.5-3.9v3.8C383.9,159.8,383.7,159.9,383.5,159.8z"/>
<path class="st1" d="M384,143.2c-0.2-1-0.5-2-0.7-3l0.4,0l0.4,0V143.2z"/>
<path class="st4" d="M0,168.7c0.2,0,0.5,0,0.7,0c0,1,0,2,0,3l-0.3,0H0L0,168.7L0,168.7z"/>
<path class="st4" d="M0.7,139.5H0.4H0v-2.2c0.2,0,0.5,0,0.7,0L0.7,139.5L0.7,139.5z"/>
<path class="st4" d="M383.5,159.8c0.2,0,0.4,0,0.5-0.1v2.2l-0.3,0.1l-0.3,0C383.4,161.3,383.5,160.6,383.5,159.8L383.5,159.8z"/>
<path class="st3" d="M384,140.2l-0.4,0l-0.4,0c0-0.8,0-1.5,0.1-2.3c0.2,0.1,0.5,0.1,0.7,0.1L384,140.2L384,140.2z"/>
<path class="st1" d="M382,130.6c-1.4,14.4-6.1,27.8-11.8,41c-6.7,15.7-15.5,30.2-26.4,43.2c-8.6,10.3-18.2,19.8-27.9,29
	c-13.6,13-29.5,22.8-46.4,30.9c-14.4,6.9-29.6,11.6-45.4,14.2c-11.7,1.9-23.3,1.5-34.9,0.6c-1.1-0.1-2.2-0.5-3.3-0.7
	c0-0.5,0-1,0-1.5c4.2-1.6,8.5-3,12.5-4.9c15.8-7.3,29-18,40.6-30.7c11-12,19.8-25.6,26.4-40.6c5.1-11.6,9.7-23.5,15.1-35
	c8.9-19,19.5-37,31.3-54.4c2.6-3.9,5-8,7.1-12.2c0.5-1-0.2-3.2-1.2-4.1c-0.9-0.9-3-1.7-4.1-1.3c-5.8,2.1-11.8,4.2-17.2,7.1
	c-26.2,13.9-45.3,34.8-58.7,61c-5.5,10.8-9.9,22.1-14.8,33.1c-11.3,25-26.3,47.8-41.6,70.5c-2.3,3.4-2.7,6.6-0.4,10
	c0,0.5,0,1.1-0.1,1.6c-9.6-1.5-18.3-5.3-26.5-10.4c-19.1-12.1-30.7-29.6-35.8-51.5c-0.2-0.7-0.9-1.2-1.4-1.8
	c2-15.6,6.4-30.5,12.8-44.9c2-4.5,4-9.1,6-13.6c0.7-0.7,1.5-1.3,2.1-2.1c5.6-8.3,10.7-17,16.8-25c8.1-10.7,16.8-20.9,27.6-29.2
	c0.8-0.8,1.5-1.5,2.3-2.2c1.8-1.5,3.5-3.1,5.4-4.6c6.1-4.6,12.3-9.2,18.5-13.8c8-4.3,15.9-8.9,24.1-12.7
	c21.6-10,44.2-15.9,68.1-14.5c32.7,1.9,58.5,15.5,73.9,45.6C378.3,114.1,381.1,122.1,382,130.6L382,130.6z"/>
<path class="st1" d="M0.7,139.5c0-0.8,0-1.5,0-2.3c0.5-4.2,1.1-8.5,1.6-12.7c2-0.6,1.8-1.4,0.2-2.4c0.4-2,0.7-3.9,1.1-5.9
	c3.3-1.5,4.1-5.4,1.5-7.5c0.3-1.2,0.6-2.5,0.9-3.7c3.3-1.7,3.9-3.9,1.5-6c0.1-0.5,0.2-1,0.4-1.5c0.8-0.5,1.7-1,2.5-1.6l-1.6-1.5
	c1.1-3.5,2.3-6.9,3.4-10.4c0.9-0.8,2.2-1.5,2.8-2.6c0.9-1.7,1.5-3.6,1.9-5.4c0.2-0.8-0.3-1.7-0.4-2.6c0.5-1.2,1.1-2.5,1.6-3.7
	c3.7-0.4,6.5-5.9,5.1-10c0.2-0.4,0.5-0.9,0.7-1.3c3.7-0.6,6-4.4,4.5-7.5c1.3-2,2.6-3.9,3.9-5.9c1.1-0.2,2.5-0.1,3.2-0.7
	c1.7-1.7,3.2-3.7,4.5-5.8c0.3-0.5-0.5-1.7-0.8-2.5c1.1-1.2,2.2-2.5,3.2-3.7c0.8,0.4,1.7,1.2,2.2,1c2.3-0.7,7-7.8,7-10.2
	c0.5-0.5,1-0.9,1.5-1.4c2.6,1,3.6,0,3.3-2.6l0.1-0.1c4,0.7,4.2,0.6,3.4-2.6c1.7-1.2,3.5-2.4,5.2-3.6c2.6,2,5.3,0.5,5.9-3.4
	c1.5-0.7,3-1.4,4.5-2.1c2.6,0.9,8.8-0.9,10.4-3.1c0.2-0.2,0-0.7,0.1-1.1c1-0.3,2.1-0.6,3.1-0.9c1.5,1.3,7.9,0.9,8.9-0.6
	c0.2-0.3,0.1-0.7,0.1-1.1c5.5-0.2,11-0.4,16.5-0.6c0.6,0.7,1.2,1.5,1.8,2.2c0.7-0.6,1.3-1.3,2-1.9c2.2,0.4,4.5,0.8,6.7,1.2
	c0.2,0.4,0.5,0.8,0.7,1.2c0.3-0.3,0.6-0.6,1-1c3.2,1,6.4,1.9,9.6,2.9c0.3,0.8,0.3,2,0.8,2.3c2.7,1.6,5.5,3.1,8.4,4.2
	c1.3,0.5,3,0,4.5,0c3.4,2.2,6.9,4.4,10.3,6.6c0.5,1.1,0.9,2.2,1.4,3.3c0.2,0.6,0.4,1.2,0.6,1.7c4.8,9.3,10.1,18.5,14.4,28
	c2.7,6,4,12.6,6,19c0,1.8,0,3.5,0,5.3c-1.1,2.3-1.8,5-3.5,6.7c-4.6,4.6-9.8,8.4-14.3,13c-8.5,8.5-16.8,17.2-24.9,26.1
	c-4.6,5.1-8.5,10.9-12.8,16.4c-1,0-2,0-3,0c-3-8-6.2-16-9-24.1c-2.4-7.2-4.6-14.4-6.5-21.8c-2.3-8.7-4.2-17.6-6.3-26.3
	c-1.4-6-2.6-12.1-4.4-18c-0.5-1.7-2.7-3.8-4.2-3.9c-1.5-0.1-3.7,2-4.5,3.6c-2.8,6.3-5.6,12.8-7.5,19.4c-3.7,12.7-5.6,25.8-4.8,39
	c0.4,6.8,1.4,13.6,2.2,20.3c1.3,10.7,4.4,20.9,8.2,30.9c3.5,9.3,7.2,18.5,10.9,27.8c0.8,1.9,1.7,3.7,2.6,5.6c0,1.2,0.1,2.4,0.1,3.7
	c-4.2,11.1-6,22.8-6.8,34.6l-1.4,1.3c0.4,0.3,0.9,0.6,1.4,1l-0.7,18.7c-2.5,1.8-1.3,2.8,0.7,3.8c0,1.2,0,2.5,0,3.7
	c0.2,0.8,0.5,1.5,0.7,2.3c0,1,0,2,0,3c0.2,0.5,0.5,1,0.7,1.5c0.5,3.9,1.2,7.8-1.5,11.2c-0.5,0.8-1,1.5-1.5,2.2
	c-1.7,2.3-3.5,4.5-6.8,4.5c-0.5,0.2-1,0.5-1.5,0.7c-17.2,1-32.7-4.3-47.2-13.1c-0.8-0.5-1.8-0.7-2.7-1c-0.3-0.5-0.7-1.1-1-1.6
	c1.8-2.8,0-3-2.1-3c-1.5-2.2-3-4.5-4.5-6.8c1-2.1-0.5-4.5-3.1-5.2c-0.4-0.7-0.8-1.4-1.1-2.1c2.2-4.2-0.8-10.1-5.3-10.5
	c-0.4-1-0.9-2-1.3-3c1.4-1.6,0.8-2.1-1-2.2c-0.7-1.8-1.4-3.5-2-5.3c1.4-1.4,1-2.1-0.9-2.2c-1.2-3.7-2.5-7.5-3.7-11.2
	c1.4-1.2,1.3-2-0.6-2.3c-0.2-0.8-0.4-1.5-0.6-2.3c2.6-0.8,1.5-2.7,1.2-4.2c-0.3-1.5-0.9-2.9-2.9-2.4c-0.4-1.5-0.7-3.1-1.1-4.6
	c0.3-0.9,0.7-1.8,1-2.7l0.2,0.1l-0.2,0.1c-0.7-1.1-1.4-2.3-2.1-3.4c-1-7-2-14-2.9-21c0-1,0-2,0-3c0-1.5,0-3,0.1-4.5
	c0.1-2.6-0.3-5.2,1.7-7.7c1.3-1.6,1.5-4.4-1.9-5.1c0-2.5,0-5,0.1-7.5C0.7,142.4,0.7,141,0.7,139.5L0.7,139.5z"/>
<path class="st0" d="M127.5,137.2c4.2-5.5,8.1-11.2,12.8-16.4c8.1-8.9,16.4-17.6,24.9-26.1c4.5-4.6,9.8-8.5,14.3-13
	c1.7-1.7,2.4-4.4,3.5-6.7c0-1.8,0-3.5,0-5.3c-1.9-6.3-3.2-13-6-19c-4.3-9.6-9.6-18.7-14.4-28c-0.3-0.5-0.4-1.1-0.6-1.7
	c0.1-0.7,0.1-1.4,0.2-2.1c16.9,13.1,28.9,30.1,38,49.2c3.1,6.5,5.5,13.3,8.2,20c-6.2,4.6-12.3,9.2-18.5,13.8c-1.9,1.4-3.6,3-5.4,4.6
	c-0.8,0.8-1.5,1.5-2.3,2.2c-10.8,8.2-19.5,18.5-27.6,29.2c-6.1,8-11.2,16.7-16.8,25c-0.5,0.8-1.4,1.4-2.1,2.1c-3.3-8-6.5-16-9.8-24
	c-0.2-0.5-0.5-1-0.7-1.5C126.1,138.7,126.8,137.9,127.5,137.2L127.5,137.2z"/>
<path class="st1" d="M150.3,11.1c-1.5,0-3.2,0.5-4.5,0c-2.9-1.1-5.7-2.7-8.4-4.2c-0.5-0.3-0.6-1.5-0.8-2.3
	C141.1,6.8,145.7,8.9,150.3,11.1L150.3,11.1z"/>
<path class="st1" d="M51.7,23.2c0,2.4-4.8,9.5-7,10.2c-0.6,0.2-1.5-0.7-2.2-1C45.5,29.2,48.6,26.2,51.7,23.2L51.7,23.2z"/>
<path class="st1" d="M39.2,36c0.3,0.9,1.1,2,0.8,2.5c-1.3,2.1-2.8,4.1-4.5,5.8c-0.7,0.7-2.1,0.5-3.2,0.7C34.6,42,36.9,39,39.2,36z"
	/>
<path class="st1" d="M23.1,59.7c1.4,4.1-1.4,9.6-5.1,10C19.8,66.4,21.5,63.1,23.1,59.7z"/>
<path class="st1" d="M86.1,3.3c0,0.4,0.1,0.8-0.1,1.1c-1.6,2.2-7.8,4-10.4,3.1C79.2,6,82.7,4.7,86.1,3.3L86.1,3.3z"/>
<path class="st1" d="M16.4,73.4c0.2,0.9,0.6,1.8,0.4,2.6c-0.5,1.8-1,3.7-1.9,5.4c-0.6,1.1-1.8,1.7-2.8,2.6
	C13.6,80.5,15,76.9,16.4,73.4z"/>
<path class="st1" d="M28.3,50.9c1.5,3.1-0.8,6.9-4.5,7.5C25.4,55.9,26.8,53.4,28.3,50.9z"/>
<path class="st1" d="M5.1,108.7c2.6,2.1,1.8,6-1.5,7.5C4.1,113.7,4.6,111.2,5.1,108.7z"/>
<path class="st1" d="M98.2,0.7c0,0.4,0.1,0.8-0.1,1.1c-1,1.5-7.4,1.9-8.9,0.6C92.3,1.8,95.3,1.2,98.2,0.7z"/>
<path class="st1" d="M71.2,9.6c-0.6,3.9-3.3,5.4-5.9,3.4C67.3,11.8,69.2,10.7,71.2,9.6z"/>
<path class="st1" d="M7.5,99c2.4,2.1,1.8,4.3-1.5,6C6.5,103,7,101,7.5,99z"/>
<path class="st1" d="M118.5,0.3c-0.7,0.6-1.3,1.3-2,1.9c-0.6-0.7-1.2-1.5-1.8-2.2C116,0.1,117.3,0.2,118.5,0.3z"/>
<path class="st1" d="M60.1,16.5c0.8,3.2,0.7,3.2-3.4,2.6C57.8,18.2,59,17.4,60.1,16.5z"/>
<path class="st1" d="M56.6,19.1c0.3,2.7-0.7,3.7-3.3,2.6L56.6,19.1z"/>
<path class="st1" d="M8.8,94.4l1.6,1.5c-0.8,0.5-1.7,1-2.5,1.6C8.2,96.4,8.5,95.4,8.8,94.4z"/>
<path class="st5" d="M162.2,18.9c-0.1,0.7-0.1,1.4-0.2,2.1c-0.5-1.1-0.9-2.2-1.4-3.3C161.1,18.1,161.7,18.5,162.2,18.9L162.2,18.9z"
	/>
<path class="st1" d="M2.5,122.1c1.5,1,1.7,1.8-0.2,2.4C2.4,123.7,2.5,122.9,2.5,122.1z"/>
<path class="st1" d="M126.9,1.7c-0.3,0.3-0.6,0.6-1,1c-0.2-0.4-0.5-0.8-0.7-1.2C125.8,1.6,126.4,1.7,126.9,1.7L126.9,1.7z"/>
<path class="st1" d="M17.7,238.6c4.5,0.5,7.5,6.3,5.3,10.5C21.2,245.6,19.5,242.1,17.7,238.6z"/>
<path class="st1" d="M5.8,203.3c2-0.5,2.6,0.9,2.9,2.4c0.3,1.5,1.4,3.4-1.2,4.2C6.9,207.8,6.4,205.5,5.8,203.3z"/>
<path class="st1" d="M3.6,192.8c0.7,1.1,1.4,2.3,2.1,3.4V196c-0.3,0.9-0.7,1.8-1,2.7C4.3,196.7,4,194.7,3.6,192.8L3.6,192.8z"/>
<path class="st1" d="M24.2,251.2c2.6,0.7,4.1,3.2,3.1,5.2C26.2,254.7,25.2,253,24.2,251.2z"/>
<path class="st1" d="M31.7,263.2c2.1,0,3.9,0.2,2.1,3C33.1,265.2,32.4,264.2,31.7,263.2z"/>
<path class="st1" d="M12.5,225.8c1.9,0.1,2.3,0.8,0.9,2.2C13.1,227.3,12.8,226.6,12.5,225.8z"/>
<path class="st1" d="M15.4,233.3c1.8,0,2.5,0.6,1,2.2C16.1,234.8,15.7,234.1,15.4,233.3z"/>
<path class="st1" d="M8.1,212.3c1.9,0.3,2,1.1,0.6,2.3C8.5,213.8,8.3,213,8.1,212.3z"/>
<path class="st6" d="M126,141c3.3,8,6.5,16,9.8,24c-2,4.5-4,9.1-6,13.6c-6.3,14.4-10.7,29.3-12.7,44.9c-0.5,3.6-1.2,7.2-1.5,10.9
	c-0.3,3.1-0.1,6.2-0.1,9.4c-0.2,0-0.5,0-0.8,0c-4.1-15.9-8.1-31.8-12.2-47.6c-0.2-0.9-0.8-1.8-1.2-2.7c0-1.2-0.1-2.4-0.1-3.7
	c0.6-0.8,1.3-1.5,1.7-2.3c4.7-10.7,9.2-21.5,14.2-32C119.5,150.4,123,145.8,126,141L126,141z"/>
<path class="st7" d="M186,287.3c0,0.5,0,1,0,1.5c-1.8-0.5-3.5-1-5.2-1.5c0-0.5,0-1.1,0.1-1.6C182.5,286.1,184.3,286.7,186,287.3
	L186,287.3z"/>
<path class="st8" d="M94.5,252.7c-2-0.9-3.2-2-0.7-3.8C94,250.2,94.3,251.5,94.5,252.7z"/>
<path class="st9" d="M115.5,246c0.3,1.5,0.6,3,0.9,4.5c-0.2,0-0.4,0.1-0.6,0.1c-0.4-1.5-0.7-3-1.1-4.6C115,246,115.3,246,115.5,246
	L115.5,246z"/>
<path class="st8" d="M94.5,230.2c-0.4-0.3-0.9-0.6-1.4-1l1.4-1.3C94.5,228.7,94.5,229.5,94.5,230.2z"/>
<path class="st8" d="M95.2,258.7c-0.2-0.8-0.5-1.5-0.7-2.3C94.8,257.2,95,258,95.2,258.7z"/>
<path class="st8" d="M93,276.7c0.5-0.8,1-1.5,1.5-2.2C94,275.2,93.5,276,93,276.7z"/>
<path class="st8" d="M96,263.2c-0.2-0.5-0.5-1-0.7-1.5C95.5,262.2,95.8,262.7,96,263.2z"/>
<path class="st8" d="M84.8,282c0.5-0.2,1-0.5,1.5-0.7C85.8,281.5,85.3,281.7,84.8,282z"/>
<path class="st10" d="M115.5,246c-0.2,0-0.5,0-0.8,0c0-0.8,0-1.5,0-2.2c0.2,0,0.5,0,0.8,0C115.5,244.5,115.5,245.2,115.5,246z"/>
<path class="st6" d="M186,287.3c-1.7-0.6-3.5-1.1-5.2-1.7c-2.3-3.5-1.9-6.6,0.4-10c15.3-22.6,30.3-45.5,41.6-70.5
	c5-11,9.4-22.3,14.8-33.1c13.3-26.2,32.5-47.1,58.7-61c5.5-2.9,11.4-5,17.2-7.1c1.1-0.4,3.2,0.4,4.1,1.3c0.9,0.9,1.6,3.1,1.2,4.1
	c-2.1,4.2-4.4,8.3-7.1,12.2c-11.8,17.4-22.4,35.4-31.3,54.4c-5.4,11.5-10,23.4-15.1,35c-6.5,15-15.3,28.5-26.4,40.6
	c-11.6,12.7-24.9,23.4-40.6,30.7C194.5,284.3,190.2,285.7,186,287.3L186,287.3z"/>
<path class="st8" d="M182.2,108.7c0.8-0.8,1.5-1.5,2.3-2.2C183.8,107.2,183,108,182.2,108.7z"/>
<path class="st11" d="M126,141c-3,4.8-6.5,9.4-9,14.5c-5,10.5-9.5,21.3-14.2,32c-0.4,0.8-1.1,1.5-1.7,2.3c-0.9-1.9-1.9-3.7-2.6-5.6
	c-3.7-9.2-7.4-18.5-10.9-27.8c-3.7-10-6.9-20.2-8.2-30.9c-0.8-6.8-1.8-13.5-2.2-20.3c-0.8-13.3,1.1-26.3,4.8-39
	c1.9-6.7,4.7-13.1,7.5-19.4c0.7-1.6,3-3.7,4.5-3.6c1.5,0.1,3.7,2.2,4.2,3.9c1.8,5.9,3,12,4.4,18c2.1,8.8,4,17.6,6.3,26.3
	c1.9,7.3,4,14.6,6.5,21.8c2.8,8.1,6,16.1,9,24.1c0.2,0.7,0.5,1.5,0.8,2.2C125.5,140,125.8,140.5,126,141L126,141z"/>
<path class="st8" d="M183,69.7c0,1.8,0,3.5,0,5.3C183,73.2,183,71.5,183,69.7z"/>
<path class="st8" d="M125.3,139.5c-0.2-0.7-0.5-1.5-0.8-2.2c1,0,2,0,3,0C126.8,138,126,138.7,125.3,139.5z"/>
<polygon class="st12" points="5.7,196 5.7,196.2 5.9,196.1 "/>
</svg>
