<?xml version="1.0" encoding="UTF-8"?>
<svg id="Layer_1" data-name="Layer 1" xmlns="http://www.w3.org/2000/svg" viewBox="0 0 384 384">
  <defs>
    <style>
      .cls-1 {
        fill: #c8b0a4;
      }

      .cls-2 {
        fill: #b89e90;
      }

      .cls-3 {
        fill: #fff;
      }

      .cls-4 {
        fill: #966a53;
      }

      .cls-5 {
        fill: #845c47;
      }

      .cls-6 {
        fill: #664545;
      }

      .cls-7 {
        fill: #976a54;
      }

      .cls-8 {
        fill: #d7c7be;
      }

      .cls-9 {
        fill: #523838;
      }

      .cls-10 {
        fill: #684646;
      }

      .cls-11 {
        fill: #543a39;
      }

      .cls-12 {
        fill: #986b54;
      }

      .cls-13 {
        fill: #865e49;
      }
    </style>
  </defs>
  <path class="cls-3" d="m0,165V0c128,0,256,0,384,0,0,55.25,0,110.5,0,165.75-.23,0-.45-.01-.67-.06-.44-2.43-.89-4.87-1.33-7.3-.94-8.53-3.69-16.55-7.56-24.12-15.38-30.08-41.14-43.76-73.85-45.62-23.92-1.36-46.55,4.52-68.11,14.53-8.24,3.82-16.1,8.46-24.13,12.73-2.71-6.67-5.11-13.49-8.19-19.98-9.07-19.14-21.04-36.12-37.96-49.24-.55-.4-1.09-.8-1.64-1.2-3.44-2.2-6.87-4.4-10.31-6.6-4.59-2.17-9.18-4.34-13.77-6.51-3.2-.95-6.39-1.91-9.59-2.86-.55-.08-1.1-.16-1.66-.23-2.25-.4-4.5-.79-6.74-1.19-1.25-.09-2.5-.19-3.76-.28-5.51.21-11.01.43-16.52.64-2.99.57-5.99,1.15-8.98,1.72-1.04.3-2.09.6-3.13.9-3.49,1.38-6.98,2.76-10.46,4.14-1.49.71-2.98,1.42-4.47,2.13-1.98,1.13-3.95,2.26-5.93,3.39-1.73,1.19-3.45,2.38-5.18,3.56-1.13.85-2.25,1.7-3.38,2.56l-.14.08-3.29,2.64c-.52.46-1.03.92-1.55,1.38-3.1,3.05-6.2,6.1-9.29,9.15-1.08,1.23-2.16,2.45-3.24,3.68-2.31,3.01-4.62,6.02-6.92,9.03-1.32,1.96-2.63,3.92-3.95,5.88-1.49,2.51-2.98,5.02-4.47,7.53-.24.44-.48.88-.72,1.32-1.69,3.34-3.38,6.67-5.07,10.01-.55,1.23-1.1,2.46-1.65,3.69-1.42,3.51-2.84,7.03-4.27,10.54-1.13,3.48-2.27,6.95-3.4,10.43-.29,1.01-.58,2.02-.87,3.03-.12.51-.25,1.03-.37,1.54-.51,2-1.01,4-1.52,6-.29,1.24-.59,2.47-.88,3.71-.5,2.5-.99,5-1.49,7.5-.36,1.96-.73,3.92-1.09,5.89-.08.8-.16,1.6-.24,2.41-.54,4.24-1.07,8.48-1.61,12.72-.23.04-.46.05-.69.04Z"/>
  <path class="cls-3" d="m384,189.75v194.25H0v-184.5h.34s.34.04.34.04c.97,7,1.95,14.01,2.92,21.01.35,1.98.7,3.97,1.05,5.95.37,1.53.74,3.06,1.11,4.58.57,2.22,1.15,4.45,1.72,6.67.21.76.43,1.53.64,2.29.2.78.4,1.55.6,2.33,1.24,3.74,2.48,7.48,3.73,11.22.29.75.58,1.49.87,2.24.68,1.76,1.36,3.52,2.03,5.28.34.73.69,1.46,1.03,2.18.44,1.02.88,2.03,1.31,3.05,1.76,3.51,3.53,7.02,5.29,10.53.38.71.77,1.41,1.15,2.12,1.02,1.75,2.05,3.5,3.07,5.24,1.48,2.25,2.97,4.5,4.45,6.76.71.99,1.42,1.99,2.12,2.98.35.53.69,1.07,1.04,1.6,6.01,6.49,11.44,13.65,18.13,19.34,24.89,21.16,52.91,28.35,84.56,17.31,1.04-.36,2.92.1,3.74.88,17.64,16.73,39.15,23.3,62.85,23.6,16.45.2,32.49-2.83,47.92-8.54,49.92-18.47,86.85-51.96,112.4-98.25,10.32-18.69,16.96-38.72,18.94-60.12h.32s.31-.06.31-.06Z"/>
  <path class="cls-5" d="m383.37,189.81c-1.99,21.4-8.63,41.43-18.94,60.12-25.54,46.3-62.48,79.78-112.4,98.25-15.43,5.71-31.47,8.74-47.92,8.54-23.7-.29-45.2-6.87-62.85-23.6-.82-.78-2.7-1.25-3.74-.88-31.65,11.04-59.67,3.85-84.56-17.31-6.69-5.69-12.12-12.85-18.13-19.34.9.33,1.89.52,2.69,1.01,14.5,8.87,30,14.12,47.23,13.15.5-.24,1-.49,1.51-.73,3.24-.02,5.06-2.17,6.75-4.51.5-.75,1-1.5,1.5-2.25,2.72-3.46,1.97-7.37,1.48-11.25-.24-.5-.48-1.01-.72-1.51,0-1-.02-1.99-.03-2.99-.24-.75-.48-1.5-.73-2.26,0-1.25-.01-2.5-.02-3.74-.24-1.25-.48-2.5-.72-3.76l.72-18.74c0-.75,0-1.5,0-2.25.85-11.8,2.64-23.42,6.82-34.56.41.89.97,1.74,1.21,2.68,4.1,15.87,8.16,31.75,12.23,47.63,0,.75,0,1.5,0,2.25.36,1.53.71,3.05,1.07,4.58.21-.04.42-.08.63-.13-.32-1.48-.64-2.97-.95-4.45,0-.75,0-1.5,0-2.25,0-3.12-.18-6.26.07-9.37.3-3.65.99-7.26,1.51-10.89.47.61,1.22,1.15,1.38,1.83,5.09,21.94,16.68,39.36,35.81,51.52,8.14,5.17,16.88,8.93,26.48,10.43,1.75.49,3.5.98,5.25,1.48,1.09.25,2.16.65,3.26.73,11.66.84,23.26,1.31,34.92-.61,15.82-2.6,30.94-7.25,45.37-14.16,16.92-8.1,32.77-17.94,46.39-30.9,9.72-9.25,19.33-18.73,27.92-29,10.87-13,19.66-27.49,26.36-43.17,5.64-13.19,10.43-26.59,11.78-41,.44,2.43.89,4.87,1.33,7.3-.02.77-.05,1.53-.07,2.3.25,1,.49,2.01.74,3.01v12.75c-.17,1.29-.34,2.57-.51,3.86-.04.73-.08,1.46-.11,2.2Z"/>
  <path class="cls-12" d="m0,192v-12.75l.29-.1.3.03c3.39.7,3.12,3.54,1.85,5.1-2.03,2.5-1.55,5.07-1.69,7.72-.25,0-.5,0-.75,0Z"/>
  <path class="cls-2" d="m.59,179.18l-.3-.03-.29.1v-7.5c.21-.03.42-.04.64-.04-.02,2.49-.03,4.98-.05,7.47Z"/>
  <path class="cls-1" d="m0,192c.25,0,.5,0,.75,0-.02,1.51-.03,3.01-.05,4.52-.23-.02-.47-.03-.7-.02v-4.5Z"/>
  <path class="cls-1" d="m.64,171.71c-.21,0-.43,0-.64.04v-4.5h.37s.37,0,.37,0c-.03,1.49-.06,2.98-.1,4.47Z"/>
  <path class="cls-2" d="m383.49,187.61c.17-1.29.34-2.57.51-3.86v3.75c-.15.12-.32.16-.51.11Z"/>
  <path class="cls-12" d="m384,171c-.25-1-.49-2.01-.74-3.01,0,0,.37.04.37.04l.37-.03v3Z"/>
  <path class="cls-8" d="m0,196.5c.23,0,.47,0,.7.02,0,1.01,0,2.01-.01,3.02l-.34-.04h-.34v-3Z"/>
  <path class="cls-8" d="m.73,167.24h-.37s-.37,0-.37,0v-2.25c.23.02.46,0,.69-.04l.04,2.28Z"/>
  <path class="cls-8" d="m383.49,187.61c.19.05.36,0,.51-.11v2.25l-.31.07s-.32-.01-.32-.01c.04-.73.08-1.46.11-2.2Z"/>
  <path class="cls-1" d="m384,168l-.37.03s-.37-.04-.37-.04c.02-.77.05-1.53.07-2.3.22.05.45.07.67.06v2.25Z"/>
  <path class="cls-12" d="m382,158.39c-1.35,14.41-6.14,27.81-11.78,41-6.7,15.68-15.49,30.17-26.36,43.17-8.59,10.27-18.2,19.75-27.92,29-13.62,12.96-29.46,22.8-46.39,30.9-14.43,6.91-29.55,11.56-45.37,14.16-11.66,1.92-23.27,1.45-34.92.61-1.1-.08-2.18-.48-3.26-.73,0-.48,0-.97,0-1.45,4.18-1.61,8.46-2.98,12.51-4.86,15.76-7.28,28.98-18,40.62-30.72,11.03-12.05,19.81-25.61,26.35-40.59,5.08-11.65,9.74-23.49,15.11-35,8.86-19.02,19.52-37.05,31.27-54.44,2.64-3.9,4.99-8.02,7.07-12.24.49-1-.25-3.21-1.16-4.14-.92-.94-3.02-1.73-4.15-1.32-5.84,2.12-11.78,4.18-17.25,7.09-26.16,13.91-45.33,34.78-58.67,60.99-5.48,10.76-9.85,22.08-14.84,33.08-11.34,24.98-26.32,47.82-41.63,70.46-2.32,3.44-2.74,6.56-.44,10.01-.02.55-.03,1.1-.05,1.65-9.61-1.5-18.34-5.26-26.48-10.43-19.13-12.15-30.71-29.58-35.81-51.52-.16-.68-.91-1.22-1.38-1.83,2-15.6,6.42-30.51,12.75-44.88,2-4.54,3.99-9.07,5.98-13.61.7-.69,1.54-1.28,2.08-2.08,5.59-8.34,10.74-17.03,16.8-25.01,8.11-10.68,16.8-20.93,27.56-29.16.75-.75,1.5-1.5,2.26-2.24,1.79-1.52,3.52-3.13,5.39-4.55,6.13-4.64,12.31-9.2,18.47-13.79,8.03-4.27,15.89-8.9,24.13-12.73,21.56-10.01,44.18-15.88,68.11-14.53,32.71,1.86,58.46,15.54,73.85,45.62,3.87,7.57,6.62,15.58,7.56,24.12Z"/>
  <path class="cls-12" d="m.73,167.24c-.01-.76-.03-1.52-.04-2.28.54-4.24,1.07-8.48,1.61-12.72,1.97-.61,1.78-1.44.24-2.41.36-1.96.73-3.92,1.09-5.89,3.28-1.5,4.06-5.44,1.49-7.5.29-1.24.59-2.47.88-3.71,3.33-1.67,3.89-3.87,1.52-6,.12-.51.25-1.03.37-1.54.83-.52,1.66-1.04,2.48-1.56l-1.61-1.47c1.13-3.48,2.27-6.95,3.4-10.43.95-.84,2.21-1.51,2.78-2.56.9-1.66,1.46-3.55,1.91-5.4.19-.78-.26-1.72-.42-2.58.55-1.23,1.1-2.46,1.65-3.69,3.72-.45,6.5-5.94,5.07-10.01.24-.44.48-.88.72-1.32,3.69-.59,5.96-4.41,4.47-7.53,1.32-1.96,2.63-3.92,3.95-5.88,1.09-.22,2.55-.07,3.2-.72,1.73-1.73,3.23-3.74,4.54-5.81.3-.47-.52-1.65-.82-2.5,1.08-1.23,2.16-2.45,3.24-3.68.76.37,1.65,1.21,2.24,1.04,2.3-.68,7.04-7.77,7.05-10.18.52-.46,1.03-.92,1.55-1.38,2.63,1.04,3.63.03,3.29-2.64l.14-.08c4.04.68,4.15.59,3.38-2.56,1.73-1.19,3.45-2.38,5.18-3.56,2.63,2.04,5.35.48,5.93-3.39,1.49-.71,2.98-1.42,4.47-2.13,2.58.93,8.79-.87,10.41-3.06.18-.24.04-.71.05-1.07,1.04-.3,2.09-.6,3.13-.9,1.52,1.28,7.92.86,8.89-.63.18-.27.06-.72.09-1.09,5.51-.21,11.01-.43,16.52-.64.58.73,1.16,1.45,1.75,2.18.67-.63,1.34-1.27,2.01-1.9,2.25.4,4.5.79,6.74,1.19.23.4.46.8.69,1.2.32-.32.64-.64.97-.96,3.2.95,6.39,1.91,9.59,2.86.26.79.27,1.99.81,2.3,2.73,1.56,5.52,3.08,8.45,4.21,1.31.5,2.99.03,4.5,0,3.44,2.2,6.87,4.4,10.31,6.6.47,1.09.95,2.18,1.42,3.27.21.57.36,1.17.64,1.71,4.84,9.33,10.1,18.47,14.41,28.03,2.71,6.01,4.03,12.64,5.97,19,0,1.75-.01,3.51-.02,5.26-1.15,2.27-1.82,5.01-3.53,6.72-4.55,4.56-9.78,8.45-14.31,13.03-8.47,8.54-16.83,17.2-24.88,26.14-4.62,5.13-8.54,10.89-12.77,16.37-1,0-1.99,0-2.99,0-3.01-8.03-6.22-16-8.97-24.12-2.43-7.17-4.55-14.45-6.48-21.77-2.3-8.74-4.25-17.56-6.34-26.35-1.43-6.02-2.61-12.11-4.4-18.02-.5-1.66-2.73-3.82-4.24-3.88-1.48-.06-3.74,1.96-4.46,3.6-2.79,6.35-5.56,12.79-7.49,19.43-3.7,12.71-5.63,25.76-4.84,39.04.41,6.8,1.38,13.56,2.19,20.33,1.27,10.68,4.45,20.88,8.17,30.9,3.46,9.32,7.22,18.54,10.89,27.78.76,1.91,1.74,3.73,2.62,5.58.04,1.22.09,2.45.13,3.67-4.18,11.14-5.97,22.76-6.82,34.56l-1.36,1.3c.45.32.9.63,1.36.95l-.72,18.74c-2.53,1.79-1.28,2.84.72,3.76,0,1.25.01,2.5.02,3.74.24.75.48,1.5.73,2.26,0,1,.02,1.99.03,2.99.24.5.48,1.01.72,1.51.48,3.88,1.24,7.79-1.48,11.25-.5.75-1,1.5-1.5,2.25-1.69,2.34-3.51,4.49-6.75,4.51-.5.24-1,.49-1.51.73-17.23.97-32.73-4.27-47.23-13.15-.8-.49-1.79-.68-2.69-1.01-.35-.53-.69-1.07-1.04-1.6,1.8-2.78,0-3-2.12-2.98-1.48-2.25-2.97-4.5-4.45-6.76.99-2.08-.45-4.54-3.07-5.24-.38-.71-.77-1.41-1.15-2.12,2.19-4.19-.76-10.06-5.29-10.53-.44-1.02-.88-2.03-1.31-3.05,1.42-1.56.79-2.15-1.03-2.18-.68-1.76-1.36-3.52-2.03-5.28,1.43-1.41,1.04-2.12-.87-2.24-1.24-3.74-2.48-7.48-3.73-11.22,1.45-1.2,1.34-2-.6-2.33-.21-.76-.43-1.53-.64-2.29,2.55-.81,1.45-2.72,1.18-4.25-.26-1.5-.87-2.9-2.9-2.42-.37-1.53-.74-3.06-1.11-4.58.34-.9.68-1.8,1.02-2.7,0,0,.17.07.17.07,0,0-.17.08-.17.08-.69-1.13-1.38-2.27-2.07-3.4-.97-7-1.95-14.01-2.92-21.01,0-1.01,0-2.01.01-3.02.02-1.51.03-3.01.05-4.52.14-2.65-.35-5.22,1.69-7.72,1.27-1.56,1.54-4.41-1.85-5.1.02-2.49.03-4.98.05-7.47.03-1.49.06-2.98.1-4.47Z"/>
  <path class="cls-5" d="m127.51,165.01c4.23-5.48,8.15-11.24,12.77-16.37,8.05-8.94,16.4-17.6,24.88-26.14,4.54-4.57,9.76-8.46,14.31-13.03,1.71-1.71,2.38-4.45,3.53-6.72,0-1.75.01-3.51.02-5.26-1.94-6.35-3.25-12.99-5.97-19-4.32-9.56-9.57-18.7-14.41-28.03-.28-.54-.43-1.14-.64-1.71.07-.69.14-1.38.22-2.08,16.92,13.12,28.89,30.11,37.96,49.24,3.08,6.5,5.48,13.31,8.19,19.98-6.16,4.59-12.34,9.16-18.47,13.79-1.87,1.42-3.6,3.03-5.39,4.55-.75.75-1.5,1.5-2.26,2.24-10.76,8.23-19.46,18.48-27.56,29.16-6.06,7.99-11.2,16.67-16.8,25.01-.54.8-1.38,1.39-2.08,2.08-3.27-8-6.54-15.99-9.81-23.99-.24-.51-.48-1.02-.71-1.53.75-.74,1.49-1.48,2.24-2.23Z"/>
  <path class="cls-12" d="m150.27,38.88c-1.51.03-3.19.5-4.5,0-2.93-1.12-5.72-2.65-8.45-4.21-.53-.3-.55-1.51-.81-2.3,4.59,2.17,9.18,4.34,13.77,6.51Z"/>
  <path class="cls-12" d="m51.73,50.93c-.01,2.41-4.75,9.5-7.05,10.18-.59.18-1.49-.66-2.24-1.04,3.1-3.05,6.2-6.1,9.29-9.15Z"/>
  <path class="cls-12" d="m39.19,63.76c.3.85,1.12,2.03.82,2.5-1.32,2.07-2.81,4.08-4.54,5.81-.65.65-2.11.5-3.2.72,2.31-3.01,4.62-6.02,6.92-9.03Z"/>
  <path class="cls-12" d="m23.14,87.51c1.43,4.07-1.36,9.55-5.07,10.01,1.69-3.34,3.38-6.67,5.07-10.01Z"/>
  <path class="cls-12" d="m86.12,31.06c-.01.36.12.83-.05,1.07-1.61,2.2-7.82,3.99-10.41,3.06,3.49-1.38,6.98-2.76,10.46-4.14Z"/>
  <path class="cls-12" d="m16.41,101.21c.16.86.61,1.8.42,2.58-.45,1.85-1.01,3.73-1.91,5.4-.57,1.05-1.83,1.72-2.78,2.56,1.42-3.51,2.84-7.03,4.27-10.54Z"/>
  <path class="cls-12" d="m28.32,78.67c1.49,3.12-.77,6.94-4.47,7.53,1.49-2.51,2.98-5.02,4.47-7.53Z"/>
  <path class="cls-12" d="m5.11,136.46c2.57,2.05,1.79,6-1.49,7.5.5-2.5.99-5,1.49-7.5Z"/>
  <path class="cls-12" d="m98.23,28.45c-.02.37.09.82-.09,1.09-.97,1.48-7.37,1.9-8.89.63,2.99-.57,5.99-1.15,8.98-1.72Z"/>
  <path class="cls-12" d="m71.19,37.33c-.58,3.87-3.3,5.43-5.93,3.39,1.98-1.13,3.95-2.26,5.93-3.39Z"/>
  <path class="cls-12" d="m7.51,126.75c2.37,2.13,1.82,4.32-1.52,6,.51-2,1.01-4,1.52-6Z"/>
  <path class="cls-12" d="m118.51,28.08c-.67.63-1.34,1.27-2.01,1.9-.58-.73-1.16-1.45-1.75-2.18,1.25.09,2.5.19,3.76.28Z"/>
  <path class="cls-12" d="m60.08,44.29c.78,3.15.66,3.23-3.38,2.56,1.13-.85,2.25-1.7,3.38-2.56Z"/>
  <path class="cls-12" d="m56.57,46.92c.33,2.67-.66,3.68-3.29,2.64l3.29-2.64Z"/>
  <path class="cls-12" d="m8.75,122.18l1.61,1.47c-.83.52-1.66,1.04-2.48,1.56.29-1.01.58-2.02.87-3.03Z"/>
  <path class="cls-13" d="m162.21,46.68c-.07.69-.14,1.38-.22,2.08-.47-1.09-.95-2.18-1.42-3.27.55.4,1.09.8,1.64,1.2Z"/>
  <path class="cls-12" d="m2.54,149.84c1.54.96,1.73,1.79-.24,2.41.08-.8.16-1.6.24-2.41Z"/>
  <path class="cls-12" d="m126.91,29.51c-.32.32-.64.64-.97.96-.23-.4-.46-.8-.69-1.2.55.08,1.1.16,1.66.23Z"/>
  <path class="cls-12" d="m17.7,266.35c4.53.47,7.48,6.34,5.29,10.53-1.76-3.51-3.53-7.02-5.29-10.53Z"/>
  <path class="cls-12" d="m5.77,231.08c2.04-.48,2.64.92,2.9,2.42.26,1.53,1.36,3.44-1.18,4.25-.57-2.22-1.15-4.45-1.72-6.67Z"/>
  <path class="cls-12" d="m3.61,220.55c.69,1.13,1.38,2.27,2.07,3.4,0,0,0-.16,0-.16-.34.9-.68,1.8-1.02,2.7-.35-1.98-.7-3.97-1.05-5.95Z"/>
  <path class="cls-12" d="m24.15,279c2.63.7,4.07,3.16,3.07,5.24-1.02-1.75-2.05-3.5-3.07-5.24Z"/>
  <path class="cls-12" d="m31.67,291c2.13-.02,3.92.2,2.12,2.98-.71-.99-1.42-1.99-2.12-2.98Z"/>
  <path class="cls-12" d="m12.46,253.6c1.9.12,2.29.83.87,2.24-.29-.75-.58-1.49-.87-2.24Z"/>
  <path class="cls-12" d="m15.35,261.12c1.82.03,2.45.62,1.03,2.18-.34-.73-.69-1.46-1.03-2.18Z"/>
  <path class="cls-12" d="m8.13,240.04c1.93.33,2.04,1.13.6,2.33-.2-.78-.4-1.55-.6-2.33Z"/>
  <path class="cls-9" d="m125.99,168.76c3.27,8,6.54,15.99,9.81,23.99-1.99,4.54-3.98,9.08-5.98,13.61-6.33,14.37-10.75,29.28-12.75,44.88-.52,3.63-1.21,7.24-1.51,10.89-.26,3.1-.06,6.24-.07,9.37-.25,0-.5,0-.75,0-4.07-15.88-8.13-31.76-12.23-47.63-.24-.93-.8-1.79-1.21-2.68-.04-1.22-.09-2.45-.13-3.67.56-.76,1.28-1.45,1.65-2.29,4.73-10.67,9.17-21.48,14.2-32.01,2.43-5.09,5.94-9.65,8.96-14.46Z"/>
  <path class="cls-4" d="m186,315.04c0,.48,0,.97,0,1.45-1.75-.49-3.5-.98-5.25-1.48.02-.55.03-1.1.05-1.65,1.73.56,3.47,1.12,5.2,1.67Z"/>
  <path class="cls-7" d="m94.49,280.5c-2-.91-3.25-1.97-.72-3.76.24,1.25.48,2.5.72,3.76Z"/>
  <path class="cls-10" d="m115.5,273.75c.32,1.48.64,2.97.95,4.45-.21.04-.42.08-.63.13-.36-1.53-.71-3.05-1.07-4.58.25,0,.5,0,.75,0Z"/>
  <path class="cls-7" d="m94.48,258c-.45-.32-.9-.63-1.36-.95l1.36-1.3c0,.75,0,1.5,0,2.25Z"/>
  <path class="cls-7" d="m95.24,286.5c-.24-.75-.48-1.5-.73-2.26.24.75.48,1.5.73,2.26Z"/>
  <path class="cls-7" d="m93,304.51c.5-.75,1-1.5,1.5-2.25-.5.75-1,1.5-1.5,2.25Z"/>
  <path class="cls-7" d="m95.99,291c-.24-.5-.48-1.01-.72-1.51.24.5.48,1.01.72,1.51Z"/>
  <path class="cls-7" d="m84.75,309.74c.5-.24,1-.49,1.51-.73-.5.24-1,.49-1.51.73Z"/>
  <path class="cls-11" d="m115.5,273.75c-.25,0-.5,0-.75,0,0-.75,0-1.5,0-2.25.25,0,.5,0,.75,0,0,.75,0,1.5,0,2.25Z"/>
  <path class="cls-9" d="m186,315.04c-1.73-.56-3.47-1.12-5.2-1.67-2.29-3.45-1.88-6.57.44-10.01,15.31-22.64,30.29-45.48,41.63-70.46,5-11.01,9.37-22.32,14.84-33.08,13.34-26.21,32.51-47.08,58.67-60.99,5.47-2.91,11.41-4.97,17.25-7.09,1.13-.41,3.22.38,4.15,1.32.91.93,1.65,3.14,1.16,4.14-2.08,4.22-4.43,8.34-7.07,12.24-11.76,17.39-22.41,35.42-31.27,54.44-5.37,11.51-10.03,23.35-15.11,35-6.53,14.98-15.31,28.54-26.35,40.59-11.64,12.72-24.87,23.44-40.62,30.72-4.05,1.87-8.34,3.25-12.51,4.86Z"/>
  <path class="cls-7" d="m182.24,136.5c.75-.75,1.5-1.5,2.26-2.24-.75.75-1.5,1.5-2.26,2.24Z"/>
  <path class="cls-6" d="m125.99,168.76c-3.02,4.8-6.53,9.37-8.96,14.46-5.03,10.53-9.47,21.33-14.2,32.01-.37.84-1.09,1.53-1.65,2.29-.88-1.86-1.86-3.68-2.62-5.58-3.68-9.24-7.43-18.46-10.89-27.78-3.72-10.02-6.9-20.22-8.17-30.9-.81-6.77-1.78-13.53-2.19-20.33-.79-13.28,1.14-26.33,4.84-39.04,1.93-6.65,4.7-13.08,7.49-19.43.72-1.63,2.98-3.66,4.46-3.6,1.51.06,3.73,2.21,4.24,3.88,1.79,5.91,2.97,12,4.4,18.02,2.09,8.79,4.04,17.62,6.34,26.35,1.93,7.32,4.04,14.61,6.48,21.77,2.76,8.12,5.96,16.09,8.97,24.12.25.74.5,1.49.75,2.23.24.51.48,1.02.71,1.53Z"/>
  <path class="cls-7" d="m183.02,97.49c0,1.75-.01,3.51-.02,5.26,0-1.75.01-3.51.02-5.26Z"/>
  <path class="cls-7" d="m125.28,167.23c-.25-.74-.5-1.49-.75-2.23,1,0,1.99,0,2.99,0-.75.74-1.49,1.48-2.24,2.23Z"/>
  <polygon class="cls-3" points="5.68 223.8 5.68 223.95 5.86 223.87 5.68 223.8"/>
</svg>