<?xml version="1.0" encoding="UTF-8"?>
<svg id="Layer_1" data-name="Layer 1" xmlns="http://www.w3.org/2000/svg" viewBox="0 0 384 384">
  <defs>
    <style>
      .cls-1 {
        fill: #fff;
      }

      .cls-2 {
        fill: #a56a43;
      }

      .cls-3 {
        fill: #d1d4d1;
      }

      .cls-4 {
        fill: #ebeff0;
      }

      .cls-5 {
        fill: #feffff;
      }

      .cls-6 {
        fill: #b57d55;
      }

      .cls-7 {
        fill: #cf9f76;
      }

      .cls-8 {
        fill: #bdc3c7;
      }

      .cls-9 {
        fill: #fdd7ad;
      }

      .cls-10 {
        fill: #ecf0f1;
      }
    </style>
  </defs>
  <path class="cls-10" d="m0,225v-39.75c.5-1.25,1-2.5,1.49-3.75,0-1,.02-2,.03-2.99.24-.5.48-1,.72-1.51,1.02-4.84,1.9-9.72,3.07-14.52,4.1-16.76,10.17-32.8,19.38-47.41,6.07-9.63,13.01-18.72,19.56-28.06,1-1,2-2.01,3-3.01.5-.5,1-1.01,1.5-1.51,2.5-2.5,4.99-5,7.49-7.49.25-.25.51-.5.76-.75,1.25-1.25,2.51-2.49,3.76-3.74.25-.5.5-.99.75-1.49,0,0,0,0,0,0,.5,0,.99-.02,1.49-.03,1-.99,2.01-1.99,3.01-2.98.5-.25.99-.51,1.49-.76l2.27-2.24c.75-.39,1.54-.72,2.26-1.17,7.79-4.87,15.37-10.1,23.39-14.57,14.97-8.35,31.1-13.72,47.84-17.28.5-.24,1.01-.48,1.51-.72,2.5-.26,4.99-.52,7.49-.78.5-.24,1.01-.48,1.51-.72,1.25-.01,2.49-.02,3.74-.03,1-.24,2-.48,3-.72,1,0,2-.02,3-.02.75,0,1.5,0,2.25,0,1.25-.24,2.51-.48,3.76-.72.75,0,1.49,0,2.24-.01,4.5,0,9,0,13.5,0,1.25.24,2.5.48,3.75.72.5,0,1,0,1.5,0,.75,0,1.5,0,2.25,0,1,0,2,0,3,.01.95.25,1.89.63,2.86.72,13.54,1.25,26.65,4.45,39.45,8.87,15.61,5.39,30.12,13,43.67,22.46,1.16.81,2.67,1.14,4.01,1.69.79,1.02,1.45,2.19,2.4,3.04,3.65,3.29,7.4,6.48,11.11,9.7.15.8.3,1.6.48,2.55.95.16,1.75.3,2.55.44,1.49,1.49,2.99,2.99,4.48,4.48.14.8.28,1.61.44,2.56.95.17,1.75.32,2.55.47,3.47,3.97,6.91,7.97,10.45,11.88.85.94,2.02,1.6,3.04,2.39.35,1.17.42,2.56,1.11,3.48,7.65,10.25,13.67,21.4,18.68,33.12,5.99,14.01,10.17,28.56,12.47,43.63.24.75.48,1.51.72,2.26,0,1.25.02,2.49.03,3.74.24.75.48,1.51.72,2.26,0,.5,0,.99.01,1.49,0,.75,0,1.5.01,2.25v3c0,.75,0,1.5,0,2.25.24.75.48,1.5.72,2.25,0,4.75,0,9.5,0,14.25-.24,1-.48,2-.72,3,0,.5,0,1,0,1.5,0,1,0,2,0,3v2.25c-.01.5-.02,1-.02,1.49-.24,1-.48,2-.73,3,.24.26.47.51.71.77-.24.5-.48.99-.72,1.49-.53,3.17-.96,6.36-1.62,9.51-4.57,22.1-12.38,42.92-24.56,62.01-2.99,4.68-6.05,9.31-9.08,13.97-.75.76-1.49,1.51-2.24,2.27-.25.5-.51.99-.76,1.49-1,1-1.99,2.01-2.99,3.01,0,.49-.02.99-.02,1.48,0,0,0,0,0,0-.5.25-.99.5-1.49.75-1.25,1.25-2.5,2.51-3.74,3.76-.25.25-.5.51-.75.76-2.5,2.5-5,5-7.49,7.49-.25.25-.51.5-.76.75-1.25,1.25-2.51,2.49-3.76,3.74-1,.75-1.99,1.5-2.99,2.26-.75.75-1.51,1.5-2.26,2.24-1.04.67-2.08,1.34-3.13,2-9.61,6.16-18.93,12.85-28.9,18.35-13.88,7.65-28.99,12.29-44.46,15.67-.5.24-1.01.48-1.51.72-.75,0-1.49.02-2.24.03-.5.24-1.01.48-1.51.72-1,.01-1.99.02-2.99.03-1.43.24-2.9.38-4.3.76-1.35.37-2.64.98-3.95,1.48h-40.5c-1-.5-2-1-3-1.49-1,0-2-.02-3-.02-.5-.24-1-.48-1.5-.72-1-.01-1.99-.02-2.99-.03-.5-.24-1.01-.48-1.51-.72-2-.26-3.99-.52-5.99-.78-.5-.24-1.01-.48-1.51-.72-1.08-.27-2.17-.52-3.25-.8-15.71-4.07-30.86-9.62-44.79-18.04-8.16-4.93-15.98-10.43-23.96-15.68-.75-.75-1.51-1.49-2.26-2.24-.75-.5-1.49-1.01-2.24-1.51-1-1-2.01-1.99-3.01-2.99-1-.75-1.99-1.51-2.99-2.26-2.75-2.75-5.5-5.5-8.26-8.26-1-1.25-2-2.49-3.01-3.74-.75-.75-1.5-1.51-2.25-2.26-.5-.75-1.01-1.49-1.51-2.24-1-1-1.99-2.01-2.99-3.01-.3-.66-.48-1.42-.92-1.98-10.31-13.23-18.61-27.62-24.69-43.26-4.78-12.3-8.54-24.89-10.41-38-.24-1.43-.38-2.9-.76-4.3-.37-1.35-.97-2.64-1.48-3.95ZM179.34,53.21C95.96,51.78,26.54,121.23,26.33,204.32c-.22,85.12,68.23,152.81,151.54,153.31,85,.51,152.67-69.7,153.2-151.7.54-83.12-69.12-153.9-151.73-152.73Z"/>
  <path class="cls-1" d="m56.24,75c-2.5,2.5-4.99,5-7.49,7.49-2.64-2.95-3.03-.3-3.75,1.51-.25.25-.5.5-.75.75-.35.11-.84.12-1.03.36-4.97,6.3-10.43,12.29-14.72,19.02-5.02,7.9-8.97,16.48-13.46,24.73-6.36,11.67-10.44,24.1-12.9,37.13C1.9,167.25.73,168.33,0,169.5c0-56.46,0-112.92,0-169.5,114.5,0,229,0,343.5,0-1.16,1.3-2.33,2.61-3.76,4.22,0,.56,0,1.52,0,2.48-.64.76-1.22,1.57-1.92,2.26-16.02,16.04-32.05,32.08-48.1,48.1-.78.78-1.69,1.44-2.55,2.16-1.2-.63-2.45-1.17-3.59-1.89-10.18-6.41-20.24-12.91-31.43-17.68-13.94-5.95-28.25-10.35-43.07-13.25-2.46-.48-5.03-.38-7.55-.55-2.08-.4-4.27-3.18-5.79,1.14-1,0-2,0-3-.01-.88-.98-1.84-2.82-2.64-2.75-1.67.14-3.25,1.29-4.87,2.02-4.5,0-9,0-13.5,0-.4-1.7-.97-3.05-3-1.51h-2.25c-2.26-.94-2.62.67-3,2.24-1,0-2,.02-3,.02,0-.25,0-.51,0-.76-.59-.48-1.25-1.44-1.76-1.37-5.15.73-10.34,1.36-15.4,2.52-16.13,3.69-32.02,8.19-46.48,16.5-9.44,5.42-18.58,11.39-27.81,17.17-.66.41-1.03,1.28-1.54,1.93-1.25,1-2.5,2-3.75,3-.25.5-.5,1-.75,1.5-.5.51-.99,1.01-1.49,1.52,0,0,0,0,0,0-1,.49-2.01.99-3.01,1.48-.5.5-1,1-1.5,1.5-2.24,1.13-2.43,1.89-.76,3Z"/>
  <path class="cls-1" d="m357.74,212.25c0-4.75,0-9.5,0-14.25.75-1.18,2.27-2.52,2.08-3.51-.29-1.46-1.81-2.68-2.81-4,0-.75,0-1.5-.01-2.25.74-1.07,2.02-2.1,2.09-3.21.13-1.97-.45-3.99-.77-5.98-3.94-24.29-12-47.11-24.72-68.19-2.81-4.66-6.35-8.87-9.55-13.29.89-1.03,1.72-2.12,2.68-3.08,15.92-15.94,31.85-31.87,47.79-47.79.87-.87,1.86-1.63,2.79-2.44,1.07-.06,2.13-.13,2.63-.16,1.63-1.45,2.85-2.53,4.06-3.61v343.5h-168.75c2.15-.84,4.25-1.91,6.47-2.49,22.33-5.84,43-15.31,61.97-28.43,3.7-2.56,6.89-5.87,10.32-8.83,1.75-1.5,3.5-3,5.25-4.5.5-.5,1-1,1.5-1.5,2.24-1.13,2.43-1.89.76-3,2.5-2.5,5-5,7.49-7.49,1.75,2.71,2.33.8,3-.76.5-.5,1-1,1.5-1.5.49-1,.99-2.01,1.48-3.01,0,0,0,0,0,0,.76-.49,1.51-.99,2.26-1.48.25-.25.5-.5.75-.75,1-1.25,2-2.5,3-3.75.95-.91,2.07-1.7,2.83-2.74,6.57-9.09,12.29-18.62,17.26-28.74,5.95-12.13,10.82-24.52,13.8-37.65,1.27-5.61,2.26-11.28,3.48-17.46-.54-.29-1.33-.72-2.11-1.15.24-.5.48-.99.72-1.49,3.1-1.65,3.11-3.04.03-5.26,0-.75,0-1.5,0-2.25,3.92-1.83,4.22-4.99.73-7.5Z"/>
  <path class="cls-1" d="m56.26,335.99c1,.75,1.99,1.51,2.99,2.26.15.8.3,1.59.48,2.53.94.17,1.73.32,2.53.46.75.5,1.49,1.01,2.24,1.51.12.66.25,1.31.38,2.03.74.08,1.31.15,1.87.21,7.97,5.24,15.8,10.74,23.96,15.68,13.93,8.42,29.07,13.97,44.79,18.04,1.08.28,2.17.53,3.25.8.15.42.29.84.5,1.41.47-.32.74-.5,1.01-.69,2,.26,3.99.52,5.99.78.15.42.29.84.5,1.41.47-.32.74-.51,1.01-.69,1,.01,1.99.02,2.99.03,0,.75,0,1.49,0,2.24H0v-150.75h2.24c1.87,13.1,5.63,25.69,10.41,38,6.08,15.64,14.37,30.03,24.69,43.26.44.56.62,1.31.92,1.98.14.8.29,1.6.46,2.54.94.18,1.73.33,2.53.48.5.75,1.01,1.49,1.51,2.24.12.66.24,1.32.37,2.03.74.09,1.31.16,1.88.22,1,1.25,2,2.49,3.01,3.74.32,4.09,4.16,7.94,8.26,8.26Z"/>
  <path class="cls-3" d="m377.31,44.27c-.93.81-1.92,1.57-2.79,2.44-15.94,15.92-31.87,31.85-47.79,47.79-.96.96-1.79,2.05-2.68,3.08-.26.23-.53.46-.79.69-1.02-.79-2.19-1.45-3.04-2.39-3.54-3.91-6.98-7.91-10.45-11.88-1-1.01-2-2.02-3-3.03-1.49-1.49-2.99-2.99-4.48-4.48-1.01-1-2.02-1.99-3.03-2.99-3.71-3.23-7.46-6.41-11.11-9.7-.95-.85-1.61-2.02-2.4-3.04.48-.51.95-1.01,1.43-1.52.85-.72,1.76-1.38,2.55-2.16,16.04-16.02,32.08-32.05,48.1-48.1.7-.7,1.28-1.51,1.92-2.26,2.4-1.49,4.83-2.94,7.18-4.49.94-.62,1.72-1.47,2.58-2.21.5,0,1,0,1.5,0h12.75c.5,0,1,0,1.5,0,.56.55,1.02,1.34,1.69,1.62,7.28,3.03,12.4,8.17,15.44,15.44.28.67,1.07,1.13,1.62,1.69v1.5c-.1.07-.29.18-.28.21.07.19.18.36.28.54v11.25c-.14.12-.28.25-.42.38.14.13.28.25.42.37v1.5c-.61.51-1.41.9-1.81,1.54-1.69,2.7-3.27,5.48-4.88,8.22Z"/>
  <path class="cls-1" d="m0,169.5c.73-1.17,1.9-2.25,2.14-3.51,2.46-13.03,6.55-25.46,12.9-37.13,4.49-8.24,8.44-16.82,13.46-24.73,4.28-6.74,9.75-12.73,14.72-19.02.19-.24.68-.24,1.03-.36v2.26c-6.55,9.33-13.48,18.42-19.56,28.06-9.21,14.61-15.29,30.65-19.38,47.41-1.17,4.8-2.05,9.68-3.07,14.52-.75,0-1.49,0-2.24,0,0-2.5,0-5,0-7.5Z"/>
  <path class="cls-1" d="m294,344.25c-3.43,2.96-6.62,6.26-10.32,8.83-18.96,13.12-39.63,22.6-61.97,28.43-2.22.58-4.31,1.65-6.47,2.49h-8.25v-2.24c1-.01,1.99-.02,2.99-.03.35.18.7.36,1.15.59.17-.63.27-.97.36-1.31.75,0,1.49-.02,2.24-.03.35.18.7.36,1.15.59.17-.63.27-.97.36-1.31,15.47-3.38,30.58-8.02,44.46-15.67,9.97-5.5,19.29-12.19,28.9-18.35,1.04-.67,2.08-1.34,3.13-2,.75,0,1.51,0,2.26,0Z"/>
  <path class="cls-5" d="m384,18.75c-.55-.56-1.34-1.02-1.62-1.69-3.04-7.27-8.16-12.41-15.44-15.44-.67-.28-1.13-1.07-1.69-1.62,6.25,0,12.5,0,18.75,0v18.75Z"/>
  <path class="cls-1" d="m349.5,0c-.86.74-1.64,1.59-2.58,2.21-2.36,1.55-4.79,3-7.18,4.49,0-.96,0-1.92,0-2.48C341.17,2.61,342.34,1.3,343.5,0c2,0,4,0,6,0Z"/>
  <path class="cls-1" d="m377.31,44.27c1.62-2.75,3.19-5.52,4.88-8.22.4-.64,1.19-1.04,1.81-1.54v6c-1.22,1.08-2.43,2.16-4.06,3.61-.5.03-1.56.09-2.63.16Z"/>
  <path class="cls-5" d="m207,381.76v2.24h-8.25c1.32-.5,2.6-1.11,3.95-1.48,1.4-.38,2.86-.52,4.3-.76Z"/>
  <path class="cls-5" d="m2.24,233.25H0c0-2.75,0-5.5,0-8.25.5,1.32,1.11,2.6,1.48,3.95.38,1.4.52,2.86.76,4.3Z"/>
  <path class="cls-5" d="m1.49,181.5c-.5,1.25-1,2.5-1.49,3.75v-3.75c.5,0,1,0,1.49,0Z"/>
  <path class="cls-5" d="m155.25,382.51c1,.5,2,1,3,1.49h-3c0-.5,0-1,0-1.49Z"/>
  <path class="cls-1" d="m155.25,382.51c0,.5,0,1,0,1.49h-3c0-.51,0-1.01,0-1.52,1,0,2,.02,3,.02Z"/>
  <path class="cls-1" d="m1.49,181.5c-.5,0-1,0-1.49,0v-3c.51,0,1.02,0,1.52,0,0,1-.02,2-.03,2.99Z"/>
  <path class="cls-5" d="m152.25,382.48c0,.51,0,1.01,0,1.52h-1.5c0-.75,0-1.49,0-2.24.5.24,1,.48,1.5.72Z"/>
  <path class="cls-5" d="m1.52,178.51c-.51,0-1.02,0-1.52,0v-1.5c.75,0,1.49,0,2.24,0-.24.5-.48,1-.72,1.51Z"/>
  <path class="cls-1" d="m384,33c-.14-.12-.28-.24-.42-.37.14-.13.28-.25.42-.38v.75Z"/>
  <path class="cls-5" d="m384,21c-.1-.18-.22-.35-.28-.54-.01-.03.18-.14.28-.21v.75Z"/>
  <path class="cls-8" d="m179.34,53.21c82.61-1.17,152.27,69.6,151.73,152.73-.53,82-68.2,152.21-153.2,151.7-83.31-.5-151.76-68.19-151.54-153.31.21-83.09,69.64-152.55,153.01-151.11Zm-.6,291.04c76.46,0,139.07-61.56,139.03-138.89-.04-77.04-61.67-139.16-139.21-139.13-77.25.03-138.84,62.55-138.81,139.09.03,76.69,62.33,138.98,138.99,138.93Z"/>
  <path class="cls-1" d="m287.17,59.23c-.48.51-.95,1.01-1.43,1.52-1.34-.55-2.85-.87-4.01-1.69-13.55-9.46-28.06-17.07-43.67-22.46-12.8-4.42-25.92-7.62-39.45-8.87-.97-.09-1.91-.48-2.86-.72,1.52-4.33,3.71-1.54,5.79-1.14,2.52.17,5.09.07,7.55.55,14.81,2.9,29.13,7.3,43.07,13.25,11.19,4.78,21.24,11.27,31.43,17.68,1.14.72,2.39,1.26,3.59,1.89Z"/>
  <path class="cls-1" d="m67.5,63c.51-.65.88-1.52,1.54-1.93,9.24-5.78,18.37-11.75,27.81-17.17,14.46-8.3,30.35-12.81,46.48-16.5,5.06-1.16,10.25-1.79,15.4-2.52.51-.07,1.17.89,1.76,1.37-1,.5-2,.99-3,1.49-1.25.01-2.49.02-3.74.03-.35-.18-.7-.36-1.15-.6-.17.63-.27.97-.36,1.31-2.5.26-4.99.52-7.49.78-.35-.18-.7-.36-1.15-.59-.17.63-.27.97-.36,1.31-16.74,3.56-32.87,8.93-47.84,17.28-8.01,4.47-15.6,9.7-23.39,14.57-.72.45-1.5.78-2.26,1.17-.75,0-1.51,0-2.26,0Z"/>
  <path class="cls-1" d="m323.26,98.26c.26-.23.53-.46.79-.69,3.2,4.42,6.74,8.64,9.55,13.29,12.71,21.09,20.78,43.9,24.72,68.19.32,1.99.9,4.01.77,5.98-.07,1.11-1.36,2.14-2.09,3.21,0-.5,0-.99-.01-1.49-.24-.75-.48-1.51-.72-2.26,0-1.25-.02-2.49-.03-3.74-.24-.75-.48-1.51-.72-2.26-2.3-15.07-6.48-29.62-12.47-43.63-5.01-11.72-11.03-22.88-18.68-33.12-.69-.92-.75-2.31-1.11-3.48Z"/>
  <path class="cls-1" d="m356.25,228.75c.79.43,1.58.86,2.11,1.15-1.22,6.18-2.21,11.85-3.48,17.46-2.98,13.14-7.85,25.52-13.8,37.65-4.97,10.13-10.69,19.66-17.26,28.74-.76,1.05-1.88,1.84-2.83,2.74,0-.75,0-1.51,0-2.26,3.03-4.66,6.1-9.29,9.08-13.97,12.17-19.09,19.98-39.91,24.56-62.01.65-3.15,1.08-6.34,1.62-9.51Z"/>
  <path class="cls-1" d="m56.26,335.99c-4.09-.32-7.94-4.16-8.26-8.26,2.75,2.75,5.5,5.5,8.26,8.26Z"/>
  <path class="cls-1" d="m185.25,26.26c1.62-.73,3.2-1.88,4.87-2.02.8-.07,1.75,1.77,2.64,2.75-.75,0-1.5,0-2.25,0-.22-.42-.43-.84-.87-1.71-.34.92-.48,1.32-.62,1.71-1.25-.24-2.5-.48-3.75-.72Z"/>
  <path class="cls-1" d="m357.74,212.25c3.49,2.51,3.19,5.67-.73,7.5,0-1,0-2,0-3,.42-.22.84-.43,1.71-.87-.92-.34-1.32-.48-1.71-.62.24-1,.48-2,.72-3Z"/>
  <path class="cls-1" d="m357.01,190.5c1,1.32,2.51,2.53,2.81,4,.2.99-1.32,2.33-2.08,3.51-.24-.75-.48-1.5-.72-2.25.44-.32.88-.64,1.32-.95-.44-.43-.89-.86-1.33-1.3,0-1,0-2,0-3Z"/>
  <path class="cls-1" d="m299.25,339.75c-1.75,1.5-3.5,3-5.25,4.5,0-.75,0-1.5,0-2.25,1-.75,1.99-1.5,2.99-2.26.75,0,1.51,0,2.26,0Z"/>
  <path class="cls-1" d="m357,222c3.07,2.22,3.06,3.61-.03,5.26-.24-.26-.47-.51-.71-.77.24-1,.48-2,.73-3v-1.49Z"/>
  <path class="cls-1" d="m45,84c.72-1.81,1.11-4.46,3.75-1.51-.5.5-1,1.01-1.5,1.51h-2.25Z"/>
  <path class="cls-1" d="m63.75,66c1.25-1,2.5-2,3.75-3,0,.75,0,1.5,0,2.25-.5.25-.99.51-1.49.76-.75,0-1.51,0-2.26,0Z"/>
  <path class="cls-1" d="m321,316.5c-1,1.25-2,2.5-3,3.75,0-.75,0-1.51,0-2.26.25-.5.51-.99.76-1.49.75,0,1.5,0,2.25,0Z"/>
  <path class="cls-5" d="m166.5,24.75h2.25c.25.51.51,1.01.76,1.52-1.25.24-2.51.48-3.76.72.25-.75.5-1.49.75-2.24Z"/>
  <path class="cls-5" d="m299.25,339.75c-.75,0-1.51,0-2.26,0,1.25-1.25,2.51-2.49,3.76-3.74,0,.75,0,1.5,0,2.25-.5.5-1,1-1.5,1.5Z"/>
  <path class="cls-5" d="m313.5,325.5c-.5.5-1,1-1.5,1.5-.75,0-1.5,0-2.25,0,1.25-1.25,2.5-2.51,3.74-3.76,0,.75,0,1.51,0,2.26Z"/>
  <path class="cls-5" d="m57,72c.5-.5,1-1,1.5-1.5.75,0,1.51,0,2.26,0-1.25,1.25-2.51,2.49-3.76,3.74,0-.75,0-1.5,0-2.24Z"/>
  <path class="cls-1" d="m166.5,24.75c-.25.75-.5,1.49-.75,2.24-.75,0-1.5,0-2.25,0,.38-1.57.74-3.18,3-2.24Z"/>
  <path class="cls-1" d="m57,72c0,.75,0,1.5,0,2.24-.25.25-.51.5-.76.75-1.67-1.11-1.48-1.87.76-3Z"/>
  <path class="cls-1" d="m309.75,327c.75,0,1.5,0,2.25,0-.67,1.56-1.25,3.47-3,.76.25-.25.5-.51.75-.76Z"/>
  <path class="cls-1" d="m169.51,26.27c-.25-.51-.51-1.01-.76-1.52,2.03-1.55,2.6-.2,3,1.51-.75,0-1.49,0-2.24.01Z"/>
  <path class="cls-1" d="m300.75,338.25c0-.75,0-1.5,0-2.25.25-.25.51-.5.76-.75,1.67,1.11,1.48,1.87-.76,3Z"/>
  <path class="cls-5" d="m62.26,341.25c-.8-.15-1.6-.29-2.53-.46-.18-.93-.33-1.73-.48-2.53,1,1,2.01,1.99,3.01,2.99Z"/>
  <path class="cls-5" d="m317.99,317.99c0,.75,0,1.51,0,2.26-.25.25-.5.5-.75.75h-2.24c1-1,1.99-2.01,2.99-3.01Z"/>
  <path class="cls-5" d="m41.24,319.5c-.8-.15-1.59-.3-2.53-.48-.17-.94-.31-1.74-.46-2.54,1,1,1.99,2.01,2.99,3.01Z"/>
  <path class="cls-5" d="m63.75,66c.75,0,1.51,0,2.26,0-1,.99-2.01,1.99-3.01,2.98,0-.5,0-.99,0-1.49.25-.5.5-1,.75-1.5Z"/>
  <path class="cls-5" d="m45,84h2.25c-1,1-2,2.01-3,3.01,0-.75,0-1.51,0-2.26.25-.25.5-.5.75-.75Z"/>
  <path class="cls-4" d="m306.77,80.97c1,1.01,2,2.02,3,3.03-.8-.15-1.61-.3-2.55-.47-.16-.95-.3-1.75-.44-2.56Z"/>
  <path class="cls-4" d="m299.25,73.49c1.01,1,2.02,1.99,3.03,2.99-.8-.14-1.61-.28-2.55-.44-.18-.94-.33-1.75-.48-2.55Z"/>
  <path class="cls-1" d="m313.5,325.5c0-.75,0-1.51,0-2.26.5-.25.99-.5,1.49-.75-.5,1-.99,2.01-1.48,3.01Z"/>
  <path class="cls-5" d="m157.5,27.74c1-.5,2-.99,3-1.49,0,.25,0,.51,0,.76-1,.24-2,.48-3,.72Z"/>
  <path class="cls-1" d="m60.76,70.5c-.75,0-1.51,0-2.26,0,1-.5,2.01-.99,3.01-1.48-.25.5-.5.99-.75,1.49Z"/>
  <path class="cls-5" d="m356.99,223.49c-.24,1-.48,2-.73,3,.24-1,.48-2,.73-3Z"/>
  <path class="cls-5" d="m355.51,178.5c.24.75.48,1.51.72,2.26-.24-.75-.48-1.51-.72-2.26Z"/>
  <path class="cls-5" d="m357.01,193.5c.44.43.89.86,1.33,1.3-.44.32-.88.64-1.32.95,0-.75,0-1.5,0-2.25Z"/>
  <path class="cls-5" d="m321,316.5c-.75,0-1.5,0-2.25,0,.75-.76,1.49-1.51,2.24-2.27,0,.75,0,1.51,0,2.26Z"/>
  <path class="cls-1" d="m315.01,321h2.24c-.75.5-1.51.99-2.26,1.48,0-.5.02-.99.02-1.48Z"/>
  <path class="cls-5" d="m66.76,345c-.57-.07-1.14-.13-1.87-.21-.14-.71-.26-1.37-.38-2.03.75.75,1.51,1.49,2.26,2.24Z"/>
  <path class="cls-5" d="m356.26,184.5c.24.75.48,1.51.72,2.26-.24-.75-.48-1.51-.72-2.26Z"/>
  <path class="cls-5" d="m67.5,65.25c0-.75,0-1.5,0-2.25.75,0,1.51,0,2.26,0-.75.75-1.51,1.49-2.27,2.24Z"/>
  <path class="cls-5" d="m294,342c0,.75,0,1.5,0,2.25-.75,0-1.51,0-2.26,0,.75-.75,1.51-1.5,2.26-2.24Z"/>
  <path class="cls-5" d="m45,324c-.57-.07-1.13-.14-1.88-.22-.13-.72-.25-1.38-.37-2.03.75.75,1.5,1.51,2.25,2.26Z"/>
  <path class="cls-1" d="m63,67.5c0,.5,0,.99,0,1.49-.5,0-.99.02-1.49.03.5-.5.99-1.01,1.49-1.51Z"/>
  <path class="cls-5" d="m357.02,215.25c.39.14.78.29,1.71.62-.87.44-1.29.66-1.71.87,0-.5,0-1,0-1.5Z"/>
  <path class="cls-5" d="m143.25,29.99c.09-.34.19-.68.36-1.31.45.23.8.41,1.15.59-.5.24-1.01.48-1.51.72Z"/>
  <path class="cls-5" d="m140.26,380.23c-.27.19-.55.37-1.01.69-.2-.57-.35-.99-.5-1.41.5.24,1.01.48,1.51.72Z"/>
  <path class="cls-5" d="m215.25,380.26c-.09.34-.19.68-.36,1.31-.45-.23-.8-.41-1.15-.59.5-.24,1.01-.48,1.51-.72Z"/>
  <path class="cls-5" d="m147.76,381.73c-.27.19-.55.37-1.01.69-.2-.57-.35-.99-.5-1.41.5.24,1.01.48,1.51.72Z"/>
  <path class="cls-5" d="m211.5,381.01c-.09.34-.19.68-.36,1.31-.45-.23-.8-.41-1.15-.59.5-.24,1.01-.48,1.51-.72Z"/>
  <path class="cls-5" d="m152.25,28.49c.09-.34.19-.68.36-1.31.45.23.8.42,1.15.6-.5.24-1.01.48-1.51.72Z"/>
  <path class="cls-5" d="m189,26.98c.14-.39.29-.78.62-1.71.44.87.66,1.29.87,1.71-.5,0-1,0-1.5,0Z"/>
  <path class="cls-2" d="m178.74,344.25c-76.66.04-138.96-62.24-138.99-138.93-.03-76.54,61.56-139.06,138.81-139.09,77.54-.03,139.17,62.09,139.21,139.13.04,77.33-62.58,138.89-139.03,138.89Zm6.68-90.75v-28.27c.86-.28,1.32-.47,1.81-.57.86-.16,1.73-.25,2.59-.39,28.7-4.43,48.9-20.03,60.76-46.44.77-1.71.91-3.93.66-5.83-.67-5.17-6.04-7.16-10.11-3.88-1.95,1.56-3.74,3.31-5.72,4.83-14.57,11.18-30.94,17.52-49.4,18.13-.19-.2-.38-.39-.57-.59v-28.34c2.73-1.72,5.29-3.26,7.77-4.92,7.75-5.16,14.75-11.12,19.88-19.02,4.62-7.12,6.7-14.91,4.73-23.2-3.39-14.32-19.75-20.09-32.58-11.71-2.35,1.54-4.39,3.55-6.12,4.98-3.85-2.51-7.23-5.43-11.13-7.11-13.1-5.64-26.7,2.18-28.69,16.31-1.52,10.78,2.83,19.78,10.19,27,6.71,6.59,14.41,12.17,22.34,18.75v27.85c-.28.04-.57.08-.85.12-8.4-1.7-17-2.78-25.16-5.26-10.73-3.27-20.1-9.34-28.4-16.97-2-1.84-4.52-3.71-6.98-1.91-1.99,1.45-3.47,4.03-4.35,6.41-.49,1.33.45,3.4,1.15,4.95,11.09,24.65,29.93,39.68,56.37,45.2,2.74.57,5.52.97,8.28,1.45v29.32c-3.15-.32-5.85-.5-8.53-.87-26.23-3.62-49.28-13.37-66.34-34.57-1.76-2.19-3.76-3.87-6.72-2.69-3.03,1.21-4.46,3.77-4.03,6.9.44,3.18,1.2,6.38,2.27,9.41,11.34,32.32,33.56,53.11,66.56,62.24,5.47,1.51,11.16,2.24,16.9,3.36,0,1.33-.01,2.45,0,3.57.1,7.49.15,14.99.34,22.48.11,4.62,3.21,7.22,7.57,6.59,3.36-.49,5.37-2.96,5.4-6.97.06-8.6.02-17.2.02-26.08,2.94-.34,5.55-.49,8.11-.97,36.67-6.85,61.81-27.57,75.04-62.53,1.19-3.14,2.18-6.39,2.86-9.68.99-4.79-2.3-9.4-6.22-8.5-2.03.47-3.98,2.37-5.44,4.08-19.4,22.54-44.67,32.25-73.64,34-.2-.22-.39-.44-.59-.66Z"/>
  <path class="cls-9" d="m186.01,191.08c18.46-.61,34.82-6.95,49.4-18.13,1.98-1.52,3.78-3.27,5.72-4.83,4.08-3.27,9.44-1.29,10.11,3.88.25,1.9.11,4.12-.66,5.83-11.86,26.41-32.06,42.01-60.76,46.44-.86.13-1.73.22-2.59.39-.48.09-.95.29-1.81.57,0,9.37,0,18.82,0,28.27.2.22.39.44.59.66,28.97-1.75,54.25-11.46,73.64-34,1.47-1.7,3.41-3.61,5.44-4.08,3.92-.9,7.21,3.71,6.22,8.5-.68,3.29-1.67,6.54-2.86,9.68-13.23,34.96-38.37,55.68-75.04,62.53-2.55.48-5.17.62-8.11.97,0,8.88.04,17.48-.02,26.08-.03,4.01-2.04,6.48-5.4,6.97-4.36.63-7.46-1.97-7.57-6.59-.19-7.49-.23-14.99-.34-22.48-.02-1.12,0-2.23,0-3.57-5.75-1.12-11.44-1.85-16.9-3.36-33-9.13-55.22-29.92-66.56-62.24-1.06-3.03-1.83-6.23-2.27-9.41-.43-3.13,1-5.69,4.03-6.9,2.96-1.18,4.96.5,6.72,2.69,17.06,21.2,40.11,30.95,66.34,34.57,2.68.37,5.38.56,8.53.87v-29.32c-2.76-.48-5.54-.88-8.28-1.45-26.44-5.51-45.28-20.55-56.37-45.2-.7-1.55-1.65-3.62-1.15-4.95.88-2.38,2.36-4.96,4.35-6.41,2.47-1.8,4.98.07,6.98,1.91,8.3,7.62,17.67,13.7,28.4,16.97,8.16,2.49,16.76,3.56,25.16,5.26.28-.04.57-.08.85-.12v-27.85c-7.93-6.58-15.63-12.16-22.34-18.75-7.35-7.22-11.7-16.22-10.19-27,1.99-14.12,15.59-21.95,28.69-16.31,3.91,1.68,7.28,4.6,11.13,7.11,1.73-1.42,3.77-3.44,6.12-4.98,12.83-8.38,29.19-2.61,32.58,11.71,1.96,8.28-.11,16.08-4.73,23.2-5.13,7.9-12.13,13.86-19.88,19.02-2.49,1.65-5.05,3.2-7.77,4.92,0,9.42,0,18.88,0,28.34.19.2.38.39.57.59Z"/>
  <path class="cls-6" d="m186.01,191.08c-.19-.2-.38-.39-.57-.59.19.2.38.39.57.59Z"/>
  <path class="cls-6" d="m186.01,254.16c-.2-.22-.39-.44-.59-.66.2.22.39.44.59.66Z"/>
  <path class="cls-7" d="m171.82,191.09c-.28.04-.57.08-.85.12.28-.04.57-.08.85-.12Z"/>
</svg>