<?xml version="1.0" encoding="utf-8"?>
<!-- Generator: Adobe Illustrator 27.1.1, SVG Export Plug-In . SVG Version: 6.00 Build 0)  -->
<svg version="1.1" id="Layer_1" xmlns="http://www.w3.org/2000/svg" xmlns:xlink="http://www.w3.org/1999/xlink" x="0px" y="0px"
	 viewBox="0 0 384 384" style="enable-background:new 0 0 384 384;" xml:space="preserve">
<style type="text/css">
	.st0{fill:#ECF0F1;}
	.st1{fill:#D1D4D1;}
	.st2{fill:#BDC3C7;}
	.st3{fill:#EBEFF0;}
	.st4{fill:#A56A43;}
	.st5{fill:#FDD7AD;}
	.st6{fill:#B57D55;}
	.st7{fill:#CF9F76;}
</style>
<path class="st0" d="M0,225v-39.8c0.5-1.2,1-2.5,1.5-3.8c0-1,0-2,0-3c0.2-0.5,0.5-1,0.7-1.5c1-4.8,1.9-9.7,3.1-14.5
	c4.1-16.8,10.2-32.8,19.4-47.4c6.1-9.6,13-18.7,19.6-28.1c1-1,2-2,3-3c0.5-0.5,1-1,1.5-1.5c2.5-2.5,5-5,7.5-7.5
	c0.2-0.2,0.5-0.5,0.8-0.8c1.2-1.2,2.5-2.5,3.8-3.7c0.2-0.5,0.5-1,0.8-1.5l0,0c0.5,0,1,0,1.5,0c1-1,2-2,3-3c0.5-0.2,1-0.5,1.5-0.8
	l2.3-2.2c0.8-0.4,1.5-0.7,2.3-1.2c7.8-4.9,15.4-10.1,23.4-14.6c15-8.4,31.1-13.7,47.8-17.3c0.5-0.2,1-0.5,1.5-0.7
	c2.5-0.3,5-0.5,7.5-0.8c0.5-0.2,1-0.5,1.5-0.7c1.2,0,2.5,0,3.7,0c1-0.2,2-0.5,3-0.7c1,0,2,0,3,0c0.8,0,1.5,0,2.2,0
	c1.2-0.2,2.5-0.5,3.8-0.7c0.8,0,1.5,0,2.2,0c4.5,0,9,0,13.5,0c1.2,0.2,2.5,0.5,3.8,0.7c0.5,0,1,0,1.5,0c0.8,0,1.5,0,2.2,0
	c1,0,2,0,3,0c0.9,0.2,1.9,0.6,2.9,0.7c13.5,1.2,26.6,4.4,39.4,8.9c15.6,5.4,30.1,13,43.7,22.5c1.2,0.8,2.7,1.1,4,1.7
	c0.8,1,1.5,2.2,2.4,3c3.6,3.3,7.4,6.5,11.1,9.7c0.1,0.8,0.3,1.6,0.5,2.6c1,0.2,1.8,0.3,2.5,0.4c1.5,1.5,3,3,4.5,4.5
	c0.1,0.8,0.3,1.6,0.4,2.6c1,0.2,1.8,0.3,2.5,0.5c3.5,4,6.9,8,10.5,11.9c0.9,0.9,2,1.6,3,2.4c0.4,1.2,0.4,2.6,1.1,3.5
	c7.6,10.2,13.7,21.4,18.7,33.1c6,14,10.2,28.6,12.5,43.6c0.2,0.8,0.5,1.5,0.7,2.3c0,1.2,0,2.5,0,3.7c0.2,0.8,0.5,1.5,0.7,2.3
	c0,0.5,0,1,0,1.5c0,0.8,0,1.5,0,2.2v3c0,0.8,0,1.5,0,2.2c0.2,0.8,0.5,1.5,0.7,2.2c0,4.8,0,9.5,0,14.2c-0.2,1-0.5,2-0.7,3
	c0,0.5,0,1,0,1.5c0,1,0,2,0,3v2.2c0,0.5,0,1,0,1.5c-0.2,1-0.5,2-0.7,3c0.2,0.3,0.5,0.5,0.7,0.8c-0.2,0.5-0.5,1-0.7,1.5
	c-0.5,3.2-1,6.4-1.6,9.5c-4.6,22.1-12.4,42.9-24.6,62c-3,4.7-6,9.3-9.1,14c-0.8,0.8-1.5,1.5-2.2,2.3c-0.2,0.5-0.5,1-0.8,1.5
	c-1,1-2,2-3,3c0,0.5,0,1,0,1.5l0,0c-0.5,0.2-1,0.5-1.5,0.8c-1.2,1.2-2.5,2.5-3.7,3.8c-0.2,0.2-0.5,0.5-0.8,0.8c-2.5,2.5-5,5-7.5,7.5
	c-0.2,0.2-0.5,0.5-0.8,0.8c-1.2,1.2-2.5,2.5-3.8,3.7c-1,0.8-2,1.5-3,2.3c-0.8,0.8-1.5,1.5-2.3,2.2c-1,0.7-2.1,1.3-3.1,2
	c-9.6,6.2-18.9,12.9-28.9,18.4c-13.9,7.6-29,12.3-44.5,15.7c-0.5,0.2-1,0.5-1.5,0.7c-0.8,0-1.5,0-2.2,0c-0.5,0.2-1,0.5-1.5,0.7
	c-1,0-2,0-3,0c-1.4,0.2-2.9,0.4-4.3,0.8c-1.4,0.4-2.6,1-3.9,1.5h-40.5c-1-0.5-2-1-3-1.5c-1,0-2,0-3,0c-0.5-0.2-1-0.5-1.5-0.7
	c-1,0-2,0-3,0c-0.5-0.2-1-0.5-1.5-0.7c-2-0.3-4-0.5-6-0.8c-0.5-0.2-1-0.5-1.5-0.7c-1.1-0.3-2.2-0.5-3.2-0.8
	c-15.7-4.1-30.9-9.6-44.8-18c-8.2-4.9-16-10.4-24-15.7c-0.8-0.8-1.5-1.5-2.3-2.2c-0.8-0.5-1.5-1-2.2-1.5c-1-1-2-2-3-3
	c-1-0.8-2-1.5-3-2.3c-2.8-2.8-5.5-5.5-8.3-8.3c-1-1.2-2-2.5-3-3.7c-0.8-0.8-1.5-1.5-2.2-2.3c-0.5-0.8-1-1.5-1.5-2.2c-1-1-2-2-3-3
	c-0.3-0.7-0.5-1.4-0.9-2c-10.3-13.2-18.6-27.6-24.7-43.3c-4.8-12.3-8.5-24.9-10.4-38c-0.2-1.4-0.4-2.9-0.8-4.3
	C1.1,227.6,0.5,226.3,0,225L0,225z M179.4,53.2c-83.4-1.4-152.8,68-153,151.1c-0.2,85.1,68.2,152.8,151.5,153.3
	c85,0.5,152.7-69.7,153.2-151.7C331.6,122.8,262,52,179.4,53.2L179.4,53.2z"/>
<path class="st1" d="M377.3,44.2c-0.9,0.8-1.9,1.6-2.8,2.4c-15.9,15.9-31.9,31.9-47.8,47.8c-1,1-1.8,2.1-2.7,3.1
	c-0.3,0.2-0.5,0.5-0.8,0.7c-1-0.8-2.2-1.4-3-2.4c-3.5-3.9-7-7.9-10.5-11.9c-1-1-2-2-3-3c-1.5-1.5-3-3-4.5-4.5c-1-1-2-2-3-3
	c-3.7-3.2-7.5-6.4-11.1-9.7c-1-0.8-1.6-2-2.4-3c0.5-0.5,1-1,1.4-1.5c0.9-0.7,1.8-1.4,2.5-2.2c16-16,32.1-32,48.1-48.1
	c0.7-0.7,1.3-1.5,1.9-2.3c2.4-1.5,4.8-2.9,7.2-4.5c0.9-0.6,1.7-1.5,2.6-2.2c0.5,0,1,0,1.5,0h12.8c0.5,0,1,0,1.5,0
	c0.6,0.6,1,1.3,1.7,1.6c7.3,3,12.4,8.2,15.4,15.4c0.3,0.7,1.1,1.1,1.6,1.7v1.5c-0.1,0.1-0.3,0.2-0.3,0.2c0.1,0.2,0.2,0.4,0.3,0.5
	v11.2c-0.1,0.1-0.3,0.2-0.4,0.4c0.1,0.1,0.3,0.2,0.4,0.4v1.5c-0.6,0.5-1.4,0.9-1.8,1.5C380.5,38.7,379,41.5,377.3,44.2L377.3,44.2z"
	/>
<path class="st2" d="M179.4,53.2C262,52,331.6,122.8,331.1,205.9c-0.5,82-68.2,152.2-153.2,151.7c-83.3-0.5-151.8-68.2-151.5-153.3
	C26.6,121.2,96,51.8,179.4,53.2L179.4,53.2z M178.8,344.2c76.5,0,139.1-61.6,139-138.9c0-77-61.7-139.2-139.2-139.1
	c-77.2,0-138.8,62.6-138.8,139.1C39.8,282,102.1,344.3,178.8,344.2z"/>
<path class="st3" d="M306.8,80.9c1,1,2,2,3,3c-0.8-0.2-1.6-0.3-2.5-0.5C307.1,82.6,307,81.8,306.8,80.9L306.8,80.9z"/>
<path class="st3" d="M299.3,73.5c1,1,2,2,3,3c-0.8-0.1-1.6-0.3-2.5-0.4C299.6,75.1,299.4,74.3,299.3,73.5z"/>
<path class="st4" d="M178.8,344.2c-76.7,0-139-62.2-139-138.9c0-76.5,61.6-139.1,138.8-139.1c77.5,0,139.2,62.1,139.2,139.1
	C317.8,282.7,255.2,344.2,178.8,344.2L178.8,344.2z M185.5,253.5v-28.3c0.9-0.3,1.3-0.5,1.8-0.6c0.9-0.2,1.7-0.2,2.6-0.4
	c28.7-4.4,48.9-20,60.8-46.4c0.8-1.7,0.9-3.9,0.7-5.8c-0.7-5.2-6-7.2-10.1-3.9c-1.9,1.6-3.7,3.3-5.7,4.8
	c-14.6,11.2-30.9,17.5-49.4,18.1c-0.2-0.2-0.4-0.4-0.6-0.6v-28.3c2.7-1.7,5.3-3.3,7.8-4.9c7.8-5.2,14.8-11.1,19.9-19
	c4.6-7.1,6.7-14.9,4.7-23.2c-3.4-14.3-19.8-20.1-32.6-11.7c-2.4,1.5-4.4,3.6-6.1,5c-3.9-2.5-7.2-5.4-11.1-7.1
	c-13.1-5.6-26.7,2.2-28.7,16.3c-1.5,10.8,2.8,19.8,10.2,27c6.7,6.6,14.4,12.2,22.3,18.8v27.9c-0.3,0-0.6,0.1-0.9,0.1
	c-8.4-1.7-17-2.8-25.2-5.3c-10.7-3.3-20.1-9.3-28.4-17c-2-1.8-4.5-3.7-7-1.9c-2,1.4-3.5,4-4.3,6.4c-0.5,1.3,0.4,3.4,1.2,4.9
	c11.1,24.6,29.9,39.7,56.4,45.2c2.7,0.6,5.5,1,8.3,1.4v29.3c-3.1-0.3-5.9-0.5-8.5-0.9c-26.2-3.6-49.3-13.4-66.3-34.6
	c-1.8-2.2-3.8-3.9-6.7-2.7c-3,1.2-4.5,3.8-4,6.9c0.4,3.2,1.2,6.4,2.3,9.4c11.3,32.3,33.6,53.1,66.6,62.2c5.5,1.5,11.2,2.2,16.9,3.4
	c0,1.3,0,2.5,0,3.6c0.1,7.5,0.1,15,0.3,22.5c0.1,4.6,3.2,7.2,7.6,6.6c3.4-0.5,5.4-3,5.4-7c0.1-8.6,0-17.2,0-26.1
	c2.9-0.3,5.6-0.5,8.1-1c36.7-6.9,61.8-27.6,75-62.5c1.2-3.1,2.2-6.4,2.9-9.7c1-4.8-2.3-9.4-6.2-8.5c-2,0.5-4,2.4-5.4,4.1
	c-19.4,22.5-44.7,32.2-73.6,34C185.9,253.9,185.7,253.7,185.5,253.5L185.5,253.5z"/>
<path class="st5" d="M186,191.1c18.5-0.6,34.8-6.9,49.4-18.1c2-1.5,3.8-3.3,5.7-4.8c4.1-3.3,9.4-1.3,10.1,3.9
	c0.2,1.9,0.1,4.1-0.7,5.8c-11.9,26.4-32.1,42-60.8,46.4c-0.9,0.1-1.7,0.2-2.6,0.4c-0.5,0.1-0.9,0.3-1.8,0.6c0,9.4,0,18.8,0,28.3
	c0.2,0.2,0.4,0.4,0.6,0.7c29-1.8,54.2-11.5,73.6-34c1.5-1.7,3.4-3.6,5.4-4.1c3.9-0.9,7.2,3.7,6.2,8.5c-0.7,3.3-1.7,6.5-2.9,9.7
	c-13.2,35-38.4,55.7-75,62.5c-2.6,0.5-5.2,0.6-8.1,1c0,8.9,0,17.5,0,26.1c0,4-2,6.5-5.4,7c-4.4,0.6-7.5-2-7.6-6.6
	c-0.2-7.5-0.2-15-0.3-22.5c0-1.1,0-2.2,0-3.6c-5.8-1.1-11.4-1.9-16.9-3.4c-33-9.1-55.2-29.9-66.6-62.2c-1.1-3-1.8-6.2-2.3-9.4
	c-0.4-3.1,1-5.7,4-6.9c3-1.2,5,0.5,6.7,2.7c17.1,21.2,40.1,30.9,66.3,34.6c2.7,0.4,5.4,0.6,8.5,0.9V225c-2.8-0.5-5.5-0.9-8.3-1.4
	c-26.4-5.5-45.3-20.6-56.4-45.2c-0.7-1.6-1.7-3.6-1.2-4.9c0.9-2.4,2.4-5,4.3-6.4c2.5-1.8,5,0.1,7,1.9c8.3,7.6,17.7,13.7,28.4,17
	c8.2,2.5,16.8,3.6,25.2,5.3c0.3,0,0.6-0.1,0.9-0.1v-27.9c-7.9-6.6-15.6-12.2-22.3-18.8c-7.4-7.2-11.7-16.2-10.2-27
	c2-14.1,15.6-21.9,28.7-16.3c3.9,1.7,7.3,4.6,11.1,7.1c1.7-1.4,3.8-3.4,6.1-5c12.8-8.4,29.2-2.6,32.6,11.7c2,8.3-0.1,16.1-4.7,23.2
	c-5.1,7.9-12.1,13.9-19.9,19c-2.5,1.6-5.1,3.2-7.8,4.9c0,9.4,0,18.9,0,28.3C185.6,190.7,185.8,190.9,186,191.1L186,191.1z"/>
<path class="st6" d="M186,191.1c-0.2-0.2-0.4-0.4-0.6-0.6C185.7,190.7,185.9,190.9,186,191.1z"/>
<path class="st6" d="M186,254.1c-0.2-0.2-0.4-0.4-0.6-0.7C185.7,253.7,185.8,253.9,186,254.1z"/>
<path class="st7" d="M171.9,191.1c-0.3,0-0.6,0.1-0.9,0.1C171.3,191.1,171.6,191.1,171.9,191.1z"/>
</svg>
