<?xml version="1.0" encoding="utf-8"?>
<!-- Generator: Adobe Illustrator 27.1.1, SVG Export Plug-In . SVG Version: 6.00 Build 0)  -->
<svg version="1.1" id="Layer_1" xmlns="http://www.w3.org/2000/svg" xmlns:xlink="http://www.w3.org/1999/xlink" x="0px" y="0px"
	 viewBox="0 0 269.1 383.9" style="enable-background:new 0 0 269.1 383.9;" xml:space="preserve">
<style type="text/css">
	.st0{fill:#FFD9A1;}
	.st1{fill:#01A97D;}
	.st2{fill:#00D3A1;}
	.st3{fill:#E2CFCC;}
	.st4{fill:#FDD6A0;}
	.st5{fill:#DEB476;}
	.st6{fill:#C9634A;}
	.st7{fill:#CA654C;}
	.st8{fill:#EFEBE9;}
</style>
<g>
	<g>
		<path class="st0" d="M97.1,328.5c-14.4-18.3-29-36.4-43.2-54.9c-12.7-16.5-24.2-33.9-33.5-52.6c-10-20-16.8-41.1-19.2-63.3
			c-3.5-32.1,0.3-63.2,16.2-92C34,35.5,59,15.6,91.9,6.1c9.8-2.8,20.2-3.7,30.4-5.5c0.6-0.1,1.1-0.4,1.7-0.7c7,0,14,0,21,0
			c0,0.2,0,0.5,0,0.7c1.4,0.5,2.7,1.2,4.1,1.5c37.6,9.7,65,32,82.3,66.6c8.1,16.2,12.7,33.6,13.8,51.6c1.2,19,0,38-4.7,56.7
			c-5.9,23.6-15.6,45.5-29.1,65.6c-10.3,15.4-21.4,30.3-32.4,45.2c-7.6,10.2-15.6,20-23.7,29.8c-6.7,8.2-13.5,16.2-20.5,24.1
			c-4,4.5-8.2,9.1-14.5,10.7c-3.9-3.6-7.9-7.1-11.6-10.9C104.7,337.4,101,332.9,97.1,328.5z M150.8,234.6c0.6-0.2,1.1-0.3,1.6-0.5
			c2.8-0.7,5.6-1.2,8.3-2c40.5-12.8,64.2-40.2,71.3-82.1c0.2-0.8,0.3-1.6,0.5-2.3c0.1-1.5,0.1-3,0.2-4.4c0-4.2,0-8.5,0-12.7
			c-0.1-1.7-0.2-3.4-0.3-5.1c-0.2-0.8-0.3-1.6-0.5-2.3c-6.6-42.8-37.8-75.4-79.5-83.3c-0.8-0.2-1.5-0.4-2.3-0.6
			c-0.7-0.1-1.5-0.1-2.2-0.2c-1-0.2-2.1-0.4-3.1-0.5c-1.7-0.1-3.5-0.2-5.2-0.3c-3.5,0-6.9,0-10.4,0c-1.7,0.1-3.5,0.2-5.2,0.3
			c-1,0.2-2.1,0.3-3.1,0.5c-0.7,0.1-1.5,0.1-2.2,0.2c-0.8,0.2-1.6,0.4-2.3,0.6c-0.5,0-1,0.1-1.5,0.1c-0.8,0.2-1.5,0.4-2.3,0.6
			c-1,0.3-1.9,0.5-2.9,0.8c-16.3,4.3-30.7,12.1-43,23.8c-15.5,14.7-25.1,32.6-29.2,53.5c-0.2,0.5-0.3,1.1-0.5,1.6
			c-0.1,1.2-0.2,2.4-0.3,3.6c-0.2,0.8-0.3,1.6-0.5,2.3c-0.1,1.5-0.1,3-0.2,4.4c0,4.2,0,8.5,0,12.8c0.1,1.5,0.1,3,0.2,4.4
			c0.2,1,0.4,2,0.5,3.1c0.1,1,0.2,1.9,0.3,2.9c0.2,0.5,0.3,1.1,0.5,1.6c0.3,1.7,0.6,3.5,0.8,5.2c0.2,0.5,0.4,1,0.5,1.5
			c4.5,15.8,11.9,30,23.2,42.1c14.8,15.9,33,25.8,54.3,30c0.8,0.2,1.5,0.4,2.3,0.6c0.7,0.1,1.5,0.1,2.2,0.2c1,0.2,2.1,0.4,3.1,0.5
			c1.7,0.1,3.5,0.2,5.2,0.4c3.4,0,6.9,0,10.4,0c1.5-0.1,3-0.2,4.5-0.3c1.3-0.2,2.5-0.4,3.8-0.6c0.8-0.1,1.6-0.3,2.4-0.4
			C150.5,234.4,150.6,234.5,150.8,234.6z"/>
		<path class="st1" d="M182.7,380.9c-1.6,0.2-3.2,0.5-4.8,0.7c-0.4,0-0.8,0-1.1,0.1c-1.9,0.1-3.7,0.3-5.6,0.5
			c-0.7,0-1.4,0.1-2.1,0.1c-2.1,0.2-4.1,0.4-6.1,0.6c-0.5,0-0.9,0.1-1.4,0.1c-1.8,0.1-3.6,0.3-5.4,0.4c-1.1,0-2.3-0.1-3.4-0.1
			c-2.6,0.2-5.2,0.4-7.7,0.6c-7.2,0-14.5,0-21.7,0c-2.1-0.2-4.2-0.4-6.4-0.5c-1.3,0-2.7,0-4.1,0c-0.8-0.1-1.5-0.2-2.3-0.4
			c0.7-0.2,1.4-0.5,2.1-0.6c13.9-1.5,27.9-2.6,41.8-4.7c12.1-1.8,23.8-5.4,34.6-11.4c11.6-6.3,12.6-16.3,1.5-22.4
			c-7.4-4.1-15.8-6.5-23.7-9.6c1.7-2,3.4-4,5.2-6c1.8,0.2,3.7,0.5,5.5,0.8l0.1,0.2l0.1-0.2c2.1,0.3,4.2,0.5,6.4,0.8l0.2,0.2l0.2-0.1
			c1.4,0.2,2.8,0.5,4.2,0.7l0.1,0.2l0.1-0.1c1.1,0.3,2.2,0.6,3.3,0.9c0.6,0.1,1.1,0.3,1.6,0.4c0.7,0.1,1.4,0.2,2.1,0.3
			c0.6,0.1,1.1,0.3,1.7,0.4c0.8,0,1.5,0.1,2.2,0.1c0.3,0.1,0.7,0.1,1,0.2c0.6,0.2,1.2,0.5,1.8,0.8c0.5,0.1,1.1,0.3,1.6,0.5
			c0.5,0,1,0.1,1.6,0.1c0.3,0,0.7,0.1,1,0.2c6.6,2.5,13.4,4.6,19.8,7.5c3.4,1.5,6.6,4,9.3,6.7c4.1,4,4,9.1,0,13.3
			c-2.1,2.2-4.7,4.2-7.4,5.7c-8.7,4.9-18.2,7.8-28.1,9.6c-0.6,0.1-1.1,0.3-1.7,0.4c-0.7,0.1-1.4,0.2-2,0.3c-0.6,0.1-1.1,0.3-1.7,0.4
			c-0.7,0.1-1.3,0.2-2,0.3c-0.6,0.1-1.2,0.3-1.8,0.4c-1.1,0.3-2.2,0.6-3.3,0.9l-0.2-0.1l-0.2,0.2c-1.4,0.2-2.8,0.5-4.2,0.7
			C183.4,380.8,183,380.9,182.7,380.9z"/>
		<path class="st2" d="M145,383.9c2.6-0.2,5.2-0.4,7.7-0.6c-0.1,0.2-0.2,0.4-0.2,0.6C150,383.9,147.5,383.9,145,383.9z"/>
		<path class="st2" d="M116.9,383.3c2.1,0.2,4.2,0.4,6.4,0.5c-2,0-4,0-6,0C117.1,383.7,117,383.5,116.9,383.3z"/>
		<path class="st3" d="M116.9,383.3c0.1,0.2,0.2,0.4,0.4,0.5c-1.5,0-3,0-4.5,0c0-0.2,0-0.4,0.1-0.5
			C114.2,383.3,115.5,383.3,116.9,383.3z"/>
		<path class="st3" d="M152.5,383.9c0.1-0.2,0.1-0.4,0.2-0.6c1.1,0,2.3,0.1,3.4,0.1c0.1,0.2,0.1,0.4,0.1,0.5
			C155,383.9,153.7,383.9,152.5,383.9z"/>
		<path class="st4" d="M145,0.7c0-0.2,0-0.5,0-0.7c1,0,2,0,3,0c0,0.2,0.1,0.4,0.1,0.6C147.1,0.7,146,0.7,145,0.7z"/>
		<path class="st2" d="M166.8,334.3c7.9,3.1,16.3,5.5,23.7,9.6c11.1,6.1,10.1,16.1-1.5,22.4c-10.9,5.9-22.5,9.6-34.6,11.4
			c-13.9,2-27.8,3.1-41.8,4.7c-0.7,0.1-1.4,0.4-2.1,0.6c-23.1-1.7-45.9-4.6-67.3-14.1c-3.7-1.6-7.3-3.9-10.3-6.6
			c-5.1-4.4-5.4-10-0.3-14.5c3.7-3.3,8.2-6.1,12.9-8c15.2-6.4,31.4-8.6,47.6-10.6c1.3-0.2,2.7-0.4,4-0.6c3.9,4.4,7.6,8.9,11.6,13.1
			c3.7,3.8,7.7,7.3,11.6,10.9c9.2,6.9,21.9,6.3,31.4-2.2C157.2,345.5,161.8,339.7,166.8,334.3z"/>
		<path class="st5" d="M166.8,334.3c-5,5.4-9.6,11.2-15,16c-9.6,8.5-22.2,9.1-31.4,2.2c6.3-1.6,10.5-6.2,14.5-10.7
			c7-7.9,13.9-16,20.5-24.1c8-9.8,16.1-19.6,23.7-29.8c11.1-14.9,22.1-29.8,32.4-45.2c13.5-20.1,23.2-42,29.1-65.6
			c4.7-18.7,5.9-37.6,4.7-56.7c-1.2-18-5.7-35.4-13.8-51.6c-17.3-34.6-44.8-56.9-82.3-66.6c-1.4-0.4-2.7-1-4.1-1.5
			c1,0,2.1-0.1,3.1-0.1c51,2.7,95.2,35.7,112.2,83.8c4.9,13.9,7.7,28.3,8.5,43.1c2,37.4-7.8,71.7-25.8,104.1
			c-13.9,24.9-31.7,47.2-49,69.8c-7.1,9.2-14.7,18-22,26.9C170.3,330.3,168.5,332.3,166.8,334.3z"/>
		<path class="st2" d="M169.1,382.2c0.7,0,1.4-0.1,2.1-0.1C170.5,382.1,169.8,382.2,169.1,382.2z"/>
		<path class="st3" d="M182.7,380.9c0.3,0,0.7,0,1-0.1C183.4,380.8,183,380.9,182.7,380.9z"/>
		<path class="st2" d="M194,332c-0.6-0.1-1.1-0.3-1.6-0.4C192.9,331.7,193.4,331.8,194,332z"/>
		<path class="st2" d="M197.7,332.7c-0.6-0.1-1.1-0.3-1.7-0.4C196.6,332.4,197.2,332.6,197.7,332.7z"/>
		<path class="st3" d="M201,333c-0.4-0.1-0.7-0.1-1-0.2C200.3,332.9,200.7,333,201,333z"/>
		<path class="st3" d="M207,334.5c-0.3,0-0.7-0.1-1-0.2C206.3,334.4,206.7,334.4,207,334.5z"/>
		<path class="st2" d="M199.1,377.7c0.6-0.1,1.1-0.3,1.7-0.4C200.2,377.4,199.6,377.6,199.1,377.7z"/>
		<path class="st2" d="M195.3,378.5c0.6-0.1,1.1-0.3,1.7-0.4C196.5,378.2,195.9,378.3,195.3,378.5z"/>
		<path class="st2" d="M191.6,379.2c0.6-0.1,1.2-0.3,1.8-0.4C192.7,378.9,192.1,379.1,191.6,379.2z"/>
		<path class="st2" d="M204.4,334.2c-0.5-0.1-1.1-0.3-1.6-0.5C203.4,333.9,203.9,334.1,204.4,334.2z"/>
		<path class="st3" d="M176.7,381.6c0.4,0,0.8,0,1.1-0.1C177.5,381.6,177.1,381.6,176.7,381.6z"/>
		<path class="st2" d="M161.5,382.9c0.5,0,0.9-0.1,1.4-0.1C162.5,382.9,162,382.9,161.5,382.9z"/>
		<polygon class="st3" points="187.9,380.1 188.1,379.9 188.2,380.1 		"/>
		<polygon class="st3" points="177.8,329.1 177.6,329.3 177.5,329.1 		"/>
		<polygon class="st3" points="189,330.7 188.8,330.8 188.7,330.6 		"/>
		<path class="st3" d="M184.5,330l-0.2,0.1l-0.2-0.2C184.3,329.8,184.4,329.8,184.5,330z"/>
		<path class="st6" d="M37.2,153.6c-0.1-1-0.2-1.9-0.3-2.9c-0.2-1-0.4-2-0.5-3.1c-0.1-1.5-0.1-3-0.2-4.4c0-4.2,0-8.5,0-12.8
			c0.1-1.5,0.1-3,0.2-4.4c0.2-0.8,0.3-1.6,0.5-2.3c0.1-1.2,0.2-2.4,0.3-3.6c0.2-0.5,0.3-1.1,0.5-1.6C41.8,97.6,51.4,79.7,66.9,65
			c12.3-11.6,26.6-19.5,43-23.8c1-0.2,1.9-0.5,2.9-0.8c0.8-0.2,1.5-0.4,2.3-0.6c0.5,0,1-0.1,1.5-0.1c0.8-0.2,1.6-0.4,2.3-0.6
			c0.7-0.1,1.5-0.1,2.2-0.2c1-0.2,2.1-0.3,3.1-0.5c1.7-0.1,3.5-0.2,5.2-0.3c3.5,0,6.9,0,10.4,0c1.7,0.1,3.5,0.2,5.2,0.3
			c1,0.2,2.1,0.4,3.1,0.5c0.7,0.1,1.5,0.1,2.2,0.2c0.8,0.2,1.5,0.4,2.3,0.6c41.8,7.9,72.9,40.5,79.5,83.3c0.2,0.8,0.3,1.6,0.5,2.3
			c0.1,1.7,0.2,3.4,0.3,5.1c0,4.2,0,8.5,0,12.7c-0.1,1.5-0.1,3-0.2,4.4c-0.2,0.8-0.3,1.6-0.5,2.3c-7.1,41.8-30.8,69.2-71.3,82.1
			c-2.7,0.9-5.6,1.4-8.3,2c-0.5-0.1-0.9-0.1-1.4-0.1c-0.2,0.1-0.5,0.2-0.7,0.3c-0.8,0.1-1.6,0.3-2.4,0.4c-1.3,0.2-2.5,0.4-3.8,0.6
			c-1.5,0.1-3,0.2-4.5,0.3c-3.4,0-6.9,0-10.4,0c-1.7-0.1-3.5-0.2-5.2-0.3c-1-0.2-2.1-0.4-3.1-0.5c-0.7-0.1-1.5-0.1-2.2-0.2
			c-0.8-0.2-1.5-0.4-2.3-0.6c-21.3-4.2-39.5-14.1-54.3-30c-11.2-12.1-18.7-26.3-23.1-42.1c-0.2-0.5-0.4-1-0.5-1.5
			c-0.3-1.7-0.6-3.5-0.8-5.2C37.6,154.7,37.4,154.1,37.2,153.6z M181,132.8c-1.9-1-3.8-2.9-5.8-2.9c-8.1-0.3-16.2,0-24.3,0.1
			c-22.2,0-44.4-0.1-66.6,0c-4.6,0-6.3,1.8-6.2,6.5c0.4,18.3,6.6,34.3,18.7,48c-4.1,0-8.2,0.1-12.3,0.1c-4.9,0.1-7.3,2.1-7.2,6.1
			c0.1,3.8,2.4,5.7,7.2,5.7c30.6,0,61.1,0,91.6,0c4.9,0,7.3-2,7.3-5.9c0-3.9-2.4-5.8-7.4-5.9c-4.5-0.1-9-0.1-13.5-0.1
			c1.6-2,3.2-4,4.9-6c12.6,0.6,24-2.5,33-11.8c6.4-6.6,7.5-14.4,4.1-22.8c-3.3-8.1-9.6-11.7-18.3-11.2
			C184.5,132.8,182.8,132.8,181,132.8z M124.8,104.4c-1-3.3-1.8-6.7-3.1-9.9c-3.3-8.2-3.5-8.1,2.8-14.4c2.4-2.4,2.6-5.1,0.8-7.8
			c-1.8-2.7-4.7-2.8-7.4-1.6c-7,3.1-11.6,12-9.9,19.6c0.8,3.5,2.2,6.9,3.6,10.2c1.2,2.8,1.5,5-1.6,7c-3,1.9-3.3,5.2-1.5,7.9
			c1.8,2.5,5.2,3.4,8,1.6C121.2,114.2,124.4,110.4,124.8,104.4z M158.7,68.5c-1.4-1.6-2.4-4-3.9-4.4c-1.9-0.5-4.9-0.2-6.4,1
			c-4.6,3.7-7.8,8.6-7.1,14.9c0.4,4,1.4,8.1,2.4,12c0.9,3.5,2.2,6.7-1.3,9.8c-2.2,2-1.8,5.2,0.3,7.5c2,2.2,4.8,2.6,7.1,0.8
			c3.8-2.7,6.9-6.2,6.5-11.2c-0.4-4.4-1.2-8.9-2.5-13.1c-1.5-4.8-1.5-8.9,2.5-12.6C157.2,72.2,157.6,70.5,158.7,68.5z"/>
		<path class="st5" d="M36.2,130.4c0,4.2,0,8.5,0,12.8C36.2,138.9,36.2,134.7,36.2,130.4z"/>
		<path class="st5" d="M232.8,143.2c0-4.2,0-8.5,0-12.7C232.8,134.7,232.8,138.9,232.8,143.2z"/>
		<path class="st4" d="M139.7,38.1c-3.5,0-6.9,0-10.4,0C132.8,38.1,136.2,38.1,139.7,38.1z"/>
		<path class="st4" d="M129.3,235.6c3.4,0,6.9,0,10.4,0C136.2,235.6,132.8,235.6,129.3,235.6z"/>
		<path class="st5" d="M144.2,235.3c1.3-0.2,2.5-0.4,3.8-0.6C146.7,234.9,145.5,235.1,144.2,235.3z"/>
		<path class="st5" d="M148,38.9c-1-0.2-2.1-0.4-3.1-0.5C145.9,38.6,147,38.8,148,38.9z"/>
		<path class="st5" d="M124.1,38.4c-1,0.2-2.1,0.3-3.1,0.5C122,38.8,123.1,38.6,124.1,38.4z"/>
		<path class="st5" d="M36.4,147.6c0.2,1,0.4,2,0.5,3.1C36.8,149.7,36.6,148.7,36.4,147.6z"/>
		<path class="st5" d="M121,234.7c1,0.2,2.1,0.4,3.1,0.5C123.1,235.1,122,234.9,121,234.7z"/>
		<path class="st5" d="M118.8,39.1c-0.8,0.2-1.6,0.4-2.3,0.6C117.3,39.5,118.1,39.3,118.8,39.1z"/>
		<path class="st5" d="M152.5,39.7c-0.8-0.2-1.5-0.4-2.3-0.6C150.9,39.3,151.7,39.5,152.5,39.7z"/>
		<path class="st5" d="M115,39.8c-0.8,0.2-1.5,0.4-2.3,0.6C113.5,40.2,114.3,40,115,39.8z"/>
		<path class="st5" d="M232.5,125.3c-0.2-0.8-0.3-1.6-0.5-2.3C232.2,123.7,232.3,124.5,232.5,125.3z"/>
		<path class="st5" d="M36.9,123.7c-0.2,0.8-0.3,1.6-0.5,2.3C36.6,125.2,36.7,124.5,36.9,123.7z"/>
		<path class="st5" d="M232.1,150c0.2-0.8,0.3-1.6,0.5-2.3C232.4,148.4,232.2,149.2,232.1,150z"/>
		<path class="st5" d="M116.5,234c0.8,0.2,1.5,0.4,2.3,0.6C118,234.3,117.3,234.2,116.5,234z"/>
		<path class="st5" d="M37.2,153.6c0.2,0.5,0.3,1.1,0.5,1.6C37.5,154.7,37.4,154.1,37.2,153.6z"/>
		<path class="st5" d="M37.7,118.4c-0.2,0.5-0.3,1.1-0.5,1.6C37.4,119.5,37.5,119,37.7,118.4z"/>
		<path class="st4" d="M151.1,233.9c0.5,0.1,0.9,0.1,1.4,0.1c-0.6,0.2-1.1,0.3-1.6,0.5C150.9,234.3,151,234.1,151.1,233.9z"/>
		<path class="st4" d="M38.5,160.4c0.2,0.5,0.4,1,0.5,1.5C38.9,161.4,38.7,160.9,38.5,160.4z"/>
		<path class="st7" d="M151.1,233.9c-0.1,0.2-0.2,0.4-0.2,0.6c-0.2-0.1-0.3-0.1-0.4-0.3C150.6,234.2,150.8,234,151.1,233.9z"/>
		<path class="st8" d="M96.9,184.4c-12.1-13.7-18.3-29.7-18.7-48c-0.1-4.6,1.6-6.5,6.2-6.5c22.2,0,44.4,0,66.6,0
			c3.9,5,2.7,10.7,1.9,16c-2.1,14.4-8.2,27.2-17.6,38.4C122.4,184.4,109.7,184.4,96.9,184.4z"/>
		<path class="st3" d="M135.2,184.4c9.4-11.2,15.5-24,17.6-38.4c0.8-5.4,2-11.1-1.9-16c8.1-0.1,16.2-0.4,24.3-0.1
			c1.9,0.1,3.8,1.9,5.8,2.9c0,3.9,0,7.8,0,11.7c-2.3,7.3-4.5,14.6-6.8,21.9c-2.2,4-4.5,8-6.8,12c-1.6,2-3.2,4-4.9,6
			C153.5,184.4,144.3,184.4,135.2,184.4z"/>
		<path class="st0" d="M135.2,184.4c9.1,0,18.2,0,27.4,0.1c4.5,0,9,0,13.5,0.1c5,0.1,7.4,2,7.4,5.9c0,3.9-2.4,5.9-7.3,5.9
			c-30.6,0-61.1,0-91.6,0c-4.7,0-7.1-1.9-7.2-5.7c-0.1-4,2.3-6,7.2-6.1c4.1-0.1,8.2-0.1,12.3-0.1
			C109.7,184.4,122.4,184.4,135.2,184.4z"/>
		<path class="st8" d="M167.5,178.5c2.2-4,4.5-8,6.8-12c7.3-0.3,13.5-3.1,18.4-8.4c2.8-3,2.3-6.6,1-10.1c-1.3-3.4-4.1-3.5-7.1-3.4
			c-1.9,0.1-3.7,0-5.6,0c0-3.9,0-7.8,0-11.7c1.7,0,3.5,0,5.2-0.1c8.7-0.6,15,3,18.3,11.2c3.4,8.4,2.3,16.2-4.1,22.8
			C191.5,176,180.1,179.1,167.5,178.5z"/>
		<path class="st3" d="M124.8,104.4c-0.4,6-3.6,9.8-8.2,12.6c-2.8,1.7-6.2,0.9-8-1.6c-1.8-2.7-1.5-5.9,1.5-7.9c3.1-2,2.8-4.2,1.6-7
			c-1.4-3.3-2.8-6.7-3.6-10.2c-1.7-7.5,2.9-16.5,9.9-19.6c2.7-1.2,5.6-1.2,7.4,1.6c1.8,2.7,1.6,5.4-0.8,7.8
			c-6.3,6.3-6.2,6.2-2.8,14.4C123,97.7,123.8,101.1,124.8,104.4z"/>
		<path class="st3" d="M158.7,68.5c-1,2-1.4,3.8-2.5,4.7c-4,3.7-4,7.8-2.5,12.6c1.3,4.2,2.2,8.7,2.5,13.1c0.4,4.9-2.7,8.5-6.5,11.2
			c-2.4,1.7-5.1,1.3-7.1-0.8c-2.1-2.3-2.5-5.5-0.3-7.5c3.4-3.2,2.2-6.3,1.3-9.8c-1-3.9-2-8-2.4-12c-0.6-6.2,2.6-11.2,7.1-14.9
			c1.5-1.2,4.5-1.5,6.4-1C156.3,64.5,157.3,66.9,158.7,68.5z"/>
		<path class="st7" d="M181,144.5c1.9,0,3.7,0.1,5.6,0c3-0.1,5.8,0,7.1,3.4c1.3,3.5,1.8,7.1-1,10.1c-4.9,5.4-11.1,8.1-18.4,8.4
			C176.5,159.2,178.7,151.8,181,144.5z"/>
	</g>
</g>
</svg>
