<?xml version="1.0" encoding="utf-8"?>
<!-- Generator: Adobe Illustrator 27.1.1, SVG Export Plug-In . SVG Version: 6.00 Build 0)  -->
<svg version="1.1" id="Layer_1" xmlns="http://www.w3.org/2000/svg" xmlns:xlink="http://www.w3.org/1999/xlink" x="0px" y="0px"
	 viewBox="0 0 270.04 384" style="enable-background:new 0 0 270.04 384;" xml:space="preserve">
<style type="text/css">
	.st0{fill:#FFFFFF;}
	.st1{fill:#FFD9A1;}
	.st2{fill:#01A97D;}
	.st3{fill:#00D3A1;}
	.st4{fill:#E2CFCC;}
	.st5{fill:#FDD6A0;}
	.st6{fill:#DEB476;}
	.st7{fill:#C9634A;}
	.st8{fill:#CA654C;}
	.st9{fill:#EFEBE9;}
</style>
<g>
	<g>
		<path class="st0" d="M113.32,383.93c-55.73,0-111.46-0.02-167.19,0.07c-2.57,0-3.07-0.5-3.07-3.07
			c0.08-125.95,0.08-251.91,0-377.86c0-2.57,0.5-3.08,3.07-3.07C5.61,0.09,65.09,0.07,124.57,0.07c-0.56,0.23-1.1,0.56-1.68,0.66
			c-10.14,1.78-20.54,2.64-30.39,5.46c-32.96,9.44-57.94,29.34-74.56,59.45c-15.9,28.81-19.7,59.88-16.16,92.02
			c2.45,22.21,9.26,43.29,19.21,63.32c9.3,18.73,20.84,36.06,33.5,52.61c14.15,18.5,28.77,36.64,43.19,54.93
			c-1.35,0.22-2.68,0.49-4.04,0.65c-16.22,1.95-32.42,4.21-47.6,10.59c-4.62,1.94-9.13,4.71-12.87,8.03
			c-5.09,4.51-4.81,10.13,0.34,14.54c3.07,2.64,6.64,4.92,10.34,6.56c21.4,9.48,44.21,12.45,67.27,14.11
			c0.76,0.12,1.51,0.24,2.27,0.36C113.33,383.55,113.3,383.74,113.32,383.93z"/>
		<path class="st0" d="M148.56,0.07c58.48,0,116.96,0.02,175.44-0.07c2.57,0,3.07,0.5,3.07,3.07c-0.08,125.95-0.08,251.91,0,377.86
			c0,2.57-0.5,3.08-3.07,3.07c-55.73-0.09-111.46-0.07-167.19-0.07c0.03-0.18,0.01-0.36-0.06-0.53c1.79-0.14,3.57-0.27,5.36-0.41
			c0.46-0.03,0.92-0.06,1.37-0.09c2.05-0.2,4.09-0.4,6.14-0.6c0.7-0.05,1.4-0.09,2.1-0.14c1.86-0.15,3.71-0.3,5.57-0.45
			c0.38-0.03,0.75-0.05,1.13-0.08c1.61-0.23,3.23-0.45,4.84-0.68c0.33-0.03,0.67-0.05,1-0.08c1.4-0.23,2.8-0.47,4.2-0.7
			c0,0,0.31-0.03,0.31-0.03c1.11-0.28,2.22-0.57,3.33-0.85c0.59-0.14,1.17-0.27,1.76-0.41c0.67-0.11,1.33-0.22,2-0.33
			c0.57-0.14,1.14-0.29,1.71-0.43c0.68-0.11,1.36-0.22,2.03-0.33c0.56-0.15,1.12-0.29,1.68-0.44c9.81-1.89,19.31-4.73,28.05-9.64
			c2.68-1.5,5.22-3.47,7.36-5.67c4.03-4.16,4.11-9.28-0.01-13.3c-2.72-2.66-5.9-5.14-9.34-6.69c-6.43-2.89-13.18-5.04-19.8-7.5
			c-0.33-0.05-0.67-0.11-1-0.16c-0.52-0.04-1.04-0.07-1.56-0.11c-0.54-0.15-1.08-0.3-1.62-0.46c-0.6-0.25-1.21-0.5-1.81-0.75
			c-0.35-0.06-0.69-0.11-1.04-0.17c-0.75-0.05-1.49-0.09-2.24-0.14c-0.56-0.14-1.11-0.29-1.67-0.43c-0.7-0.1-1.4-0.2-2.11-0.3
			c-0.55-0.15-1.1-0.29-1.65-0.44c-1.11-0.29-2.23-0.58-3.34-0.86c0,0-0.3-0.03-0.3-0.03c-1.39-0.23-2.78-0.45-4.16-0.68
			c-0.11-0.13-0.24-0.15-0.38-0.04c-2.12-0.27-4.23-0.54-6.35-0.81l-0.29-0.01c-1.84-0.25-3.67-0.51-5.51-0.76
			c7.35-8.97,14.96-17.74,22.01-26.94c17.3-22.57,35.08-44.82,49.01-69.78c18.06-32.36,27.79-66.75,25.83-104.11
			c-0.78-14.8-3.59-29.11-8.52-43.06C243.87,36.38,199.67,3.35,148.67,0.69C148.62,0.49,148.59,0.28,148.56,0.07z"/>
		<path class="st1" d="M97.69,328.53C83.27,310.24,68.65,292.1,54.5,273.6c-12.67-16.55-24.21-33.89-33.5-52.61
			c-9.95-20.03-16.77-41.11-19.21-63.32c-3.54-32.14,0.26-63.21,16.16-92.02C34.56,35.53,59.54,15.63,92.5,6.19
			c9.84-2.82,20.25-3.68,30.39-5.46c0.58-0.1,1.12-0.44,1.68-0.66c7,0,13.99,0,20.99,0c0,0.24-0.01,0.47-0.02,0.71
			c1.36,0.52,2.69,1.18,4.09,1.54c37.59,9.67,65.01,32,82.35,66.61c8.11,16.19,12.67,33.59,13.84,51.56
			c1.24,19.03,0,38.01-4.69,56.68c-5.92,23.57-15.62,45.47-29.1,65.57c-10.32,15.39-21.35,30.31-32.41,45.18
			c-7.57,10.17-15.64,19.96-23.67,29.77c-6.69,8.18-13.52,16.25-20.54,24.15c-4.03,4.54-8.22,9.1-14.49,10.73
			c-3.88-3.63-7.92-7.11-11.6-10.94C105.27,337.43,101.55,332.92,97.69,328.53z M151.37,234.63c0.55-0.16,1.09-0.32,1.64-0.48
			c2.78-0.67,5.62-1.18,8.34-2.04c40.46-12.84,64.21-40.23,71.3-82.08c0.17-0.77,0.34-1.55,0.51-2.32c0.07-1.48,0.13-2.96,0.2-4.44
			c0-4.25,0-8.5,0-12.74c-0.09-1.72-0.19-3.43-0.28-5.15c-0.16-0.78-0.31-1.57-0.47-2.35c-6.65-42.79-37.77-75.37-79.54-83.27
			c-0.77-0.19-1.54-0.38-2.32-0.57c-0.73-0.06-1.46-0.12-2.18-0.18c-1.03-0.18-2.05-0.36-3.08-0.54c-1.74-0.11-3.49-0.23-5.23-0.34
			c-3.46,0-6.91,0-10.37,0c-1.74,0.11-3.48,0.23-5.23,0.34c-1.03,0.18-2.05,0.35-3.08,0.53c-0.73,0.06-1.46,0.12-2.18,0.17
			c-0.77,0.19-1.55,0.38-2.32,0.57c-0.49,0.04-0.97,0.09-1.46,0.13c-0.76,0.21-1.52,0.42-2.29,0.62c-0.96,0.26-1.91,0.54-2.87,0.79
			c-16.34,4.27-30.71,12.12-42.97,23.75C52.01,79.72,42.4,97.63,38.27,118.52c-0.15,0.54-0.31,1.07-0.46,1.61
			c-0.11,1.21-0.22,2.42-0.33,3.63c-0.17,0.77-0.34,1.55-0.51,2.32c-0.07,1.48-0.13,2.96-0.2,4.44c0,4.25,0,8.5,0,12.75
			c0.07,1.48,0.13,2.96,0.2,4.44c0.18,1.02,0.37,2.04,0.55,3.06c0.09,0.96,0.19,1.93,0.28,2.89c0.15,0.54,0.31,1.07,0.46,1.61
			c0.28,1.74,0.56,3.48,0.84,5.22c0.18,0.49,0.36,0.98,0.54,1.47c4.48,15.82,11.89,30.04,23.15,42.11
			c14.82,15.88,32.97,25.79,54.27,29.97c0.77,0.19,1.54,0.38,2.31,0.57c0.73,0.06,1.46,0.12,2.19,0.17
			c1.03,0.18,2.05,0.36,3.08,0.54c1.74,0.12,3.49,0.23,5.23,0.35c3.45,0,6.91,0,10.36,0c1.5-0.09,3.01-0.19,4.51-0.28
			c1.27-0.2,2.53-0.4,3.8-0.6c0.79-0.15,1.58-0.29,2.37-0.44C151.05,234.47,151.2,234.57,151.37,234.63z"/>
		<path class="st2" d="M183.27,380.95c-1.61,0.23-3.23,0.45-4.84,0.68c-0.38,0.03-0.75,0.05-1.13,0.08
			c-1.86,0.15-3.71,0.3-5.57,0.45c-0.7,0.05-1.4,0.09-2.1,0.14c-2.05,0.2-4.09,0.4-6.14,0.6c-0.46,0.03-0.92,0.06-1.38,0.09
			c-1.79,0.14-3.57,0.27-5.36,0.41c-1.15-0.03-2.3-0.06-3.45-0.09c-2.58,0.21-5.16,0.42-7.74,0.63c-7.25,0-14.49,0-21.74,0
			c-2.12-0.18-4.24-0.37-6.36-0.55c-1.35,0-2.7,0-4.05,0c-0.76-0.12-1.51-0.24-2.27-0.36c0.7-0.19,1.39-0.48,2.1-0.56
			c13.92-1.53,27.91-2.62,41.76-4.67c12.09-1.79,23.75-5.43,34.6-11.35c11.62-6.34,12.63-16.3,1.53-22.42
			c-7.43-4.1-15.8-6.48-23.74-9.63c1.72-2,3.44-4,5.16-5.99c1.84,0.25,3.67,0.51,5.51,0.76c0,0,0.14,0.2,0.14,0.2l0.15-0.19
			c2.12,0.27,4.23,0.54,6.35,0.81c0,0,0.18,0.18,0.18,0.18s0.2-0.14,0.2-0.14c1.39,0.23,2.78,0.45,4.16,0.68
			c0,0,0.15,0.16,0.15,0.16l0.15-0.13c1.11,0.29,2.23,0.58,3.34,0.86c0.55,0.15,1.1,0.29,1.65,0.44c0.7,0.1,1.4,0.2,2.1,0.3
			c0.56,0.14,1.11,0.29,1.67,0.43c0.75,0.05,1.49,0.09,2.24,0.14c0.34,0.06,0.69,0.11,1.04,0.17c0.6,0.25,1.21,0.5,1.81,0.75
			c0.54,0.15,1.08,0.3,1.62,0.46c0.52,0.04,1.04,0.07,1.56,0.11c0.33,0.05,0.67,0.11,1,0.16c6.62,2.46,13.38,4.61,19.8,7.5
			c3.43,1.54,6.62,4.03,9.34,6.69c4.12,4.03,4.04,9.15,0.01,13.3c-2.14,2.21-4.68,4.17-7.36,5.67c-8.74,4.91-18.25,7.75-28.05,9.64
			c-0.56,0.15-1.12,0.29-1.68,0.44c-0.68,0.11-1.36,0.22-2.03,0.32c-0.57,0.14-1.14,0.29-1.71,0.43c-0.67,0.11-1.33,0.22-2,0.33
			c-0.59,0.14-1.17,0.27-1.76,0.41c-1.11,0.28-2.22,0.57-3.33,0.85c0,0-0.16-0.13-0.16-0.13s-0.16,0.17-0.16,0.17
			c-1.4,0.23-2.8,0.47-4.2,0.7C183.94,380.89,183.6,380.92,183.27,380.95z"/>
		<path class="st3" d="M145.56,383.93c2.58-0.21,5.16-0.42,7.74-0.63c-0.09,0.2-0.18,0.41-0.25,0.63
			C150.56,383.93,148.06,383.93,145.56,383.93z"/>
		<path class="st3" d="M117.46,383.38c2.12,0.18,4.24,0.37,6.36,0.55c-2,0-4,0-6,0C117.65,383.77,117.53,383.59,117.46,383.38z"/>
		<path class="st4" d="M117.46,383.38c0.07,0.21,0.19,0.4,0.36,0.55c-1.5,0-3,0-4.5,0c-0.02-0.19,0.01-0.37,0.08-0.55
			C114.76,383.38,116.11,383.38,117.46,383.38z"/>
		<path class="st4" d="M153.06,383.93c0.07-0.21,0.15-0.42,0.25-0.63c1.15,0.03,2.3,0.06,3.45,0.09c0.07,0.17,0.08,0.35,0.05,0.53
			C155.56,383.93,154.31,383.93,153.06,383.93z"/>
		<path class="st5" d="M145.54,0.78c0.01-0.24,0.01-0.47,0.02-0.71c1,0,2,0,3,0c0.03,0.21,0.06,0.41,0.11,0.62
			C147.63,0.72,146.59,0.75,145.54,0.78z"/>
		<path class="st3" d="M167.38,334.4c7.95,3.15,16.32,5.53,23.74,9.63c11.11,6.13,10.09,16.08-1.53,22.42
			c-10.85,5.92-22.51,9.56-34.6,11.35c-13.85,2.04-27.83,3.14-41.76,4.67c-0.71,0.08-1.4,0.37-2.1,0.56
			c-23.06-1.66-45.88-4.64-67.27-14.11c-3.7-1.64-7.27-3.92-10.34-6.56c-5.15-4.41-5.43-10.02-0.34-14.54
			c3.74-3.32,8.25-6.09,12.87-8.03c15.19-6.39,31.38-8.64,47.6-10.59c1.35-0.16,2.69-0.43,4.04-0.65c3.86,4.38,7.58,8.9,11.63,13.1
			c3.68,3.82,7.72,7.3,11.6,10.93c9.22,6.91,21.88,6.34,31.43-2.16C157.8,345.57,162.4,339.77,167.38,334.4z"/>
		<path class="st6" d="M167.38,334.4c-4.98,5.37-9.57,11.17-15.02,16.01c-9.56,8.5-22.22,9.07-31.43,2.16
			c6.27-1.63,10.46-6.19,14.49-10.72c7.02-7.9,13.85-15.97,20.54-24.15c8.03-9.81,16.1-19.61,23.67-29.77
			c11.06-14.87,22.09-29.79,32.41-45.18c13.48-20.1,23.18-42,29.1-65.57c4.69-18.67,5.94-37.65,4.69-56.68
			c-1.17-17.98-5.73-35.37-13.84-51.56c-17.33-34.61-44.76-56.94-82.35-66.61c-1.4-0.36-2.73-1.02-4.09-1.54
			c1.04-0.03,2.09-0.06,3.13-0.09c51,2.65,95.19,35.69,112.19,83.82c4.93,13.95,7.74,28.26,8.52,43.06
			c1.96,37.36-7.77,71.75-25.83,104.11c-13.92,24.95-31.7,47.21-49.01,69.78c-7.05,9.2-14.66,17.97-22.01,26.94
			C170.82,330.4,169.1,332.4,167.38,334.4z"/>
		<path class="st3" d="M169.62,382.3c0.7-0.05,1.4-0.09,2.1-0.14C171.03,382.2,170.33,382.25,169.62,382.3z"/>
		<path class="st4" d="M183.27,380.95c0.33-0.03,0.67-0.05,1-0.08C183.93,380.89,183.6,380.92,183.27,380.95z"/>
		<path class="st3" d="M194.52,332.03c-0.55-0.15-1.1-0.29-1.65-0.44C193.42,331.74,193.97,331.89,194.52,332.03z"/>
		<path class="st3" d="M198.29,332.77c-0.56-0.14-1.11-0.29-1.67-0.43C197.18,332.48,197.74,332.63,198.29,332.77z"/>
		<path class="st4" d="M201.57,333.08c-0.35-0.06-0.69-0.11-1.04-0.17C200.88,332.97,201.22,333.03,201.57,333.08z"/>
		<path class="st4" d="M207.56,334.56c-0.33-0.05-0.67-0.11-1-0.16C206.89,334.45,207.23,334.5,207.56,334.56z"/>
		<path class="st3" d="M199.62,377.79c0.56-0.15,1.12-0.29,1.68-0.44C200.74,377.5,200.18,377.65,199.62,377.79z"/>
		<path class="st3" d="M195.87,378.55c0.57-0.14,1.14-0.29,1.71-0.43C197.02,378.26,196.44,378.4,195.87,378.55z"/>
		<path class="st3" d="M192.12,379.29c0.59-0.14,1.17-0.27,1.76-0.41C193.29,379.01,192.7,379.15,192.12,379.29z"/>
		<path class="st3" d="M205,334.29c-0.54-0.15-1.08-0.31-1.62-0.46C203.92,333.98,204.46,334.14,205,334.29z"/>
		<path class="st4" d="M177.3,381.71c0.38-0.03,0.76-0.05,1.13-0.08C178.05,381.65,177.67,381.68,177.3,381.71z"/>
		<path class="st3" d="M162.11,382.98c0.46-0.03,0.92-0.06,1.38-0.09C163.03,382.93,162.57,382.95,162.11,382.98z"/>
		<polygon class="st4" points="188.47,380.17 188.63,380 188.78,380.14 		"/>
		<polygon class="st4" points="178.33,329.17 178.18,329.37 178.04,329.16 		"/>
		<polygon class="st4" points="189.53,330.73 189.37,330.87 189.22,330.7 		"/>
		<path class="st4" d="M185.06,330.03l-0.2,0.14c0,0-0.18-0.18-0.18-0.18C184.82,329.88,184.95,329.9,185.06,330.03z"/>
		<path class="st7" d="M37.81,153.66c-0.09-0.96-0.19-1.93-0.28-2.89c-0.18-1.02-0.37-2.04-0.55-3.06c-0.07-1.48-0.13-2.96-0.2-4.44
			c0-4.25,0-8.5,0-12.75c0.07-1.48,0.13-2.96,0.2-4.44c0.17-0.77,0.34-1.55,0.51-2.32c0.11-1.21,0.22-2.42,0.32-3.63
			c0.15-0.54,0.31-1.07,0.46-1.61c4.13-20.89,13.74-38.8,29.21-53.48c12.26-11.63,26.63-19.48,42.97-23.75
			c0.96-0.25,1.92-0.52,2.87-0.79c0.76-0.21,1.52-0.42,2.29-0.62c0.49-0.04,0.97-0.09,1.46-0.13c0.77-0.19,1.55-0.38,2.32-0.57
			c0.73-0.06,1.46-0.12,2.18-0.17c1.03-0.18,2.05-0.35,3.08-0.53c1.74-0.11,3.48-0.23,5.22-0.34c3.46,0,6.91,0,10.37,0
			c1.74,0.11,3.49,0.23,5.23,0.34c1.03,0.18,2.05,0.36,3.08,0.54c0.73,0.06,1.46,0.12,2.18,0.17c0.77,0.19,1.54,0.38,2.32,0.57
			c41.77,7.9,72.89,40.48,79.54,83.27c0.16,0.78,0.31,1.57,0.47,2.35c0.09,1.72,0.19,3.43,0.28,5.15c0,4.25,0,8.5,0,12.74
			c-0.07,1.48-0.13,2.96-0.2,4.44c-0.17,0.77-0.34,1.55-0.51,2.32c-7.09,41.85-30.83,69.24-71.3,82.08
			c-2.72,0.86-5.56,1.37-8.34,2.04c-0.46-0.05-0.93-0.09-1.39-0.14c-0.23,0.11-0.47,0.22-0.7,0.33c-0.79,0.15-1.58,0.29-2.37,0.44
			c-1.27,0.2-2.53,0.4-3.8,0.6c-1.5,0.09-3.01,0.19-4.51,0.28c-3.45,0-6.91,0-10.36,0c-1.74-0.12-3.49-0.23-5.23-0.34
			c-1.03-0.18-2.05-0.36-3.08-0.54c-0.73-0.06-1.46-0.12-2.19-0.17c-0.77-0.19-1.54-0.38-2.31-0.57
			c-21.3-4.18-39.45-14.09-54.27-29.97C51.54,192,44.13,177.77,39.65,161.96c-0.18-0.49-0.36-0.98-0.54-1.47
			c-0.28-1.74-0.56-3.48-0.84-5.22C38.12,154.73,37.96,154.2,37.81,153.66z M181.58,132.92c-1.92-1.03-3.81-2.88-5.76-2.94
			c-8.1-0.27-16.21,0-24.32,0.08c-22.19-0.02-44.37-0.06-66.56-0.03c-4.55,0.01-6.28,1.84-6.18,6.47
			c0.4,18.26,6.57,34.29,18.7,47.99c-4.11,0.04-8.23,0.05-12.34,0.13c-4.91,0.09-7.29,2.14-7.21,6.11c0.08,3.8,2.43,5.72,7.15,5.72
			c30.55,0.01,61.09,0.01,91.64,0c4.93,0,7.34-1.98,7.33-5.93c0-3.9-2.41-5.84-7.42-5.91c-4.49-0.06-8.98-0.05-13.46-0.07
			c1.62-2,3.25-4,4.87-6c12.63,0.62,24.01-2.52,33.04-11.77c6.4-6.56,7.48-14.43,4.07-22.81c-3.31-8.15-9.59-11.74-18.32-11.16
			C185.07,132.92,183.33,132.89,181.58,132.92z M125.37,104.51c-1.01-3.3-1.76-6.7-3.07-9.87c-3.35-8.15-3.46-8.12,2.82-14.4
			c2.4-2.4,2.6-5.14,0.84-7.79c-1.81-2.72-4.67-2.75-7.38-1.56c-6.97,3.06-11.58,12.04-9.86,19.57c0.8,3.49,2.15,6.88,3.56,10.18
			c1.22,2.85,1.54,4.98-1.55,7c-2.97,1.94-3.32,5.18-1.48,7.86c1.75,2.54,5.18,3.37,7.96,1.63
			C121.78,114.29,125,110.51,125.37,104.51z M159.25,68.58c-1.35-1.63-2.36-4.01-3.93-4.45c-1.94-0.55-4.93-0.23-6.43,0.99
			c-4.58,3.74-7.76,8.63-7.15,14.89c0.39,4.04,1.36,8.06,2.39,12.01c0.93,3.53,2.17,6.65-1.27,9.85c-2.16,2.01-1.8,5.2,0.32,7.48
			c2.01,2.16,4.75,2.56,7.14,0.85c3.77-2.69,6.86-6.21,6.47-11.15c-0.35-4.41-1.19-8.87-2.52-13.08c-1.53-4.85-1.51-8.94,2.47-12.63
			C157.81,72.32,158.21,70.61,159.25,68.58z"/>
		<path class="st6" d="M36.77,130.52c0,4.25,0,8.5,0,12.75C36.77,139.02,36.77,134.77,36.77,130.52z"/>
		<path class="st6" d="M233.35,143.27c0-4.25,0-8.5,0-12.74C233.35,134.77,233.35,139.02,233.35,143.27z"/>
		<path class="st5" d="M140.25,38.14c-3.46,0-6.91,0-10.37,0C133.34,38.14,136.79,38.14,140.25,38.14z"/>
		<path class="st5" d="M129.88,235.66c3.45,0,6.91,0,10.36,0C136.79,235.66,133.34,235.66,129.88,235.66z"/>
		<path class="st6" d="M144.76,235.38c1.27-0.2,2.53-0.4,3.8-0.6C147.29,234.98,146.02,235.18,144.76,235.38z"/>
		<path class="st6" d="M148.56,39.01c-1.03-0.18-2.05-0.36-3.08-0.54C146.5,38.66,147.53,38.84,148.56,39.01z"/>
		<path class="st6" d="M124.65,38.48c-1.03,0.18-2.05,0.35-3.08,0.53C122.6,38.84,123.63,38.66,124.65,38.48z"/>
		<path class="st6" d="M36.97,147.71c0.18,1.02,0.37,2.04,0.55,3.06C37.34,149.75,37.16,148.73,36.97,147.71z"/>
		<path class="st6" d="M121.57,234.78c1.03,0.18,2.05,0.36,3.08,0.54C123.62,235.14,122.6,234.96,121.57,234.78z"/>
		<path class="st6" d="M119.39,39.19c-0.77,0.19-1.55,0.38-2.32,0.57C117.84,39.57,118.62,39.38,119.39,39.19z"/>
		<path class="st6" d="M153.06,39.76c-0.77-0.19-1.54-0.38-2.32-0.57C151.51,39.38,152.29,39.57,153.06,39.76z"/>
		<path class="st6" d="M115.61,39.88c-0.76,0.21-1.52,0.42-2.29,0.62C114.08,40.3,114.85,40.09,115.61,39.88z"/>
		<path class="st6" d="M233.07,125.38c-0.16-0.78-0.32-1.57-0.47-2.35C232.75,123.81,232.91,124.59,233.07,125.38z"/>
		<path class="st6" d="M37.48,123.77c-0.17,0.77-0.34,1.55-0.51,2.32C37.14,125.31,37.31,124.54,37.48,123.77z"/>
		<path class="st6" d="M232.64,150.03c0.17-0.77,0.34-1.55,0.51-2.32C232.98,148.48,232.81,149.25,232.64,150.03z"/>
		<path class="st6" d="M117.07,234.04c0.77,0.19,1.54,0.38,2.31,0.57C118.61,234.42,117.84,234.23,117.07,234.04z"/>
		<path class="st6" d="M37.81,153.66c0.15,0.54,0.31,1.07,0.46,1.61C38.11,154.73,37.96,154.19,37.81,153.66z"/>
		<path class="st6" d="M38.27,118.52c-0.16,0.54-0.31,1.07-0.46,1.61C37.96,119.6,38.11,119.06,38.27,118.52z"/>
		<path class="st5" d="M151.62,234c0.46,0.05,0.93,0.09,1.39,0.14c-0.55,0.16-1.09,0.32-1.64,0.48
			C151.46,234.42,151.54,234.21,151.62,234z"/>
		<path class="st5" d="M39.11,160.49c0.18,0.49,0.36,0.98,0.54,1.47C39.47,161.47,39.29,160.98,39.11,160.49z"/>
		<path class="st8" d="M151.62,234c-0.08,0.21-0.16,0.42-0.25,0.62c-0.17-0.06-0.32-0.15-0.45-0.29
			C151.16,234.23,151.39,234.12,151.62,234z"/>
		<path class="st9" d="M97.46,184.49c-12.13-13.7-18.3-29.73-18.7-47.99c-0.1-4.63,1.64-6.46,6.18-6.47
			c22.19-0.03,44.37,0.01,66.56,0.03c3.85,4.96,2.66,10.69,1.87,16.04c-2.13,14.43-8.24,27.19-17.59,38.38
			C123.01,184.48,110.24,184.48,97.46,184.49z"/>
		<path class="st4" d="M135.78,184.48c9.35-11.2,15.46-23.96,17.59-38.38c0.79-5.35,1.97-11.08-1.87-16.04
			c8.11-0.07,16.23-0.35,24.32-0.08c1.95,0.06,3.84,1.91,5.76,2.94c0,3.89-0.01,7.78-0.01,11.67c-2.26,7.32-4.52,14.64-6.78,21.95
			c-2.25,4-4.51,8-6.76,12c-1.62,2-3.25,4-4.87,6C154.03,184.52,144.91,184.5,135.78,184.48z"/>
		<path class="st1" d="M135.78,184.48c9.13,0.02,18.25,0.04,27.38,0.06c4.49,0.02,8.97,0.01,13.46,0.07
			c5.01,0.07,7.42,2.01,7.42,5.91c0,3.95-2.41,5.93-7.33,5.93c-30.55,0.01-61.09,0.01-91.64,0c-4.72,0-7.07-1.92-7.15-5.72
			c-0.09-3.97,2.29-6.02,7.21-6.11c4.11-0.08,8.23-0.09,12.34-0.13C110.24,184.48,123.01,184.48,135.78,184.48z"/>
		<path class="st9" d="M168.02,178.55c2.25-4,4.51-8,6.76-12c7.28-0.3,13.48-3.05,18.4-8.41c2.77-3.02,2.33-6.59,1.01-10.14
			c-1.26-3.39-4.06-3.52-7.05-3.37c-1.85,0.09-3.72-0.02-5.58-0.04c0-3.89,0.01-7.78,0.01-11.67c1.74-0.03,3.49,0,5.23-0.11
			c8.74-0.57,15.01,3.02,18.32,11.16c3.41,8.38,2.33,16.25-4.07,22.81C192.03,176.03,180.66,179.17,168.02,178.55z"/>
		<path class="st4" d="M125.37,104.51c-0.37,6-3.59,9.78-8.15,12.63c-2.78,1.73-6.22,0.91-7.96-1.63c-1.84-2.67-1.49-5.91,1.48-7.86
			c3.09-2.02,2.77-4.15,1.55-7c-1.41-3.3-2.76-6.69-3.56-10.18c-1.72-7.53,2.89-16.51,9.86-19.57c2.71-1.19,5.57-1.15,7.38,1.56
			c1.76,2.65,1.57,5.38-0.84,7.79c-6.28,6.28-6.17,6.25-2.82,14.4C123.6,97.81,124.36,101.21,125.37,104.51z"/>
		<path class="st4" d="M159.25,68.58c-1.04,2.03-1.44,3.75-2.51,4.74c-3.97,3.69-4,7.78-2.47,12.63c1.33,4.21,2.17,8.67,2.52,13.08
			c0.39,4.94-2.7,8.46-6.47,11.15c-2.4,1.71-5.13,1.3-7.14-0.85c-2.12-2.28-2.48-5.46-0.32-7.48c3.45-3.21,2.2-6.33,1.27-9.85
			c-1.04-3.94-2-7.96-2.39-12.01c-0.61-6.25,2.57-11.15,7.15-14.89c1.49-1.22,4.49-1.54,6.43-0.99
			C156.89,64.57,157.9,66.95,159.25,68.58z"/>
		<path class="st8" d="M181.57,144.59c1.86,0.02,3.72,0.13,5.58,0.04c2.99-0.15,5.79-0.02,7.05,3.37c1.32,3.54,1.76,7.11-1.01,10.14
			c-4.92,5.36-11.12,8.11-18.4,8.41C177.05,159.23,179.31,151.91,181.57,144.59z"/>
	</g>
</g>
</svg>
