<?xml version="1.0" encoding="utf-8"?>
<!-- Generator: Adobe Illustrator 27.1.1, SVG Export Plug-In . SVG Version: 6.00 Build 0)  -->
<svg version="1.1" id="Layer_1" xmlns="http://www.w3.org/2000/svg" xmlns:xlink="http://www.w3.org/1999/xlink" x="0px" y="0px"
	 viewBox="0 0 297.4 323.9" style="enable-background:new 0 0 297.4 323.9;" xml:space="preserve">
<style type="text/css">
	.st0{fill:#CECECE;}
	.st1{fill:#EFEFEF;}
	.st2{fill:#CFCFCF;}
</style>
<path class="st0" d="M153.3,323.8c-14.5,0-28.9,0-43.4,0c0.2-2.2,0.5-4.4,0.7-6.6c0.8-9.9,1.5-19.8,2.4-29.7
	c1.1-12.9,2.4-25.7,3.6-38.5c0.7-7,1.5-14.1,2.1-21.1c0.7-8.2,1.1-16.4,1.7-24.6c0.2-2.6-0.9-3.2-3.3-3.1
	c-5.1,0.1-10.3,0.4-15.4-0.1c-4.2-0.4-5.4,1.6-6.1,5.1c-3.3,15.9-6.6,31.9-10,47.7c-5.1,23.7-10.4,47.3-15.6,70.9
	c-11.9,0-23.7-0.1-35.6,0.1c-2.9,0-3.3-0.8-2.5-3.4c6.3-20.8,12.5-41.7,18.6-62.6c6.7-22.8,13.2-45.5,19.8-68.3
	c0.3-1.1,0.4-2.5,0-3.6c-4.7-16.4-9.5-32.7-14.3-49C52.1,123.2,48,109.4,44,95.6c-0.2-0.6-0.1-1.2-0.2-1.9
	c-1.2-4.3-2.4-8.6-3.7-12.9c-2.9-9.5-6-18.9-9-28.4c1-0.3,2-0.6,3-0.8c10.6,0,21.2,0.1,31.9,0.1c2.2,0,3.2,0.4,3.6,2.9
	c0.8,5.5,2.2,10.9,3.4,16.4c3.3,14.8,6.6,29.6,9.8,44.4c4.1,19.1,8.2,38.1,12.2,57.2c0.5,2.2,1.6,2.9,3.9,2.9
	c6.1,0,12.2,0.4,18.3,0.5c0.8,0,2.3-1.5,2.2-2.3c-0.3-6.6-0.9-13.1-1.5-19.7c-1.4-15.8-2.9-31.7-4.4-47.5
	c-0.6-6.6-1.1-13.1-1.7-19.7c-0.9-10.5-1.8-21-2.9-31.5c-0.3-2.8,0.7-3.7,3.5-3.6c10.6,0.2,21.2,0.1,31.9,0.1c7.5,0,7.7,0,7.3,7.1
	c-0.6,9.5-1.5,19.1-2.3,28.6c-1.2,13.1-2.4,26.2-3.6,39.3c-0.6,6.8-1.1,13.6-1.7,20.4c-0.7,8.4-1.4,16.8-2.1,25.2
	c-0.2,2.3,0.7,3.1,3,3.1c5.4-0.1,10.8-0.3,16.1,0.1c3.3,0.2,4.7-1.1,5.4-4.1c4.6-21.3,9.2-42.5,13.8-63.7
	c3.8-17.5,7.6-34.9,11.4-52.4c0.6-2.8,1.9-3.7,4.8-3.6c10.6,0.2,21.2,0,31.9,0c1.2,0.1,2.5,0.1,3.7,0.2c1.2,0.5,2.5,1.3,3.7,1.4
	c9.5,0.1,19,0.1,28.5,0.1c11,28.5,22,56.9,33,85.4c0.4,0.9,0.1,2.4-0.5,3.3c-8.4,12.7-16.9,25.3-25.4,37.9
	c-2.8,4.1-7.8,5.1-11.4,2.7c-3.6-2.5-4.5-7.4-1.6-11.7c6-8.9,12.1-17.7,18.5-26.3c2.4-3.2,2.8-6,1.3-9.6
	c-8.9-21.8-17.7-43.7-26.6-65.4c-0.5-1.2-2.3-2.6-3.6-2.7c-6.1-0.3-12.2-0.3-18.4,0c-1.2,0.1-3,1.3-3.4,2.4
	c-6.4,21.5-12.7,43-19,64.5c-5,17.1-10,34.1-14.9,51.2c-0.5,1.7-0.6,3.7-0.1,5.4c7,24.5,14,48.9,21.2,73.4
	c5.5,18.9,11.1,37.7,16.8,56.5c0.9,2.8,0.8,3.9-2.6,3.8c-11.5-0.2-23-0.1-34.5-0.1c-2-9.8-3.8-19.7-5.9-29.5
	c-3.2-14.8-6.6-29.5-9.9-44.3c-3.4-15.8-6.6-31.6-10.1-47.3c-0.2-1-1.7-2.3-2.7-2.4c-6.5-0.2-13-0.2-19.5,0c-0.8,0-2.3,1.6-2.2,2.3
	c0.6,9.2,1.4,18.3,2.3,27.4c1.2,13,2.4,25.9,3.6,38.9c0.6,6.5,1.1,13.1,1.6,19.7C151.4,300.3,152.4,312.1,153.3,323.8L153.3,323.8z"
	/>
<path class="st1" d="M228.3,51.6c-10.6,0-21.2,0.2-31.9,0c-2.9-0.1-4.2,0.8-4.8,3.6c-3.7,17.5-7.6,34.9-11.4,52.4
	c-4.6,21.2-9.2,42.5-13.8,63.7c-0.6,3-2.1,4.3-5.4,4.1c-5.4-0.3-10.7-0.2-16.1-0.1c-2.3,0.1-3.2-0.8-3-3.1
	c0.7-8.4,1.4-16.8,2.1-25.2c0.6-6.8,1.1-13.6,1.7-20.4c1.2-13.1,2.5-26.2,3.6-39.3c0.9-9.5,1.8-19.1,2.3-28.6
	c0.4-7.1,0.2-7.1-7.3-7.1c-10.6,0-21.2,0.1-31.9-0.1c-2.8,0-3.8,0.9-3.5,3.6c1,10.5,1.9,21,2.9,31.5c0.6,6.6,1.1,13.1,1.7,19.7
	c1.4,15.8,2.9,31.7,4.4,47.5c0.6,6.6,1.1,13.1,1.5,19.7c0,0.8-1.4,2.3-2.2,2.3c-6.1,0-12.2-0.4-18.3-0.5c-2.3,0-3.4-0.7-3.9-2.9
	c-4.1-19.1-8.1-38.1-12.2-57.2C79.6,100.6,76.2,85.8,73,71c-1.2-5.4-2.6-10.9-3.4-16.4c-0.4-2.5-1.4-3-3.6-2.9
	c-10.6,0.1-21.2,0-31.9-0.1c1-0.8,2-1.8,3.1-2.2c29.1-11.8,58.2-23.5,87.3-35.2c0.4-0.2,0.8-0.5,1.2-0.8c3.7-1.1,7.5-2.3,11.2,0.1
	C166.2,25.3,195.6,37.1,225,49C226.2,49.5,227.2,50.7,228.3,51.6L228.3,51.6z"/>
<path class="st1" d="M153.3,323.8c-0.9-11.8-1.9-23.5-2.8-35.2c-0.5-6.6-1.1-13.1-1.6-19.7c-1.2-13-2.4-25.9-3.6-38.9
	c-0.8-9.1-1.6-18.3-2.3-27.4c-0.1-0.8,1.4-2.3,2.2-2.3c6.5-0.2,13-0.2,19.5,0c0.9,0,2.4,1.4,2.7,2.4c3.4,15.8,6.6,31.6,10.1,47.3
	c3.2,14.8,6.7,29.5,9.9,44.3c2.1,9.8,3.9,19.7,5.9,29.5C179.9,323.8,166.6,323.8,153.3,323.8L153.3,323.8z"/>
<path class="st1" d="M70,323.8c5.2-23.6,10.4-47.3,15.6-70.9c3.4-15.9,6.7-31.8,10-47.7c0.7-3.5,1.9-5.5,6.1-5.1
	c5.1,0.4,10.2,0.2,15.4,0.1c2.4-0.1,3.5,0.6,3.3,3.1c-0.6,8.2-1.1,16.4-1.7,24.5c-0.6,7-1.4,14.1-2.1,21.1
	c-1.2,12.8-2.5,25.7-3.6,38.5c-0.9,9.9-1.6,19.8-2.4,29.7c-0.2,2.2-0.4,4.4-0.7,6.6C96.6,323.8,83.3,323.8,70,323.8L70,323.8z"/>
<path class="st1" d="M31.1,52.4c3,9.5,6,18.9,9,28.4c1.3,4.3,2.5,8.6,3.7,12.9c-7.4-5.1-15.4-9.6-22.2-15.5C14.4,72,8.5,64.4,2,57.4
	c-0.5-0.5-0.9-1.2-1.2-1.9c-0.3-0.8-0.5-1.8-0.8-2.6c0.8,0,1.7-0.2,2.5-0.1c2.3,0.3,4.7,0.6,7,1.2C16.8,55.8,23.9,53.4,31.1,52.4
	L31.1,52.4z"/>
<path class="st2" d="M136.8,13.5c-3.7-2.4-7.4-1.2-11.2-0.1c0.2-3.1,0.3-6.2,0.7-9.2c0.4-2.8,2.4-4.4,5.3-4.1
	c2.9,0.3,5.1,1.9,5.2,5.2C136.9,8,136.8,10.7,136.8,13.5L136.8,13.5z"/>
<path class="st2" d="M264.2,53.2c-9.5,0-19,0.1-28.5-0.1c-1.2,0-2.5-0.9-3.7-1.4c9.8,0,19.6-0.1,29.3,0
	C262.3,51.8,263.3,52.7,264.2,53.2L264.2,53.2z"/>
</svg>
