<?xml version="1.0" encoding="UTF-8"?>
<svg id="Layer_1" data-name="Layer 1" xmlns="http://www.w3.org/2000/svg" viewBox="0 0 384 384">
  <defs>
    <style>
      .cls-1 {
        fill: #fff;
      }

      .cls-2 {
        fill: #cfcfcf;
      }

      .cls-3 {
        fill: #efefef;
      }

      .cls-4 {
        fill: #cecece;
      }
    </style>
  </defs>
  <path class="cls-1" d="m.07,191.63C.07,128.77.09,65.92,0,3.07,0,.5.5,0,3.07,0c125.95.08,251.91.08,377.86,0,2.57,0,3.07.5,3.07,3.07-.08,125.95-.08,251.91,0,377.86,0,2.57-.5,3.07-3.07,3.07-125.95-.08-251.91-.08-377.86,0-2.57,0-3.07-.5-3.07-3.07.09-63.1.07-126.2.07-189.3ZM180.77,43.56c0-2.72.07-5.45,0-8.17-.08-3.34-2.29-4.9-5.22-5.23-2.84-.32-4.84,1.26-5.26,4.11-.45,3.04-.49,6.13-.71,9.2-.4.28-.76.64-1.2.82-29.09,11.73-58.2,23.43-87.28,35.19-1.15.47-2.08,1.48-3.11,2.23-.99.28-1.97.56-2.96.84-7.19,1.01-14.27,3.35-21.68,1.53-2.28-.56-4.62-.86-6.95-1.18-.8-.11-1.65.06-2.47.11.24.88.4,1.8.75,2.63.28.67.73,1.32,1.23,1.86,6.47,7.01,12.45,14.58,19.59,20.82,6.76,5.9,14.74,10.4,22.18,15.52.06.62.02,1.27.19,1.86,4.06,13.8,8.15,27.59,12.2,41.39,4.8,16.34,9.59,32.68,14.31,49.04.32,1.12.28,2.49-.04,3.62-6.56,22.79-13.13,45.58-19.81,68.33-6.13,20.88-12.34,41.73-18.62,62.57-.79,2.62-.42,3.41,2.48,3.37,11.85-.15,23.71-.08,35.57-.09,13.28,0,26.57-.02,39.85-.02,14.47.02,28.93.03,43.4.05,13.28-.02,26.56-.05,39.85-.07,11.49.03,22.98-.06,34.47.15,3.41.06,3.49-.97,2.63-3.8-5.7-18.8-11.3-37.62-16.82-56.48-7.14-24.43-14.2-48.89-21.19-73.37-.47-1.66-.39-3.7.09-5.38,4.89-17.09,9.93-34.14,14.92-51.2,6.29-21.49,12.53-43,18.96-64.45.33-1.09,2.17-2.39,3.35-2.43,6.11-.24,12.24-.26,18.35.03,1.27.06,3.09,1.45,3.59,2.67,8.96,21.78,17.7,43.65,26.64,65.44,1.5,3.65,1.08,6.42-1.28,9.62-6.37,8.61-12.48,17.43-18.49,26.3-2.91,4.3-2.05,9.15,1.57,11.66,3.55,2.46,8.58,1.44,11.38-2.69,8.56-12.57,17.01-25.22,25.41-37.9.56-.85.81-2.37.46-3.29-10.93-28.5-21.95-56.97-32.96-85.44-.95-.5-1.9-1.43-2.86-1.44-9.78-.08-19.56-.02-29.34,0-1.24-.06-2.48-.11-3.71-.17-1.11-.88-2.1-2.09-3.36-2.6-29.36-11.89-58.74-23.71-88.13-35.54Z"/>
  <path class="cls-4" d="m197.23,353.93c-14.47-.02-28.93-.03-43.4-.05.23-2.22.49-4.43.67-6.65.8-9.9,1.5-19.81,2.38-29.71,1.14-12.85,2.4-25.7,3.63-38.54.67-7.04,1.49-14.06,2.07-21.11.67-8.17,1.09-16.37,1.71-24.55.2-2.56-.91-3.2-3.27-3.14-5.12.13-10.27.37-15.35-.06-4.18-.36-5.41,1.65-6.12,5.13-3.27,15.93-6.57,31.85-10.01,47.74-5.12,23.66-10.37,47.29-15.56,70.93-11.86.01-23.71-.06-35.57.09-2.9.04-3.27-.75-2.48-3.37,6.28-20.83,12.49-41.69,18.62-62.57,6.68-22.76,13.25-45.54,19.81-68.33.32-1.13.37-2.5.04-3.62-4.72-16.36-9.51-32.7-14.31-49.04-4.06-13.8-8.15-27.59-12.2-41.39-.17-.59-.13-1.24-.19-1.86-1.22-4.3-2.36-8.63-3.68-12.9-2.94-9.48-5.97-18.92-8.96-28.38.99-.28,1.97-.56,2.96-.84,10.62.03,21.24.11,31.86.05,2.22-.01,3.24.43,3.63,2.95.85,5.51,2.2,10.94,3.4,16.39,3.27,14.8,6.62,29.58,9.84,44.39,4.13,19.05,8.16,38.12,12.21,57.19.47,2.2,1.63,2.91,3.92,2.91,6.1.02,12.19.45,18.29.47.78,0,2.26-1.54,2.23-2.3-.34-6.57-.9-13.14-1.49-19.69-1.43-15.83-2.93-31.65-4.37-47.47-.6-6.56-1.1-13.12-1.68-19.68-.93-10.51-1.84-21.02-2.85-31.53-.27-2.78.7-3.68,3.53-3.64,10.62.15,21.24.06,31.86.06,7.51,0,7.74.01,7.32,7.13-.56,9.55-1.46,19.08-2.31,28.6-1.16,13.11-2.44,26.21-3.62,39.31-.61,6.8-1.15,13.62-1.71,20.43-.69,8.42-1.35,16.84-2.08,25.25-.2,2.27.67,3.1,2.97,3.05,5.37-.12,10.76-.27,16.11.05,3.33.2,4.74-1.09,5.39-4.13,4.55-21.26,9.16-42.5,13.77-63.74,3.79-17.47,7.64-34.93,11.37-52.42.6-2.84,1.9-3.66,4.81-3.61,10.61.18,21.24.02,31.85-.01,1.24.06,2.48.11,3.71.16,1.24.48,2.48,1.35,3.72,1.36,9.49.12,18.98.06,28.48.06,11.01,28.47,22.03,56.94,32.96,85.44.35.92.11,2.45-.46,3.29-8.4,12.68-16.85,25.33-25.41,37.9-2.81,4.12-7.83,5.15-11.38,2.69-3.62-2.51-4.49-7.36-1.57-11.66,6.01-8.87,12.12-17.69,18.49-26.3,2.36-3.19,2.78-5.96,1.28-9.62-8.94-21.79-17.68-43.66-26.64-65.44-.5-1.22-2.33-2.61-3.59-2.67-6.11-.28-12.24-.27-18.35-.03-1.18.05-3.02,1.35-3.35,2.43-6.43,21.45-12.68,42.96-18.96,64.45-4.99,17.06-10.02,34.11-14.92,51.2-.48,1.68-.56,3.72-.09,5.38,6.98,24.48,14.04,48.94,21.19,73.37,5.51,18.85,11.11,37.68,16.82,56.48.86,2.84.78,3.87-2.63,3.8-11.49-.21-22.98-.12-34.47-.15-1.96-9.84-3.79-19.7-5.91-29.5-3.19-14.8-6.65-29.54-9.85-44.34-3.41-15.76-6.61-31.57-10.05-47.33-.21-.97-1.72-2.34-2.66-2.37-6.48-.21-12.98-.2-19.46,0-.81.02-2.3,1.58-2.25,2.34.62,9.16,1.43,18.31,2.26,27.45,1.17,12.97,2.41,25.93,3.59,38.9.59,6.55,1.12,13.11,1.65,19.67.95,11.75,1.89,23.49,2.83,35.24Z"/>
  <path class="cls-3" d="m272.26,81.7c-10.62.03-21.24.19-31.85.01-2.91-.05-4.21.77-4.81,3.61-3.72,17.49-7.58,34.94-11.37,52.42-4.61,21.24-9.22,42.49-13.77,63.74-.65,3.04-2.06,4.33-5.39,4.13-5.35-.32-10.74-.17-16.11-.05-2.31.05-3.17-.78-2.97-3.05.73-8.41,1.38-16.83,2.08-25.25.56-6.81,1.09-13.62,1.71-20.43,1.18-13.11,2.46-26.2,3.62-39.31.85-9.53,1.75-19.06,2.31-28.6.42-7.11.19-7.13-7.32-7.13-10.62,0-21.24.09-31.86-.06-2.83-.04-3.79.86-3.53,3.64,1.01,10.5,1.92,21.02,2.85,31.53.58,6.56,1.08,13.13,1.68,19.68,1.44,15.83,2.94,31.65,4.37,47.47.59,6.56,1.15,13.12,1.49,19.69.04.76-1.45,2.31-2.23,2.3-6.1-.01-12.19-.44-18.29-.47-2.28,0-3.45-.71-3.92-2.91-4.05-19.07-8.08-38.14-12.21-57.19-3.21-14.81-6.57-29.59-9.84-44.39-1.2-5.45-2.55-10.88-3.4-16.39-.39-2.52-1.41-2.96-3.63-2.95-10.62.06-21.24-.02-31.86-.05,1.03-.76,1.96-1.77,3.11-2.23,29.08-11.76,58.18-23.46,87.28-35.19.44-.18.8-.54,1.2-.82,3.73-1.09,7.47-2.27,11.18.1,29.38,11.83,58.77,23.65,88.13,35.54,1.26.51,2.25,1.72,3.36,2.6Z"/>
  <path class="cls-3" d="m197.23,353.93c-.94-11.75-1.88-23.49-2.83-35.24-.53-6.56-1.05-13.12-1.65-19.67-1.17-12.97-2.42-25.93-3.59-38.9-.83-9.14-1.64-18.29-2.26-27.45-.05-.76,1.44-2.32,2.25-2.34,6.48-.19,12.98-.21,19.46,0,.94.03,2.45,1.39,2.66,2.37,3.44,15.76,6.64,31.56,10.05,47.33,3.2,14.8,6.66,29.54,9.85,44.34,2.11,9.8,3.95,19.67,5.91,29.5-13.28.02-26.56.05-39.85.07Z"/>
  <path class="cls-3" d="m113.98,353.91c5.19-23.64,10.44-47.27,15.56-70.93,3.44-15.89,6.74-31.81,10.01-47.74.71-3.48,1.95-5.49,6.12-5.13,5.08.44,10.23.2,15.35.06,2.36-.06,3.46.59,3.27,3.14-.63,8.18-1.05,16.37-1.71,24.55-.57,7.05-1.39,14.07-2.07,21.11-1.23,12.85-2.49,25.69-3.63,38.54-.88,9.9-1.58,19.81-2.38,29.71-.18,2.22-.44,4.44-.67,6.65-13.28,0-26.57.01-39.85.02Z"/>
  <path class="cls-3" d="m75.05,82.54c2.99,9.46,6.02,18.91,8.96,28.38,1.32,4.27,2.46,8.6,3.68,12.9-7.44-5.12-15.42-9.62-22.18-15.52-7.14-6.24-13.12-13.81-19.59-20.82-.5-.54-.94-1.19-1.23-1.86-.35-.83-.51-1.75-.75-2.63.83-.04,1.67-.22,2.47-.11,2.33.32,4.67.62,6.95,1.18,7.41,1.82,14.49-.51,21.68-1.53Z"/>
  <path class="cls-2" d="m180.77,43.56c-3.71-2.37-7.44-1.19-11.18-.1.22-3.07.26-6.17.71-9.2.42-2.84,2.42-4.43,5.26-4.11,2.92.33,5.13,1.9,5.22,5.23.07,2.72,0,5.45,0,8.17Z"/>
  <path class="cls-2" d="m308.17,83.29c-9.49,0-18.99.05-28.48-.06-1.25-.02-2.48-.89-3.72-1.36,9.78-.02,19.56-.09,29.34,0,.96,0,1.91.94,2.86,1.44Z"/>
</svg>