<?xml version="1.0" encoding="UTF-8"?>
<svg id="Layer_1" data-name="Layer 1" xmlns="http://www.w3.org/2000/svg" viewBox="0 0 512 512">
  <defs>
    <style>
      .cls-1 {
        fill: #fff;
      }

      .cls-2 {
        fill: #c03b2c;
      }

      .cls-3 {
        fill: #cbb393;
      }

      .cls-4 {
        fill: #7f6e5d;
      }

      .cls-5 {
        fill: #d1d4d1;
      }

      .cls-6 {
        fill: #e64c3c;
      }

      .cls-7 {
        fill: #e6d9ca;
      }

      .cls-8 {
        fill: #fdd7ad;
      }

      .cls-9 {
        fill: #cbb292;
      }

      .cls-10 {
        fill: #fefefe;
      }
    </style>
  </defs>
  <path class="cls-9" d="m89.07.1h347.72c4.94,1.42,7.24,4.89,7.87,9.82.97,7.59,2.05,15.16,3.09,22.73,6.87,49.9,13.72,99.81,20.62,149.71,5.08,36.73,10.23,73.44,15.34,110.16,5.6,40.34,11.2,80.69,16.77,121.04,3.46,25.03,6.87,50.07,10.3,75.11.32,1.68.63,3.36.95,5.04v12.99c-2.33,1.67-4.66,3.33-6.99,5h-79.94c-.95-.35-1.9-.7-2.85-1.05-5.26-1.91-5.46-6.66-6.07-11.08-2.25-16.14-4.3-32.31-6.68-48.43-1.13-7.66-4.03-10.11-11.67-10.12-42.61-.07-85.23-.08-127.84.02-9.31.02-12.71,4.15-11.44,13.26,2.05,14.83,4.18,29.64,6.32,44.46,1.06,7.3-.65,10.28-7.63,12.94h-91.93c-4.12-2.57-5.99-6.31-6.45-11.13-.61-6.28-1.65-12.52-2.55-18.77-1.98-13.64-3.98-27.28-5.98-40.92-2.79-21.1-5.49-42.2-8.38-63.29-5.48-39.87-11.08-79.72-16.61-119.58-5.19-37.39-10.36-74.78-15.53-112.17-4.17-30.14-8.28-60.3-12.49-90.44-2.58-18.44-5.29-36.87-7.94-55.3Zm122.91,352.81c2.59.97,5.18,2.77,7.77,2.78,32.96.19,65.91.13,98.87.13s65.58.07,98.37-.12c2.6-.02,5.2-1.8,7.79-2.76,6.08-1.52,8.32-4.14,8.06-9.5-.26-5.39-3.84-7.41-8.49-8.13-2.12-.33-4.31-.35-6.46-.35-66.59-.02-133.18-.01-199.78-.01-1.5,0-3.01-.07-4.49.07-5.35.5-9.38,3.96-9.53,8.55-.17,5.33,2.98,8.16,7.89,9.36Zm123.91-211.65c-37.91-.04-75.81-.15-113.72-.03-6.53.02-9.12,3.98-7.95,10.93,1.53,9.01,3.03,18.02,4.82,26.98,3.99,19.94,4.83,40.75,15.87,58.79-12.74,1.93-24.47,6.63-34.65,14.37-10.58,8.04-12.2,17.82-5.07,26.16,2.56,3,5.57,5.79,8.83,8.01,15.63,10.65,33.69,15.04,51.85,18.08,21.28,3.57,42.83,6.04,64.49,3.32,14.13-1.77,28.33-3.43,42.26-6.33,12.03-2.5,23.82-6.54,33.16-15.24,9.5-8.85,9.19-19.49-.61-27.92-13.97-12.02-30.77-17.37-48.48-20.59,3.13-12.21,2.27-24.41-.11-36.6,10.35,3.03,20.21,2.41,28.68-4.84,14.33-12.26,11.91-35-4.6-47.61-10.51-8.02-22.54-7.96-34.76-7.49Zm-11.05,229.49c-16.97,0-33.93-.02-50.9,0-6.38.01-10.91,3.6-10.79,8.44.12,5.23,4.24,8.66,10.62,8.66,34.1.02,68.2.02,102.3,0,6.33,0,10.48-3.51,10.55-8.73.06-4.7-4.38-8.35-10.37-8.36-17.13-.04-34.27-.01-51.4-.01ZM230.44,44.7c-1.16.75-4.24,1.8-5.78,3.95-3.37,4.69-6.35,9.77-8.79,15.01-3.92,8.4-2.29,18.36,4.77,24.16,5.5,4.52,7.28,8.45,3.91,15.15-2.28,4.53.43,9.21,4.86,11,4.41,1.79,8.83,0,11.26-4.55,6.69-12.54,4.84-23.15-5.9-32.46-3.23-2.8-3.67-5.52-1.35-9.09,2.35-3.61,4.69-7.3,6.43-11.21,2.61-5.86-1.38-11.79-9.42-11.96Zm84.63,53.07c-.16-10.04-3.33-16.01-9.29-20.48-3.69-2.77-4.66-5.65-1.69-9.69,2.26-3.07,4.15-6.45,5.86-9.86,2.34-4.65,1.02-9.52-2.86-11.88-3.84-2.33-9.23-1.36-11.94,2.73-3.29,4.99-6.73,10.06-8.92,15.56-3.24,8.11-2.58,16.59,4.09,22.66,5.53,5.03,8.44,9.21,4.79,16.86-2.17,4.54.79,8.8,5.14,10.38,4.56,1.65,8.92-.04,11.04-4.97,1.87-4.36,3.04-9.03,3.78-11.31Zm-35.11.06c-.36-10.01-3.58-16.13-9.66-20.73-3.52-2.67-4.27-5.55-1.55-9.37,2.21-3.11,4.12-6.47,5.87-9.86,2.43-4.71,1.28-9.41-2.62-11.91-3.95-2.54-9.23-1.4-12.29,2.9-1.92,2.7-3.51,5.65-5.23,8.5-8.34,13.84-7.15,22.6,4.71,33.42,2.7,2.46,3.62,5.01,1.95,8.4-.66,1.33-1.11,2.78-1.5,4.22-1.29,4.71.4,8.31,4.68,10.33,4.35,2.05,8.58,1.01,10.78-3.22,2.41-4.64,3.8-9.8,4.87-12.68Z"/>
  <path class="cls-4" d="m89.07.1c2.65,18.43,5.36,36.85,7.94,55.3,4.21,30.14,8.32,60.29,12.49,90.44,5.17,37.39,10.34,74.78,15.53,112.17,5.53,39.86,11.13,79.71,16.61,119.58,2.9,21.08,5.6,42.19,8.38,63.29-9.96.06-19.93.14-29.89.17-11.63.03-13.58,1.91-15.07,13.61-1.99,15.64-3.98,31.29-6.54,46.84-.55,3.31-3.58,6.22-5.47,9.31-.99.3-1.99.59-2.98.89H9.13c-.96-.33-1.91-.67-2.87-1-4.41-2.44-5.59-6.27-4.77-11,4.36-25.05,8.72-50.1,13.07-75.15,10.52-60.58,21.04-121.17,31.56-181.75,9.84-56.65,19.71-113.3,29.53-169.96,4.2-24.23,8.28-48.48,12.42-72.72.33,0,.67,0,1,0Z"/>
  <path class="cls-1" d="m88.07.1c-4.14,24.24-8.22,48.49-12.42,72.72-9.81,56.66-19.69,113.31-29.53,169.96-10.52,60.58-21.04,121.17-31.56,181.75-4.35,25.05-8.7,50.1-13.07,75.15-.82,4.73.35,8.56,4.77,11-.04.33-.09.67-.13,1.01C1.01,512.82,0,510.83,0,505.7.17,338.67.16,171.63.05,4.6.04.84.87-.02,4.64,0c27.81.19,55.62.1,83.43.1Z"/>
  <path class="cls-1" d="m510.78,488.67c-3.43-25.04-6.84-50.07-10.3-75.11-5.57-40.35-11.17-80.69-16.77-121.04-5.1-36.72-10.26-73.44-15.34-110.16-6.9-49.9-13.75-99.81-20.62-149.71-1.04-7.58-2.12-15.15-3.09-22.73-.63-4.93-2.94-8.4-7.87-9.82,23.65,0,47.3.09,70.94-.1,3.43-.03,4.09.68,4.09,4.1-.11,161.54-.09,323.08-.09,484.61-.32.02-.63,0-.95-.04Z"/>
  <path class="cls-1" d="m256.93,511.69c6.98-2.66,8.69-5.64,7.63-12.94-2.15-14.81-4.27-29.63-6.32-44.46-1.26-9.11,2.14-13.24,11.44-13.26,42.61-.1,85.23-.08,127.84-.02,7.64.01,10.54,2.46,11.67,10.12,2.37,16.12,4.42,32.29,6.68,48.43.62,4.42.81,9.16,6.07,11.08-.05.35-.1.7-.15,1.05h-164.87Z"/>
  <path class="cls-1" d="m93.05,510.8c1.89-3.09,4.92-6,5.47-9.31,2.57-15.55,4.55-31.2,6.54-46.84,1.49-11.7,3.44-13.58,15.07-13.61,9.96-.03,19.93-.11,29.89-.17,2,13.64,4,27.28,5.98,40.92.91,6.25,1.94,12.49,2.55,18.77.47,4.82,2.33,8.56,6.45,11.13h-71.94c-.05-.3-.05-.59-.02-.89Z"/>
  <path class="cls-10" d="m504.73,511.69c2.33-1.67,4.66-3.33,6.99-5,1.52,7.06-3.7,4.68-6.99,5Z"/>
  <path class="cls-7" d="m510.78,488.67c.31.05.63.06.95.04v5c-.32-1.68-.63-3.36-.95-5.04Z"/>
  <path class="cls-9" d="m6.14,511.69c.04-.34.09-.67.13-1.01.96.34,1.91.67,2.87,1.01h-3Z"/>
  <path class="cls-3" d="m93.05,510.8c-.03.3-.03.59.02.89h-3c.99-.3,1.99-.59,2.98-.89Z"/>
  <path class="cls-3" d="m421.8,511.69c.05-.35.1-.7.15-1.05.95.35,1.9.7,2.85,1.05h-3Z"/>
  <path class="cls-6" d="m234.93,237.94c-11.04-18.04-11.88-38.85-15.87-58.79-1.79-8.96-3.3-17.97-4.82-26.98-1.18-6.95,1.41-10.91,7.95-10.93,37.9-.12,75.81,0,113.72.03,1.02,5.94,2.04,11.88,3.05,17.81,1.24,5.97,2.48,11.95,3.72,17.92.09.32.19.64.28.97v-.15c1.2,7.8,2.41,15.59,3.62,23.39,2.38,12.19,3.24,24.39.11,36.61-3.07,5.66-5.46,11.85-9.33,16.89-13.32,17.32-35.16,22.83-59.05,15.68-18.44-5.52-32.5-16.83-43.37-32.44Z"/>
  <path class="cls-5" d="m234.93,237.94c10.87,15.61,24.93,26.92,43.37,32.44,23.89,7.15,45.74,1.64,59.05-15.68,3.88-5.04,6.26-11.23,9.33-16.89,17.71,3.22,34.51,8.58,48.48,20.59,9.8,8.43,10.11,19.06.61,27.92-9.34,8.7-21.12,12.74-33.16,15.24-13.92,2.89-28.12,4.56-42.26,6.33-21.66,2.71-43.21.25-64.49-3.32-18.16-3.05-36.22-7.43-51.85-18.08-3.26-2.22-6.26-5.01-8.83-8.01-7.13-8.35-5.5-18.13,5.07-26.16,10.18-7.74,21.92-12.44,34.65-14.37Z"/>
  <path class="cls-8" d="m211.98,352.91c-4.91-1.2-8.06-4.03-7.89-9.36.15-4.59,4.17-8.06,9.53-8.55,1.49-.14,2.99-.07,4.49-.07,66.59,0,133.18,0,199.78.01,2.16,0,4.34.02,6.46.35,4.66.73,8.24,2.75,8.49,8.13.25,5.36-1.98,7.98-8.06,9.5-70.94,0-141.87-.02-212.81-.02Z"/>
  <path class="cls-8" d="m324.85,370.76c17.13,0,34.27-.02,51.4.01,5.99.01,10.43,3.66,10.37,8.36-.07,5.22-4.22,8.73-10.55,8.73-34.1.02-68.2.02-102.3,0-6.37,0-10.49-3.43-10.62-8.66-.11-4.84,4.41-8.43,10.79-8.44,16.97-.03,33.93,0,50.9,0Z"/>
  <path class="cls-2" d="m338.95,159.08c-1.02-5.94-2.04-11.88-3.05-17.81,12.22-.46,24.25-.53,34.76,7.49,16.51,12.61,18.93,35.35,4.6,47.61-8.47,7.25-18.34,7.87-28.68,4.84-1.21-7.8-2.42-15.59-3.63-23.39,2.95,2.09,5.67,4.7,8.91,6.15,4.21,1.88,8.83,2.2,12.49-1.57,3.68-3.78,3.32-8.34,1.02-12.45-1.65-2.93-4.09-5.64-6.73-7.76-5.85-4.69-12.94-3.12-19.67-3.12Z"/>
  <path class="cls-10" d="m230.44,44.7c8.03.17,12.02,6.1,9.42,11.96-1.74,3.92-4.08,7.6-6.43,11.21-2.32,3.57-1.88,6.29,1.35,9.09,10.74,9.32,12.59,19.92,5.9,32.46-2.43,4.55-6.85,6.34-11.26,4.55-4.43-1.79-7.13-6.47-4.86-11,3.36-6.7,1.58-10.64-3.91-15.15-7.06-5.8-8.69-15.76-4.77-24.16,2.44-5.24,5.42-10.32,8.79-15.01,1.55-2.15,4.62-3.2,5.78-3.95Z"/>
  <path class="cls-10" d="m315.07,97.76c-.74,2.28-1.91,6.95-3.78,11.31-2.12,4.93-6.48,6.63-11.04,4.97-4.35-1.58-7.31-5.84-5.14-10.38,3.65-7.65.74-11.83-4.79-16.86-6.67-6.07-7.33-14.55-4.09-22.66,2.2-5.5,5.63-10.57,8.92-15.56,2.7-4.1,8.09-5.06,11.94-2.73,3.89,2.36,5.2,7.23,2.86,11.88-1.71,3.41-3.61,6.79-5.86,9.86-2.97,4.04-2,6.92,1.69,9.69,5.96,4.47,9.13,10.43,9.29,20.48Z"/>
  <path class="cls-1" d="m279.96,97.83c-1.07,2.88-2.46,8.05-4.87,12.68-2.2,4.23-6.43,5.27-10.78,3.22-4.28-2.02-5.97-5.62-4.68-10.33.39-1.44.85-2.89,1.5-4.22,1.67-3.38.75-5.94-1.95-8.4-11.86-10.82-13.05-19.58-4.71-33.42,1.72-2.85,3.3-5.8,5.23-8.5,3.06-4.3,8.34-5.44,12.29-2.9,3.9,2.5,5.05,7.2,2.62,11.91-1.75,3.4-3.65,6.75-5.87,9.86-2.72,3.82-1.97,6.7,1.55,9.37,6.08,4.6,9.3,10.72,9.66,20.73Z"/>
  <path class="cls-3" d="m211.98,352.91c70.94,0,141.87.01,212.81.02-2.6.96-5.19,2.74-7.79,2.76-32.79.19-65.58.12-98.37.12s-65.91.07-98.87-.13c-2.6-.02-5.18-1.81-7.77-2.78Z"/>
  <path class="cls-9" d="m338.95,159.08c6.74,0,13.83-1.57,19.67,3.12,2.64,2.12,5.08,4.82,6.73,7.76,2.31,4.11,2.67,8.67-1.02,12.45-3.66,3.76-8.28,3.44-12.49,1.57-3.24-1.45-5.96-4.06-8.91-6.15,0,0,.01.15.01.15-.09-.32-.19-.64-.28-.97-1.24-5.97-2.48-11.95-3.72-17.92Z"/>
  <path class="cls-2" d="m342.67,177c.09.32.19.64.28.97-.09-.32-.19-.64-.28-.97Z"/>
</svg>