<?xml version="1.0" encoding="utf-8"?>
<!-- Generator: Adobe Illustrator 27.1.1, SVG Export Plug-In . SVG Version: 6.00 Build 0)  -->
<svg version="1.1" id="Layer_1" xmlns="http://www.w3.org/2000/svg" xmlns:xlink="http://www.w3.org/1999/xlink" x="0px" y="0px"
	 viewBox="0 0 510.5 511.6" style="enable-background:new 0 0 510.5 511.6;" xml:space="preserve">
<style type="text/css">
	.st0{fill:#CBB292;}
	.st1{fill:#7F6E5D;}
	.st2{fill:#E6D9CA;}
	.st3{fill:#CBB393;}
	.st4{fill:#E64C3C;}
	.st5{fill:#D1D4D1;}
	.st6{fill:#FDD7AD;}
	.st7{fill:#C03B2C;}
	.st8{fill:#FEFEFE;}
	.st9{fill:#FFFFFF;}
</style>
<path class="st0" d="M87.8,0h347.7c4.9,1.4,7.2,4.9,7.9,9.8c1,7.6,2,15.2,3.1,22.7c6.9,49.9,13.7,99.8,20.6,149.7
	c5.1,36.7,10.2,73.4,15.3,110.2c5.6,40.3,11.2,80.7,16.8,121c3.5,25,6.9,50.1,10.3,75.1c0.3,1.7,0.6,3.4,1,5v13
	c-2.3,1.7-4.7,3.3-7,5h-79.9c-1-0.4-1.9-0.7-2.9-1c-5.3-1.9-5.5-6.7-6.1-11.1c-2.2-16.1-4.3-32.3-6.7-48.4
	c-1.1-7.7-4-10.1-11.7-10.1c-42.6-0.1-85.2-0.1-127.8,0c-9.3,0-12.7,4.1-11.4,13.3c2,14.8,4.2,29.6,6.3,44.5
	c1.1,7.3-0.6,10.3-7.6,12.9h-91.9c-4.1-2.6-6-6.3-6.4-11.1c-0.6-6.3-1.6-12.5-2.6-18.8c-2-13.6-4-27.3-6-40.9
	c-2.8-21.1-5.5-42.2-8.4-63.3c-5.5-39.9-11.1-79.7-16.6-119.6c-5.2-37.4-10.4-74.8-15.5-112.2c-4.2-30.1-8.3-60.3-12.5-90.4
	C93.2,36.9,90.5,18.4,87.8,0L87.8,0z M210.7,352.8c2.6,1,5.2,2.8,7.8,2.8c33,0.2,65.9,0.1,98.9,0.1s65.6,0.1,98.4-0.1
	c2.6,0,5.2-1.8,7.8-2.8c6.1-1.5,8.3-4.1,8.1-9.5c-0.3-5.4-3.8-7.4-8.5-8.1c-2.1-0.3-4.3-0.4-6.5-0.4c-66.6,0-133.2,0-199.8,0
	c-1.5,0-3-0.1-4.5,0.1c-5.4,0.5-9.4,4-9.5,8.5C202.7,348.8,205.8,351.6,210.7,352.8L210.7,352.8z M334.6,141.2
	c-37.9,0-75.8-0.1-113.7,0c-6.5,0-9.1,4-7.9,10.9c1.5,9,3,18,4.8,27c4,19.9,4.8,40.8,15.9,58.8c-12.7,1.9-24.5,6.6-34.7,14.4
	c-10.6,8-12.2,17.8-5.1,26.2c2.6,3,5.6,5.8,8.8,8c15.6,10.6,33.7,15,51.8,18.1c21.3,3.6,42.8,6,64.5,3.3c14.1-1.8,28.3-3.4,42.3-6.3
	c12-2.5,23.8-6.5,33.2-15.2c9.5-8.9,9.2-19.5-0.6-27.9c-14-12-30.8-17.4-48.5-20.6c3.1-12.2,2.3-24.4-0.1-36.6
	c10.4,3,20.2,2.4,28.7-4.8c14.3-12.3,11.9-35-4.6-47.6C358.9,140.6,346.9,140.7,334.6,141.2L334.6,141.2z M323.6,370.6
	c-17,0-33.9,0-50.9,0c-6.4,0-10.9,3.6-10.8,8.4c0.1,5.2,4.2,8.7,10.6,8.7c34.1,0,68.2,0,102.3,0c6.3,0,10.5-3.5,10.5-8.7
	c0.1-4.7-4.4-8.4-10.4-8.4C357.9,370.6,340.7,370.6,323.6,370.6L323.6,370.6z M229.2,44.6c-1.2,0.8-4.2,1.8-5.8,4
	c-3.4,4.7-6.4,9.8-8.8,15c-3.9,8.4-2.3,18.4,4.8,24.2c5.5,4.5,7.3,8.4,3.9,15.2c-2.3,4.5,0.4,9.2,4.9,11c4.4,1.8,8.8,0,11.3-4.6
	c6.7-12.5,4.8-23.2-5.9-32.5c-3.2-2.8-3.7-5.5-1.4-9.1c2.4-3.6,4.7-7.3,6.4-11.2C241.2,50.7,237.2,44.8,229.2,44.6L229.2,44.6z
	 M313.8,97.7c-0.2-10-3.3-16-9.3-20.5c-3.7-2.8-4.7-5.7-1.7-9.7c2.3-3.1,4.1-6.5,5.9-9.9c2.3-4.7,1-9.5-2.9-11.9
	c-3.8-2.3-9.2-1.4-11.9,2.7c-3.3,5-6.7,10.1-8.9,15.6c-3.2,8.1-2.6,16.6,4.1,22.7c5.5,5,8.4,9.2,4.8,16.9c-2.2,4.5,0.8,8.8,5.1,10.4
	c4.6,1.7,8.9,0,11-5C311.9,104.6,313.1,99.9,313.8,97.7z M278.7,97.7c-0.4-10-3.6-16.1-9.7-20.7c-3.5-2.7-4.3-5.6-1.5-9.4
	c2.2-3.1,4.1-6.5,5.9-9.9c2.4-4.7,1.3-9.4-2.6-11.9c-4-2.5-9.2-1.4-12.3,2.9c-1.9,2.7-3.5,5.7-5.2,8.5c-8.3,13.8-7.1,22.6,4.7,33.4
	c2.7,2.5,3.6,5,2,8.4c-0.7,1.3-1.1,2.8-1.5,4.2c-1.3,4.7,0.4,8.3,4.7,10.3c4.4,2.1,8.6,1,10.8-3.2
	C276.3,105.8,277.7,100.6,278.7,97.7L278.7,97.7z"/>
<path class="st1" d="M87.8,0c2.7,18.4,5.4,36.8,7.9,55.3c4.2,30.1,8.3,60.3,12.5,90.4c5.2,37.4,10.3,74.8,15.5,112.2
	c5.5,39.9,11.1,79.7,16.6,119.6c2.9,21.1,5.6,42.2,8.4,63.3c-10,0.1-19.9,0.1-29.9,0.2c-11.6,0-13.6,1.9-15.1,13.6
	c-2,15.6-4,31.3-6.5,46.8c-0.6,3.3-3.6,6.2-5.5,9.3c-1,0.3-2,0.6-3,0.9H7.9c-1-0.3-1.9-0.7-2.9-1c-4.4-2.4-5.6-6.3-4.8-11
	c4.4-25,8.7-50.1,13.1-75.1c10.5-60.6,21-121.2,31.6-181.8c9.8-56.6,19.7-113.3,29.5-170C78.6,48.5,82.7,24.3,86.8,0
	C87.2,0,87.5,0,87.8,0L87.8,0z"/>
<path class="st2" d="M509.5,488.6c0.3,0,0.6,0.1,1,0v5C510.2,491.9,509.9,490.3,509.5,488.6z"/>
<path class="st0" d="M4.9,511.6c0-0.3,0.1-0.7,0.1-1c1,0.3,1.9,0.7,2.9,1C7.9,511.6,4.9,511.6,4.9,511.6z"/>
<path class="st3" d="M91.8,510.7c0,0.3,0,0.6,0,0.9h-3C89.8,511.3,90.8,511,91.8,510.7z"/>
<path class="st3" d="M420.6,511.6c0-0.4,0.1-0.7,0.1-1c1,0.4,1.9,0.7,2.9,1H420.6z"/>
<path class="st4" d="M233.7,237.8c-11-18-11.9-38.9-15.9-58.8c-1.8-9-3.3-18-4.8-27c-1.2-6.9,1.4-10.9,7.9-10.9
	c37.9-0.1,75.8,0,113.7,0c1,5.9,2,11.9,3,17.8c1.2,6,2.5,11.9,3.7,17.9c0.1,0.3,0.2,0.6,0.3,1v-0.1c1.2,7.8,2.4,15.6,3.6,23.4
	c2.4,12.2,3.2,24.4,0.1,36.6c-3.1,5.7-5.5,11.9-9.3,16.9c-13.3,17.3-35.2,22.8-59,15.7C258.6,264.8,244.6,253.5,233.7,237.8
	L233.7,237.8z"/>
<path class="st5" d="M233.7,237.8c10.9,15.6,24.9,26.9,43.4,32.4c23.9,7.1,45.7,1.6,59-15.7c3.9-5,6.3-11.2,9.3-16.9
	c17.7,3.2,34.5,8.6,48.5,20.6c9.8,8.4,10.1,19.1,0.6,27.9c-9.3,8.7-21.1,12.7-33.2,15.2c-13.9,2.9-28.1,4.6-42.3,6.3
	c-21.7,2.7-43.2,0.2-64.5-3.3c-18.2-3-36.2-7.4-51.9-18.1c-3.3-2.2-6.3-5-8.8-8c-7.1-8.4-5.5-18.1,5.1-26.2
	C209.2,244.5,220.9,239.8,233.7,237.8L233.7,237.8z"/>
<path class="st6" d="M210.7,352.8c-4.9-1.2-8.1-4-7.9-9.4c0.1-4.6,4.2-8.1,9.5-8.5c1.5-0.1,3-0.1,4.5-0.1c66.6,0,133.2,0,199.8,0
	c2.2,0,4.3,0,6.5,0.4c4.7,0.7,8.2,2.8,8.5,8.1c0.2,5.4-2,8-8.1,9.5C352.6,352.8,281.7,352.8,210.7,352.8L210.7,352.8z"/>
<path class="st6" d="M323.6,370.7c17.1,0,34.3,0,51.4,0c6,0,10.4,3.7,10.4,8.4c-0.1,5.2-4.2,8.7-10.5,8.7c-34.1,0-68.2,0-102.3,0
	c-6.4,0-10.5-3.4-10.6-8.7c-0.1-4.8,4.4-8.4,10.8-8.4C289.7,370.6,306.6,370.7,323.6,370.7L323.6,370.7z"/>
<path class="st7" d="M337.7,159c-1-5.9-2-11.9-3-17.8c12.2-0.5,24.2-0.5,34.8,7.5c16.5,12.6,18.9,35.4,4.6,47.6
	c-8.5,7.2-18.3,7.9-28.7,4.8c-1.2-7.8-2.4-15.6-3.6-23.4c3,2.1,5.7,4.7,8.9,6.1c4.2,1.9,8.8,2.2,12.5-1.6c3.7-3.8,3.3-8.3,1-12.4
	c-1.6-2.9-4.1-5.6-6.7-7.8C351.5,157.4,344.5,159,337.7,159L337.7,159z"/>
<path class="st8" d="M229.2,44.6c8,0.2,12,6.1,9.4,12c-1.7,3.9-4.1,7.6-6.4,11.2c-2.3,3.6-1.9,6.3,1.4,9.1
	c10.7,9.3,12.6,19.9,5.9,32.5c-2.4,4.6-6.9,6.3-11.3,4.6c-4.4-1.8-7.1-6.5-4.9-11c3.4-6.7,1.6-10.6-3.9-15.2
	c-7.1-5.8-8.7-15.8-4.8-24.2c2.4-5.2,5.4-10.3,8.8-15C225,46.4,228,45.4,229.2,44.6L229.2,44.6z"/>
<path class="st8" d="M313.8,97.7c-0.7,2.3-1.9,6.9-3.8,11.3c-2.1,4.9-6.5,6.6-11,5c-4.4-1.6-7.3-5.8-5.1-10.4
	c3.6-7.7,0.7-11.8-4.8-16.9c-6.7-6.1-7.3-14.6-4.1-22.7c2.2-5.5,5.6-10.6,8.9-15.6c2.7-4.1,8.1-5.1,11.9-2.7
	c3.9,2.4,5.2,7.2,2.9,11.9c-1.7,3.4-3.6,6.8-5.9,9.9c-3,4-2,6.9,1.7,9.7C310.5,81.7,313.7,87.6,313.8,97.7z"/>
<path class="st9" d="M278.7,97.7c-1.1,2.9-2.5,8.1-4.9,12.7c-2.2,4.2-6.4,5.3-10.8,3.2c-4.3-2-6-5.6-4.7-10.3
	c0.4-1.4,0.9-2.9,1.5-4.2c1.7-3.4,0.8-5.9-2-8.4c-11.9-10.8-13.1-19.6-4.7-33.4c1.7-2.8,3.3-5.8,5.2-8.5c3.1-4.3,8.3-5.4,12.3-2.9
	c3.9,2.5,5,7.2,2.6,11.9c-1.8,3.4-3.6,6.7-5.9,9.9c-2.7,3.8-2,6.7,1.5,9.4C275.1,81.6,278.3,87.7,278.7,97.7L278.7,97.7z"/>
<path class="st3" d="M210.7,352.8c70.9,0,141.9,0,212.8,0c-2.6,1-5.2,2.7-7.8,2.8c-32.8,0.2-65.6,0.1-98.4,0.1s-65.9,0.1-98.9-0.1
	C215.9,355.6,213.3,353.8,210.7,352.8L210.7,352.8z"/>
<path class="st0" d="M337.7,159c6.7,0,13.8-1.6,19.7,3.1c2.6,2.1,5.1,4.8,6.7,7.8c2.3,4.1,2.7,8.7-1,12.4c-3.7,3.8-8.3,3.4-12.5,1.6
	c-3.2-1.4-6-4.1-8.9-6.1l0,0.1c-0.1-0.3-0.2-0.6-0.3-1C340.2,170.9,338.9,165,337.7,159L337.7,159z"/>
<path class="st7" d="M341.4,176.9c0.1,0.3,0.2,0.6,0.3,1C341.6,177.5,341.5,177.2,341.4,176.9z"/>
</svg>
