<?xml version="1.0" encoding="UTF-8"?>
<svg id="Layer_1" data-name="Layer 1" xmlns="http://www.w3.org/2000/svg" viewBox="0 0 384 384">
  <defs>
    <style>
      .cls-1 {
        fill: #fff;
      }

      .cls-2 {
        fill: #fc8086;
      }

      .cls-3 {
        fill: #e89858;
      }

      .cls-4 {
        fill: #fa4954;
      }

      .cls-5 {
        fill: #fa9801;
      }

      .cls-6 {
        fill: #fa2a3b;
      }

      .cls-7 {
        fill: #fdd8a4;
      }

      .cls-8 {
        fill: #fba615;
      }
    </style>
  </defs>
  <path class="cls-1" d="m0,185.25V0h39.75c.02.23,0,.45-.09.66-6.74,2.22-10.68,7.01-10.14,14.28.79,10.55-1.51,20.17-6.39,29.38-1.28,2.41-2.24,4.99-3.31,7.51-5.84,13.71-11.66,27.43-17.49,41.15-.02,6.72-.45,13.47.03,20.16,1.02,14.44,14.25,27.08,28.63,27.87,17.1.95,29.56-8.64,34-26.15l.91-.12c2.89,16.14,15.96,26.68,32.6,26.3,15.04-.35,27.95-12.31,29.93-27.74.13,0,.26,0,.39-.05.32,1.46.58,2.94.96,4.38,3.83,14.85,17.59,24.41,33.62,23.36,14-.91,26.25-12.61,28.08-26.78l.23.05.24-.04c.21.18.42.37.63.55,1.59,11.87,11.3,22.44,23.37,25.44,18.2,4.52,35.08-6.81,39.12-26.26,0,0,.29,0,.29,0h.29c2.51,15.63,15.19,26.88,30.55,27.12,16.03.25,29-10.44,31.94-26.34.34.05.69.1,1.03.15.69,2.38,1.14,4.86,2.09,7.12,5.39,12.84,18.48,20.32,32.9,18.94,12.71-1.22,24.69-11.59,26.75-24.56,1.22-7.66.57-15.61.76-23.44-.37-1.04-.68-2.11-1.12-3.12-8.67-20.21-17.36-40.42-26.05-60.63.03-4.99.18-9.98.07-14.97-.15-6.8-3.74-11.42-10.24-13.57-.09-.22-.11-.44-.09-.67h39.75v185.25c-.19-.13-.48-.22-.57-.4-3.92-8.12-9.56-11.28-16.86-9.41-6.93,1.78-10.84,7.65-10.25,16.13,1.27,18.3,2.79,36.59,4.1,54.89.7,9.83,1.17,19.67,1.75,29.5-29.59,0-59.18-.04-88.77,0-8.82.01-16.18,5.16-19.09,13.1-3.19,8.73-.98,12.1,8.18,12.43-.33,5.09-.53,10.2-1.01,15.27-1.09,11.38-2.31,22.75-3.49,34.13-.88,8.41-1.65,16.83-2.74,25.21-.42,3.26-.05,5.91,2.74,7.9h-24c0-.23,0-.46.03-.69.41-1.22,1.27-2.48,1.17-3.65-.87-9.57-8.64-16.53-18.36-16.67-2.24-.03-4.48-.12-6.72-.18.16-13.56-.17-27.06-2.35-40.51-1.55-9.53-3.15-19.13-3.57-28.74-.6-13.8-.14-27.65-.13-41.48,28.85-.03,57.7-.06,86.56-.1,5.51,0,7.67-2.14,7.74-7.69.06-4.25.08-8.5,0-12.74-.11-5.05-2.37-7.27-7.47-7.28-66.08-.02-132.15-.02-198.23,0-4.54,0-6.88,2.3-7.02,6.91-.13,3.99-.04,7.99-.03,11.99.02,6.99,1.85,8.81,8.88,8.81,28.48.03,56.95.06,85.43.09.02,8.5.27,17,.02,25.5-.33,11.33-.03,22.81-1.82,33.94-2.73,17.04-4.81,34.03-4.25,51.29-2.49.06-4.98.12-7.47.19-7.5.21-14.39,5.13-16.63,12.31-.79,2.53-2.55,5.4.18,7.99.03.23.04.46.04.69h-24c3.31-2.8,2.47-6.58,2.16-10.08-1.12-12.62-2.38-25.24-3.67-37.85-1.17-11.49-2.45-22.97-3.68-34.46.87-.07,1.73-.18,2.6-.2,6.13-.13,7.86-2.05,7.21-8.05-1.07-9.92-9.57-17.38-20.1-17.4-29.57-.05-59.13,0-88.7,0,.59-9.71,1.1-19.42,1.79-29.11,1.32-18.67,2.85-37.33,4.09-56,.52-7.83-4.11-13.94-10.94-15.26-7.13-1.38-13.19,2.23-16.13,9.6-.22-.01-.43,0-.63.07Z"/>
  <path class="cls-6" d="m344.34.67c6.5,2.15,10.09,6.77,10.24,13.57.11,4.99-.04,9.98-.07,14.97h-54.06c1.76,6.28,3.32,11.85,4.88,17.42.22.67.44,1.34.66,2.01.28,1.08.56,2.16.85,3.24.22.66.43,1.32.65,1.98.28,1.09.56,2.17.84,3.26.22.66.44,1.33.66,1.99,1.03,3.83,2.05,7.65,3.08,11.48.23.45.46.9.68,1.36.77,3.05,1.54,6.09,2.31,9.14.23.45.46.89.68,1.34.78,2.82,1.56,5.64,2.34,8.47-.02.71-.03,1.42-.05,2.12-20.76,0-41.52-.01-62.28-.02h0c-1.49-10.04-2.94-20.09-4.48-30.12-1.56-10.15-3.22-20.29-4.81-30.44-.36-2.27-1.29-3.27-3.89-3.25-15.62.15-31.24.15-46.86,0-3.04-.03-3.77.94-3.76,3.84.12,19.99.07,39.99.07,59.98,0,0,0,0,0,0-20.99-.01-41.99-.02-62.98-.03h0c2.89-21.1,6.68-42.08,8.29-63.71-17.7,0-34.66-.03-51.63.08-.81,0-2.09,1.01-2.35,1.82-1.42,4.36-2.59,8.8-3.85,13.21-.22.66-.43,1.32-.65,1.98-.28,1.08-.56,2.16-.84,3.24-.22.67-.44,1.34-.65,2-.28,1.08-.56,2.16-.85,3.24l-.65,2c-.28,1.08-.56,2.16-.85,3.24-.23.44-.46.88-.68,1.32-1.27,4.79-2.54,9.59-3.81,14.38-.23.45-.46.9-.68,1.36-.27,1.29-.54,2.58-.81,3.88l-.68,1.37c-.77,3.03-1.54,6.07-2.31,9.1-.27.49-.53.98-.8,1.48-20.96,0-41.91,0-62.87.01,5.83-13.72,11.65-27.44,17.49-41.15,1.07-2.52,2.03-5.1,3.31-7.51,4.88-9.21,7.18-18.84,6.39-29.38-.54-7.27,3.4-12.06,10.14-14.28C40.44.44,41.22.22,42,0c100,0,200,0,300,0,.78.22,1.56.44,2.34.67Z"/>
  <path class="cls-1" d="m369,384h-102c1.02-2.06,2.49-4.02,2.98-6.2,2.85-12.72,5.53-25.48,8.17-38.24,2.61-12.64,5.11-25.31,7.66-37.96,21.23-.02,42.45-.04,63.68-.06.21.72.46,1.42.61,2.15,5.08,24.57,10.08,49.15,15.3,73.68.5,2.36,2.37,4.43,3.6,6.63Z"/>
  <path class="cls-1" d="m117,384H15c1.05-1.74,2.58-3.35,3.06-5.23,1.68-6.62,3.02-13.32,4.43-20,4.02-19.07,8.02-38.15,12.03-57.23,5.49-.04,10.99-.13,16.48-.11,15.73.04,31.47.12,47.2.18.05.87,0,1.76.17,2.61,4.79,22.97,9.51,45.96,14.49,68.89.81,3.76,2.73,7.27,4.14,10.9Z"/>
  <path class="cls-5" d="m349.48,301.53c-21.23.02-42.45.04-63.68.06-7.77-.03-15.53-.07-23.3-.1-9.15-.34-11.37-3.71-8.18-12.43,2.9-7.94,10.27-13.09,19.09-13.1,29.59-.04,59.18,0,88.77,0,5.95-.3,11.51,1.08,15.51,5.55,2.63,2.94,4.24,6.79,6.3,10.23v6.75c-2,.98-3.92,2.23-6.02,2.86-1.61.48-3.45.16-5.2.2-7.77,0-15.53-.01-23.3-.02Z"/>
  <path class="cls-5" d="m98.2,301.6c-15.73-.06-31.47-.14-47.2-.18-5.49-.01-10.99.07-16.48.11-7.77,0-15.53.01-23.3.02C7.21,301.09,2.5,302.69,0,297.75v-6c3.67-10.25,10.45-16.2,21.83-15.79,29.57,0,59.13-.05,88.7,0,10.53.02,19.03,7.48,20.1,17.4.65,6-1.08,7.92-7.21,8.05-.87.02-1.74.13-2.6.2-7.54,0-15.08-.01-22.62-.02Z"/>
  <path class="cls-8" d="m384,291.75c-2.07-3.44-3.68-7.29-6.3-10.23-4-4.47-9.57-5.86-15.51-5.55-.58-9.83-1.05-19.68-1.75-29.5-1.31-18.3-2.83-36.59-4.1-54.89-.59-8.49,3.31-14.36,10.25-16.13,7.29-1.87,12.94,1.28,16.86,9.41.09.18.37.27.57.4v106.5Z"/>
  <path class="cls-8" d="m21.83,275.96C10.45,275.55,3.67,281.5,0,291.75,0,257,0,222.25,0,187.5c.21-.77.42-1.54.63-2.32,2.94-7.37,9-10.97,16.13-9.6,6.82,1.32,11.45,7.43,10.94,15.26-1.23,18.68-2.76,37.33-4.09,56-.69,9.7-1.2,19.41-1.79,29.11Z"/>
  <path class="cls-7" d="m262.5,301.5c7.77.03,15.53.07,23.3.1-2.55,12.65-5.05,25.32-7.66,37.96-2.64,12.77-5.31,25.53-8.17,38.24-.49,2.18-1.96,4.14-2.98,6.2h-9c-2.79-1.99-3.16-4.64-2.74-7.9,1.08-8.38,1.86-16.8,2.74-25.21,1.18-11.37,2.4-22.74,3.49-34.13.48-5.08.68-10.18,1.01-15.27Z"/>
  <path class="cls-7" d="m11.22,301.55c7.77,0,15.53-.01,23.3-.02-4.01,19.08-8,38.16-12.03,57.23-1.41,6.68-2.76,13.38-4.43,20-.48,1.88-2.01,3.5-3.06,5.23H6.75c-2.54-1.5-3.33-3.71-3.03-6.6.88-8.51,1.62-17.03,2.43-25.55.58-6.04,1.2-12.08,1.81-18.12,1.08-10.73,2.17-21.45,3.26-32.18Z"/>
  <path class="cls-7" d="m349.48,301.53l23.3.02c.35,4.57.58,9.16,1.06,13.72,1.05,9.98,2.27,19.94,3.35,29.92,1,9.24,2.07,18.47,2.79,27.74.3,3.86,1.93,8.33-2.73,11.08h-8.25c-1.23-2.2-3.1-4.27-3.6-6.63-5.23-24.53-10.23-49.11-15.3-73.68-.15-.73-.41-1.44-.61-2.15Z"/>
  <path class="cls-7" d="m98.2,301.6c7.54,0,15.08.01,22.62.02,1.23,11.49,2.5,22.97,3.68,34.46,1.29,12.61,2.55,25.22,3.67,37.85.31,3.5,1.15,7.28-2.16,10.08h-9c-1.41-3.63-3.33-7.14-4.14-10.9-4.97-22.93-9.7-45.92-14.49-68.89-.18-.85-.12-1.74-.17-2.61Z"/>
  <path class="cls-1" d="m377.25,384c4.66-2.75,3.03-7.22,2.73-11.08-.72-9.26-1.79-18.5-2.79-27.74-1.08-9.98-2.3-19.94-3.35-29.92-.48-4.56-.71-9.15-1.06-13.72,1.74-.04,3.59.28,5.2-.2,2.11-.62,4.02-1.87,6.02-2.86v85.5h-6.75Z"/>
  <path class="cls-1" d="m11.22,301.55c-1.09,10.73-2.17,21.45-3.26,32.18-.61,6.04-1.23,12.08-1.81,18.12-.82,8.52-1.55,17.04-2.43,25.55-.3,2.89.49,5.1,3.03,6.6H0v-86.25c2.5,4.94,7.21,3.34,11.22,3.8Z"/>
  <path class="cls-7" d="m150,384c0-.23,0-.46-.04-.69,28.02,0,56.05,0,84.07,0-.03.23-.04.46-.03.69h-84Z"/>
  <path class="cls-7" d="m.63,185.18c-.21.77-.42,1.54-.63,2.32,0-.75,0-1.5,0-2.25.21-.06.42-.08.63-.07Z"/>
  <path class="cls-2" d="m344.34.67c-.78-.22-1.56-.44-2.34-.67.75,0,1.5,0,2.25,0-.03.23,0,.45.09.67Z"/>
  <path class="cls-2" d="m42,0c-.78.22-1.56.44-2.34.66.08-.21.11-.44.09-.66C40.5,0,41.25,0,42,0Z"/>
  <path class="cls-3" d="m179.93,252.09c-28.48-.03-56.95-.06-85.43-.09-7.03,0-8.86-1.82-8.88-8.81,0-4-.1-8,.03-11.99.15-4.61,2.49-6.91,7.02-6.91,66.08-.02,132.15-.02,198.23,0,5.1,0,7.36,2.23,7.47,7.28.09,4.24.07,8.49,0,12.74-.08,5.56-2.23,7.69-7.74,7.69-28.85.04-57.7.07-86.56.1-8.05,0-16.1,0-24.15,0Z"/>
  <path class="cls-4" d="m305.33,46.64c-1.56-5.57-3.12-11.14-4.88-17.42h54.06c8.69,20.21,17.37,40.42,26.05,60.63.44,1.01.75,2.08,1.12,3.12-19.94.01-39.89.06-59.83-.06-1.26,0-2.51-1.31-3.76-2.01-.78-2.82-1.56-5.64-2.34-8.46-.23-.45-.46-.89-.68-1.34-.77-3.05-1.54-6.09-2.31-9.14-.23-.45-.46-.9-.68-1.36-1.03-3.83-2.05-7.65-3.08-11.47-.22-.66-.44-1.33-.66-1.99-.28-1.09-.56-2.17-.84-3.26-.22-.66-.43-1.32-.65-1.98-.28-1.08-.56-2.16-.85-3.24-.22-.67-.44-1.34-.66-2.01Z"/>
  <path class="cls-7" d="m179.93,252.09c8.05,0,16.1,0,24.15,0,0,13.83-.47,27.68.13,41.48.42,9.62,2.02,19.21,3.57,28.74,2.18,13.44,2.51,26.95,2.35,40.51-12.08,0-24.16,0-36.24,0-.56-17.26,1.52-34.25,4.25-51.29,1.78-11.13,1.49-22.61,1.82-33.94.25-8.49,0-17-.02-25.5Z"/>
  <path class="cls-2" d="m318.08,90.9c1.25.7,2.51,2.01,3.76,2.01,19.94.12,39.88.07,59.83.06-.19,7.82.46,15.78-.76,23.44-2.07,12.97-14.04,23.34-26.75,24.56-14.42,1.38-27.51-6.1-32.9-18.94-.95-2.27-1.41-4.74-2.09-7.12-.36-.51-.73-1.03-1.09-1.54-.02-6.78-.04-13.56-.05-20.34.02-.71.03-1.42.05-2.12Z"/>
  <path class="cls-2" d="m191.94,114.24l-.24.04s-.23-.05-.23-.05c.18-7.07.36-14.14.54-21.21,0,0,0,0,0,0,21.25,0,42.49,0,63.74,0,0,0,0,0,0,0-.05,6.08-.11,12.16-.16,18.24l-.52,2.72c-4.04,19.45-20.92,30.77-39.12,26.26-12.07-2.99-21.78-13.56-23.37-25.44-.21-.18-.42-.37-.63-.55Z"/>
  <path class="cls-2" d="m65.2,92.97c.27-.49.53-.98.8-1.48,1.07.5,2.14,1.43,3.22,1.44,19.93.08,39.87.04,59.81.03,0,0,0,0,0,0-.07,5.84-.13,11.68-.2,17.52-.13.94-.27,1.87-.4,2.81-1.98,15.43-14.89,27.39-29.93,27.74-16.64.39-29.7-10.16-32.6-26.3-.18-1.19-.37-2.38-.55-3.58-.05-6.07-.1-12.13-.15-18.2Z"/>
  <path class="cls-4" d="m65.2,92.97c.05,6.07.1,12.13.15,18.2-.12,1.23-.24,2.47-.37,3.7-4.44,17.51-16.9,27.09-34,26.15-14.39-.8-27.61-13.43-28.63-27.87-.47-6.69-.05-13.44-.03-20.16,20.96,0,41.91,0,62.87-.01Z"/>
  <path class="cls-4" d="m128.83,110.5c.07-5.84.13-11.68.2-17.52,20.99.01,41.99.02,62.98.03-.18,7.07-.36,14.14-.54,21.21-1.82,14.18-14.08,25.87-28.08,26.78-16.03,1.05-29.79-8.51-33.62-23.36-.37-1.45-.64-2.92-.96-4.38,0-.92,0-1.84.01-2.77Z"/>
  <path class="cls-4" d="m255.58,111.24c.05-6.08.11-12.16.16-18.24,20.76,0,41.52.01,62.28.02.02,6.78.04,13.56.05,20.34.02.46.04.93.06,1.39-2.94,15.89-15.91,26.59-31.94,26.34-15.37-.24-28.04-11.49-30.55-27.11-.02-.91-.04-1.82-.06-2.73Z"/>
  <path class="cls-3" d="m173.88,362.82c12.08,0,24.16,0,36.24,0,2.24.06,4.48.14,6.72.17,9.73.14,17.5,7.1,18.36,16.67.11,1.17-.75,2.43-1.17,3.65-28.02,0-56.05,0-84.07,0-2.73-2.59-.96-5.46-.18-7.99,2.24-7.18,9.13-12.1,16.63-12.31,2.49-.07,4.98-.13,7.47-.19Z"/>
  <path class="cls-7" d="m64.99,114.87c.12-1.23.24-2.47.37-3.7.18,1.19.37,2.39.55,3.58-.31.04-.61.08-.91.12Z"/>
  <path class="cls-7" d="m128.83,110.5c0,.92,0,1.84-.01,2.77-.13.03-.26.05-.39.04.13-.94.27-1.87.4-2.81Z"/>
  <path class="cls-7" d="m255.58,111.24c.02.91.04,1.82.06,2.73,0,0-.29-.01-.29-.01,0,0-.29,0-.29,0,.18-.91.35-1.82.52-2.73Z"/>
  <path class="cls-7" d="m318.14,114.75c-.02-.46-.04-.93-.06-1.39.36.51.73,1.03,1.09,1.54-.35-.05-.69-.1-1.03-.15Z"/>
  <path class="cls-7" d="m191.94,114.24c.21.18.42.37.63.55-.21-.18-.42-.37-.63-.55Z"/>
  <path class="cls-4" d="m129.02,92.97c-19.94.01-39.87.04-59.81-.03-1.07,0-2.15-.94-3.22-1.44.77-3.03,1.54-6.07,2.31-9.1.23-.46.45-.91.68-1.37.27-1.29.54-2.58.81-3.88.23-.45.46-.9.68-1.36,1.27-4.79,2.54-9.59,3.81-14.38.23-.44.46-.88.68-1.33.28-1.08.56-2.16.85-3.23.22-.67.43-1.33.65-2,.28-1.08.56-2.16.85-3.24.22-.67.44-1.34.65-2.01.28-1.08.56-2.16.84-3.24.22-.66.43-1.32.65-1.98,1.26-4.41,2.43-8.85,3.85-13.21.26-.8,1.54-1.81,2.35-1.82,16.97-.11,33.93-.08,51.63-.08-1.61,21.62-5.4,42.6-8.29,63.7Z"/>
  <path class="cls-4" d="m255.75,93c-21.25,0-42.49,0-63.74,0,0-19.99.05-39.99-.07-59.98-.02-2.9.72-3.87,3.76-3.84,15.62.15,31.24.14,46.86,0,2.61-.02,3.54.98,3.89,3.25,1.59,10.15,3.25,20.29,4.81,30.44,1.54,10.03,2.99,20.08,4.48,30.12Z"/>
  <path class="cls-2" d="m308.32,57.13c.22.67.44,1.33.66,1.99-.22-.67-.44-1.33-.66-1.99Z"/>
  <path class="cls-2" d="m76.49,54.85c-.22.67-.44,1.34-.65,2,.22-.67.44-1.34.65-2Z"/>
  <path class="cls-2" d="m306.83,51.89c.22.66.43,1.32.65,1.98-.22-.66-.43-1.32-.65-1.98Z"/>
  <path class="cls-2" d="m77.99,49.61c-.22.67-.44,1.34-.65,2.01.22-.67.44-1.34.65-2.01Z"/>
  <path class="cls-2" d="m305.33,46.64c.22.67.44,1.34.66,2.01-.22-.67-.44-1.34-.66-2.01Z"/>
  <path class="cls-2" d="m79.48,44.38c-.22.66-.43,1.32-.65,1.98.22-.66.43-1.32.65-1.98Z"/>
  <path class="cls-2" d="m315.06,81.09c.23.45.46.89.68,1.34-.23-.45-.46-.89-.68-1.34Z"/>
  <path class="cls-2" d="m70.49,75.8c-.23.45-.46.9-.68,1.36.23-.45.46-.9.68-1.36Z"/>
  <path class="cls-2" d="m312.06,70.6c.23.45.46.91.68,1.36-.23-.45-.46-.91-.68-1.36Z"/>
  <path class="cls-2" d="m74.99,60.09c-.23.44-.46.88-.68,1.33.23-.44.46-.88.68-1.33Z"/>
  <path class="cls-2" d="m69,81.03c-.23.46-.46.91-.68,1.37.23-.46.46-.91.68-1.37Z"/>
</svg>