<?xml version="1.0" encoding="utf-8"?>
<!-- Generator: Adobe Illustrator 27.1.1, SVG Export Plug-In . SVG Version: 6.00 Build 0)  -->
<svg version="1.1" id="Layer_1" xmlns="http://www.w3.org/2000/svg" xmlns:xlink="http://www.w3.org/1999/xlink" x="0px" y="0px"
	 viewBox="0 0 384 384" style="enable-background:new 0 0 384 384;" xml:space="preserve">
<style type="text/css">
	.st0{fill:#FA2A3B;}
	.st1{fill:#FA9801;}
	.st2{fill:#FBA615;}
	.st3{fill:#FDD8A4;}
	.st4{fill:#FC8086;}
	.st5{fill:#E89858;}
	.st6{fill:#FA4954;}
</style>
<path class="st0" d="M344.3,0.7c6.5,2.2,10.1,6.8,10.2,13.6c0.1,5,0,10-0.1,15h-54.1c1.8,6.3,3.3,11.8,4.9,17.4
	c0.2,0.7,0.4,1.3,0.7,2c0.3,1.1,0.6,2.2,0.9,3.2c0.2,0.7,0.4,1.3,0.6,2c0.3,1.1,0.6,2.2,0.8,3.3c0.2,0.7,0.4,1.3,0.7,2
	c1,3.8,2,7.6,3.1,11.5c0.2,0.4,0.5,0.9,0.7,1.4c0.8,3.1,1.5,6.1,2.3,9.1c0.2,0.4,0.5,0.9,0.7,1.3c0.8,2.8,1.6,5.6,2.3,8.5
	c0,0.7,0,1.4,0,2.1c-20.8,0-41.5,0-62.3,0l0,0c-1.5-10-2.9-20.1-4.5-30.1c-1.6-10.2-3.2-20.3-4.8-30.4c-0.4-2.3-1.3-3.3-3.9-3.2
	c-15.6,0.1-31.2,0.1-46.9,0c-3,0-3.8,0.9-3.8,3.8c0.1,20,0.1,40,0.1,60l0,0c-21,0-42,0-63,0l0,0c2.9-21.1,6.7-42.1,8.3-63.7
	c-17.7,0-34.7,0-51.6,0.1c-0.8,0-2.1,1-2.3,1.8c-1.4,4.4-2.6,8.8-3.8,13.2c-0.2,0.7-0.4,1.3-0.7,2c-0.3,1.1-0.6,2.2-0.8,3.2
	c-0.2,0.7-0.4,1.3-0.7,2c-0.3,1.1-0.6,2.2-0.8,3.2l-0.7,2c-0.3,1.1-0.6,2.2-0.8,3.2c-0.2,0.4-0.5,0.9-0.7,1.3
	c-1.3,4.8-2.5,9.6-3.8,14.4c-0.2,0.4-0.5,0.9-0.7,1.4c-0.3,1.3-0.5,2.6-0.8,3.9l-0.7,1.4c-0.8,3-1.5,6.1-2.3,9.1
	c-0.3,0.5-0.5,1-0.8,1.5c-21,0-41.9,0-62.9,0C8.2,79.3,14,65.5,19.9,51.8c1.1-2.5,2-5.1,3.3-7.5c4.9-9.2,7.2-18.8,6.4-29.4
	C29,7.7,33,2.9,39.7,0.7C40.4,0.4,41.2,0.2,42,0c100,0,200,0,300,0C342.8,0.2,343.6,0.4,344.3,0.7z"/>
<path class="st1" d="M349.5,301.5c-21.2,0-42.5,0-63.7,0.1c-7.8,0-15.5-0.1-23.3-0.1c-9.1-0.3-11.4-3.7-8.2-12.4
	c2.9-7.9,10.3-13.1,19.1-13.1c29.6,0,59.2,0,88.8,0c6-0.3,11.5,1.1,15.5,5.5c2.6,2.9,4.2,6.8,6.3,10.2v6.8c-2,1-3.9,2.2-6,2.9
	c-1.6,0.5-3.5,0.2-5.2,0.2C365,301.5,357.2,301.5,349.5,301.5L349.5,301.5z"/>
<path class="st1" d="M98.2,301.6c-15.7-0.1-31.5-0.1-47.2-0.2c-5.5,0-11,0.1-16.5,0.1c-7.8,0-15.5,0-23.3,0c-4-0.5-8.7,1.1-11.2-3.8
	v-6c3.7-10.2,10.4-16.2,21.8-15.8c29.6,0,59.1,0,88.7,0c10.5,0,19,7.5,20.1,17.4c0.6,6-1.1,7.9-7.2,8c-0.9,0-1.7,0.1-2.6,0.2
	C113.3,301.6,105.7,301.6,98.2,301.6L98.2,301.6z"/>
<path class="st2" d="M384,291.8c-2.1-3.4-3.7-7.3-6.3-10.2c-4-4.5-9.6-5.9-15.5-5.5c-0.6-9.8-1-19.7-1.8-29.5
	c-1.3-18.3-2.8-36.6-4.1-54.9c-0.6-8.5,3.3-14.4,10.2-16.1c7.3-1.9,12.9,1.3,16.9,9.4c0.1,0.2,0.4,0.3,0.6,0.4L384,291.8L384,291.8z
	"/>
<path class="st2" d="M21.8,276c-11.4-0.4-18.2,5.5-21.8,15.8c0-34.8,0-69.5,0-104.2c0.2-0.8,0.4-1.5,0.6-2.3c2.9-7.4,9-11,16.1-9.6
	c6.8,1.3,11.5,7.4,10.9,15.3c-1.2,18.7-2.8,37.3-4.1,56C22.9,256.5,22.4,266.2,21.8,276L21.8,276z"/>
<path class="st3" d="M262.5,301.5c7.8,0,15.5,0.1,23.3,0.1c-2.5,12.6-5,25.3-7.7,38c-2.6,12.8-5.3,25.5-8.2,38.2
	c-0.5,2.2-2,4.1-3,6.2h-9c-2.8-2-3.2-4.6-2.7-7.9c1.1-8.4,1.9-16.8,2.7-25.2c1.2-11.4,2.4-22.7,3.5-34.1
	C262,311.7,262.2,306.6,262.5,301.5L262.5,301.5z"/>
<path class="st3" d="M11.2,301.5c7.8,0,15.5,0,23.3,0c-4,19.1-8,38.2-12,57.2c-1.4,6.7-2.8,13.4-4.4,20c-0.5,1.9-2,3.5-3.1,5.2H6.8
	c-2.5-1.5-3.3-3.7-3-6.6c0.9-8.5,1.6-17,2.4-25.5c0.6-6,1.2-12.1,1.8-18.1C9,323,10.1,312.3,11.2,301.5L11.2,301.5z"/>
<path class="st3" d="M349.5,301.5l23.3,0c0.4,4.6,0.6,9.2,1.1,13.7c1,10,2.3,19.9,3.4,29.9c1,9.2,2.1,18.5,2.8,27.7
	c0.3,3.9,1.9,8.3-2.7,11.1H369c-1.2-2.2-3.1-4.3-3.6-6.6c-5.2-24.5-10.2-49.1-15.3-73.7C350,303,349.7,302.3,349.5,301.5
	L349.5,301.5z"/>
<path class="st3" d="M98.2,301.6c7.5,0,15.1,0,22.6,0c1.2,11.5,2.5,23,3.7,34.5c1.3,12.6,2.6,25.2,3.7,37.9
	c0.3,3.5,1.1,7.3-2.2,10.1h-9c-1.4-3.6-3.3-7.1-4.1-10.9c-5-22.9-9.7-45.9-14.5-68.9C98.2,303.4,98.3,302.5,98.2,301.6L98.2,301.6z"
	/>
<path class="st3" d="M150,384c0-0.2,0-0.5,0-0.7c28,0,56.1,0,84.1,0c0,0.2,0,0.5,0,0.7H150z"/>
<path class="st3" d="M0.6,185.2c-0.2,0.8-0.4,1.5-0.6,2.3c0-0.8,0-1.5,0-2.2C0.2,185.2,0.4,185.2,0.6,185.2z"/>
<path class="st4" d="M344.3,0.7c-0.8-0.2-1.6-0.4-2.3-0.7c0.8,0,1.5,0,2.2,0C344.2,0.2,344.2,0.4,344.3,0.7z"/>
<path class="st4" d="M42,0c-0.8,0.2-1.6,0.4-2.3,0.7c0.1-0.2,0.1-0.4,0.1-0.7C40.5,0,41.2,0,42,0z"/>
<path class="st5" d="M179.9,252.1c-28.5,0-56.9-0.1-85.4-0.1c-7,0-8.9-1.8-8.9-8.8c0-4-0.1-8,0-12c0.2-4.6,2.5-6.9,7-6.9
	c66.1,0,132.1,0,198.2,0c5.1,0,7.4,2.2,7.5,7.3c0.1,4.2,0.1,8.5,0,12.7c-0.1,5.6-2.2,7.7-7.7,7.7c-28.9,0-57.7,0.1-86.6,0.1
	C196,252.1,188,252.1,179.9,252.1L179.9,252.1z"/>
<path class="st6" d="M305.3,46.6c-1.6-5.6-3.1-11.1-4.9-17.4h54.1c8.7,20.2,17.4,40.4,26,60.6c0.4,1,0.8,2.1,1.1,3.1
	c-19.9,0-39.9,0.1-59.8-0.1c-1.3,0-2.5-1.3-3.8-2c-0.8-2.8-1.6-5.6-2.3-8.5c-0.2-0.4-0.5-0.9-0.7-1.3c-0.8-3.1-1.5-6.1-2.3-9.1
	c-0.2-0.4-0.5-0.9-0.7-1.4c-1-3.8-2-7.7-3.1-11.5c-0.2-0.7-0.4-1.3-0.7-2c-0.3-1.1-0.6-2.2-0.8-3.3c-0.2-0.7-0.4-1.3-0.6-2
	c-0.3-1.1-0.6-2.2-0.9-3.2C305.8,48,305.6,47.3,305.3,46.6L305.3,46.6z"/>
<path class="st3" d="M179.9,252.1c8.1,0,16.1,0,24.1,0c0,13.8-0.5,27.7,0.1,41.5c0.4,9.6,2,19.2,3.6,28.7c2.2,13.4,2.5,27,2.4,40.5
	c-12.1,0-24.2,0-36.2,0c-0.6-17.3,1.5-34.2,4.2-51.3c1.8-11.1,1.5-22.6,1.8-33.9C180.2,269.1,180,260.6,179.9,252.1L179.9,252.1z"/>
<path class="st4" d="M318.1,90.9c1.2,0.7,2.5,2,3.8,2c19.9,0.1,39.9,0.1,59.8,0.1c-0.2,7.8,0.5,15.8-0.8,23.4
	c-2.1,13-14,23.3-26.8,24.6c-14.4,1.4-27.5-6.1-32.9-18.9c-1-2.3-1.4-4.7-2.1-7.1c-0.4-0.5-0.7-1-1.1-1.5c0-6.8,0-13.6,0-20.3
	C318,92.3,318.1,91.6,318.1,90.9L318.1,90.9z"/>
<path class="st4" d="M191.9,114.2l-0.2,0l-0.2-0.1c0.2-7.1,0.4-14.1,0.5-21.2l0,0c21.2,0,42.5,0,63.7,0l0,0
	c-0.1,6.1-0.1,12.2-0.2,18.2l-0.5,2.7c-4,19.4-20.9,30.8-39.1,26.3c-12.1-3-21.8-13.6-23.4-25.4
	C192.4,114.6,192.2,114.4,191.9,114.2L191.9,114.2z"/>
<path class="st4" d="M65.2,93c0.3-0.5,0.5-1,0.8-1.5c1.1,0.5,2.1,1.4,3.2,1.4c19.9,0.1,39.9,0,59.8,0l0,0
	c-0.1,5.8-0.1,11.7-0.2,17.5c-0.1,0.9-0.3,1.9-0.4,2.8c-2,15.4-14.9,27.4-29.9,27.7c-16.6,0.4-29.7-10.2-32.6-26.3
	c-0.2-1.2-0.4-2.4-0.6-3.6C65.3,105.1,65.3,99,65.2,93L65.2,93z"/>
<path class="st6" d="M65.2,93c0.1,6.1,0.1,12.1,0.2,18.2c-0.1,1.2-0.2,2.5-0.4,3.7C60.5,132.4,48.1,142,31,141
	c-14.4-0.8-27.6-13.4-28.6-27.9c-0.5-6.7,0-13.4,0-20.2C23.3,93,44.2,93,65.2,93L65.2,93z"/>
<path class="st6" d="M128.8,110.5c0.1-5.8,0.1-11.7,0.2-17.5c21,0,42,0,63,0c-0.2,7.1-0.4,14.1-0.5,21.2
	c-1.8,14.2-14.1,25.9-28.1,26.8c-16,1.1-29.8-8.5-33.6-23.4c-0.4-1.4-0.6-2.9-1-4.4C128.8,112.3,128.8,111.4,128.8,110.5
	L128.8,110.5z"/>
<path class="st6" d="M255.6,111.2c0.1-6.1,0.1-12.2,0.2-18.2c20.8,0,41.5,0,62.3,0c0,6.8,0,13.6,0,20.3c0,0.5,0,0.9,0.1,1.4
	c-2.9,15.9-15.9,26.6-31.9,26.3c-15.4-0.2-28-11.5-30.6-27.1C255.6,113.1,255.6,112.2,255.6,111.2L255.6,111.2z"/>
<path class="st5" d="M173.9,362.8c12.1,0,24.2,0,36.2,0c2.2,0.1,4.5,0.1,6.7,0.2c9.7,0.1,17.5,7.1,18.4,16.7
	c0.1,1.2-0.8,2.4-1.2,3.6c-28,0-56.1,0-84.1,0c-2.7-2.6-1-5.5-0.2-8c2.2-7.2,9.1-12.1,16.6-12.3
	C168.9,362.9,171.4,362.9,173.9,362.8L173.9,362.8z"/>
<path class="st3" d="M65,114.9c0.1-1.2,0.2-2.5,0.4-3.7c0.2,1.2,0.4,2.4,0.6,3.6C65.6,114.8,65.3,114.8,65,114.9L65,114.9z"/>
<path class="st3" d="M128.8,110.5c0,0.9,0,1.8,0,2.8c-0.1,0-0.3,0.1-0.4,0C128.6,112.4,128.7,111.4,128.8,110.5z"/>
<path class="st3" d="M255.6,111.2c0,0.9,0,1.8,0.1,2.7l-0.3,0h-0.3C255.2,113,255.4,112.1,255.6,111.2L255.6,111.2z"/>
<path class="st3" d="M318.1,114.8c0-0.5,0-0.9-0.1-1.4c0.4,0.5,0.7,1,1.1,1.5C318.8,114.8,318.5,114.8,318.1,114.8z"/>
<path class="st3" d="M191.9,114.2c0.2,0.2,0.4,0.4,0.6,0.6C192.4,114.6,192.2,114.4,191.9,114.2z"/>
<path class="st6" d="M129,93c-19.9,0-39.9,0-59.8,0c-1.1,0-2.2-0.9-3.2-1.4c0.8-3,1.5-6.1,2.3-9.1c0.2-0.5,0.4-0.9,0.7-1.4
	c0.3-1.3,0.5-2.6,0.8-3.9c0.2-0.4,0.5-0.9,0.7-1.4c1.3-4.8,2.5-9.6,3.8-14.4c0.2-0.4,0.5-0.9,0.7-1.3c0.3-1.1,0.6-2.2,0.8-3.2
	c0.2-0.7,0.4-1.3,0.7-2c0.3-1.1,0.6-2.2,0.8-3.2c0.2-0.7,0.4-1.3,0.7-2c0.3-1.1,0.6-2.2,0.8-3.2c0.2-0.7,0.4-1.3,0.7-2
	c1.3-4.4,2.4-8.8,3.8-13.2c0.3-0.8,1.5-1.8,2.3-1.8c17-0.1,33.9-0.1,51.6-0.1C135.7,50.9,131.9,71.9,129,93L129,93z"/>
<path class="st6" d="M255.8,93c-21.2,0-42.5,0-63.7,0c0-20,0.1-40-0.1-60c0-2.9,0.7-3.9,3.8-3.8c15.6,0.1,31.2,0.1,46.9,0
	c2.6,0,3.5,1,3.9,3.2c1.6,10.2,3.2,20.3,4.8,30.4C252.8,72.9,254.2,83,255.8,93L255.8,93z"/>
<path class="st4" d="M308.3,57.1c0.2,0.7,0.4,1.3,0.7,2C308.8,58.5,308.5,57.8,308.3,57.1z"/>
<path class="st4" d="M76.5,54.8c-0.2,0.7-0.4,1.3-0.7,2C76.1,56.2,76.3,55.5,76.5,54.8z"/>
<path class="st4" d="M306.8,51.9c0.2,0.7,0.4,1.3,0.6,2C307.3,53.2,307,52.5,306.8,51.9z"/>
<path class="st4" d="M78,49.6c-0.2,0.7-0.4,1.3-0.7,2C77.6,51,77.8,50.3,78,49.6z"/>
<path class="st4" d="M305.3,46.6c0.2,0.7,0.4,1.3,0.7,2C305.8,48,305.5,47.3,305.3,46.6z"/>
<path class="st4" d="M79.5,44.4c-0.2,0.7-0.4,1.3-0.7,2C79.1,45.7,79.3,45,79.5,44.4z"/>
<path class="st4" d="M315.1,81.1c0.2,0.4,0.5,0.9,0.7,1.3C315.5,82,315.3,81.5,315.1,81.1z"/>
<path class="st4" d="M70.5,75.8c-0.2,0.4-0.5,0.9-0.7,1.4C70,76.7,70.3,76.3,70.5,75.8z"/>
<path class="st4" d="M312.1,70.6c0.2,0.4,0.5,0.9,0.7,1.4C312.5,71.5,312.3,71,312.1,70.6z"/>
<path class="st4" d="M75,60.1c-0.2,0.4-0.5,0.9-0.7,1.3C74.5,61,74.8,60.5,75,60.1z"/>
<path class="st4" d="M69,81c-0.2,0.5-0.5,0.9-0.7,1.4C68.6,81.9,68.8,81.5,69,81z"/>
</svg>
