<?xml version="1.0" encoding="UTF-8"?>
<svg id="Layer_1" data-name="Layer 1" xmlns="http://www.w3.org/2000/svg" viewBox="0 0 384 384">
  <defs>
    <style>
      .cls-1 {
        fill: #ffd06c;
      }

      .cls-2 {
        fill: #fff;
      }

      .cls-3 {
        fill: #dfe0fb;
      }

      .cls-4 {
        fill: #fffefb;
      }

      .cls-5 {
        fill: #e9e7fc;
      }

      .cls-6 {
        fill: #aa6256;
      }

      .cls-7 {
        fill: #febc20;
      }

      .cls-8 {
        fill: #ffde9b;
      }

      .cls-9 {
        fill: #f9a83d;
      }
    </style>
  </defs>
  <path class="cls-2" d="m0,0h384v384H0V0Zm254.25,18.75c-.5.25-1.01.49-1.51.74-11.85,5.99-20.63,14.99-26.24,27.02-4.41,9.47-4.8,19.25.17,28.42,2.97,5.48,7.39,10.23,11.49,15.03,4.56,5.35,8.87,10.65,10.45,17.81,1.34,6.04-1.16,11.25-2.62,16.72-.46.75-.92,1.5-1.68,2.73,9.09-3.87,14.97-13.81,13.54-21.67-1.3-7.14-4.31-13.48-8.55-19.26-9.04-12.33-11.31-26.13-7.94-40.67,1.66-7.16,5.04-13.92,7.65-20.86,1.25-1.75,2.5-3.49,3.76-5.24.49-.26.99-.51,1.48-.77.06-.11.12-.21.17-.32l-.17.32Zm-64.51.74c-7.91,3.96-14.48,9.58-19.86,16.54-8.68,11.23-12.96,23.73-6.81,37.27,2.95,6.49,8.35,11.93,12.99,17.56,5.48,6.63,10.82,13.3,9.83,22.54-.4,3.76-1.91,7.41-2.91,11.11-.43.77-.85,1.54-1.48,2.67,9.54-3.74,15.67-14.07,12.84-23.07-2.13-6.76-5.53-13.26-9.23-19.34-7.29-11.98-9.44-24.59-7.06-38.31,1.41-8.13,4.94-15.3,8.68-22.46,1-1.5,2.01-2.99,3.01-4.49.33-.1.65-.19.98-.29-.06-.1-.12-.19-.19-.29-.27.19-.54.37-.8.56Zm-67.49,6.76c1.5-2.25,3-4.5,4.5-6.75.33-.09.66-.18.98-.28-.06-.1-.12-.19-.18-.29-.27.19-.54.37-.81.56-11.6,6.46-20.78,15.29-26.25,27.53-4.82,10.76-4.3,21.44,2.2,31.34,3.05,4.63,6.92,8.77,10.71,12.86,8.4,9.06,12.69,18.96,7.45,31.25-.3.71.4,1.85.64,2.79,7.54-3.28,12.74-13.17,10.02-21.44-2.22-6.75-5.6-13.25-9.34-19.33-7.2-11.71-9.94-24.13-6.85-37.45,1.64-7.09,4.57-13.87,6.92-20.79Zm189.85,141.64c.71-4.49-1.26-8.14-4.73-10.3-5.89-3.66-11.94-7.39-18.42-9.7-23.94-8.57-49.03-11.44-74.19-12.56-32.43-1.44-64.86-.8-96.91,5.6-13.48,2.69-26.84,5.73-39.02,12.41-7.15,3.92-12.86,8.89-10.47,18.36-.06,5.33-.21,10.66-.17,15.99.11,17.22,3.38,33.92,8.77,50.2,2.26,6.83,5.07,13.48,7.7,20.39-.76.37-1.49.84-2.29,1.1-6.98,2.29-14.07,4.29-20.95,6.85-13.65,5.09-26.58,11.43-36.83,22.25-10.82,11.44-10.89,25.44.08,36.66,14.75,15.11,33.71,22.18,53.4,27.85,1.55.42,3.11.83,4.65,1.27,24.27,7,49.14,10.85,74.26,12.2,19.51,1.05,39.17,1.13,58.68.13,18.09-.92,36.23-3.02,54.08-6.12,14.76-2.56,29.13-7.35,43.68-11.15.52-.23,1.03-.45,1.55-.68.74-.26,1.47-.52,2.21-.77,6.7-2.93,13.84-5.15,19.99-8.96,7.11-4.41,13.91-9.67,19.84-15.56,7.88-7.82,9.15-19.04,3.55-27.81-3.02-4.74-6.97-9.14-11.31-12.72-5.23-4.31-11.3-7.59-17.01-11.32,2.77-1.42,5.61-2.74,8.31-4.28,13.16-7.49,23.17-17.72,25.7-33.15,1.19-7.27,1.06-14.94.34-22.32-2.1-21.62-24.65-37.84-45.91-33.57-2.5.5-5.06.7-7.64,1.04-.35-4.18-.64-7.75-.94-11.33Z"/>
  <path class="cls-8" d="m78.08,352.98c-19.69-5.66-38.65-12.74-53.4-27.85-10.96-11.23-10.9-25.23-.08-36.66,10.24-10.82,23.18-17.16,36.83-22.25,6.88-2.56,13.97-4.56,20.95-6.85.8-.26,1.52-.73,2.29-1.1-2.63-6.91-5.44-13.56-7.7-20.39-5.39-16.28-8.66-32.98-8.77-50.2-.03-5.33.11-10.66.17-15.99,1.52,1.21,2.91,2.67,4.59,3.59,5.36,2.94,10.84,5.68,16.27,8.5,2.23.98,4.39,2.18,6.7,2.9,23.37,7.26,47.51,10.12,71.79,11.05,38.72,1.49,77.28.03,114.99-10.31.25-.14.49-.28.74-.42,2.52-1.08,5.03-2.15,7.55-3.23,1.54-.41,3.22-.55,4.58-1.29,4.55-2.48,8.98-5.17,13.45-7.78-6.88,14.26-13.16,28.84-20.76,42.7-15.99,29.15-35.3,55.87-60.47,77.98-24.23,21.29-51.72,34.95-84.54,36.13-7.17-.47-12.71-5.87-13.46-13.49-.52-5.32-2.96-9.31-7.08-12.57-3.21-2.53-6.19-5.36-9.31-8.01-1.49-1.26-3.06-2.42-4.59-3.62-.1-.36-.12-.78-.32-1.06-6.57-9.18-13.12-18.38-19.83-27.46-.59-.8-2.45-1.34-3.45-1.05-18.27,5.28-36.24,11.51-50.73,24.36-14.13,12.52-14.37,27.68-1.03,40.51,8.82,8.48,19.72,13.78,31.04,18.21,4.56,1.78,9.05,3.73,13.58,5.61Zm24.69-89.75c.04.1.06.2.12.28.03.04.13.04.2.05-.12-.1-.24-.2-.35-.3-.24-.51-.48-1.02-.72-1.52-.2-.58-.3-1.23-.61-1.74-8.57-14.14-13.82-29.53-17.32-45.59-.29-1.34-.54-2.68-.85-4.02-.27-1.16-.59-2.3-.89-3.45-.16,16.37,3.99,31.47,12.24,45.35,2.03,3.42,4.92,6.33,7.42,9.48.26.49.52.98.78,1.47Z"/>
  <path class="cls-1" d="m78.08,352.98c-4.52-1.87-9.02-3.82-13.58-5.61-11.32-4.43-22.22-9.73-31.04-18.21-13.34-12.83-13.1-27.99,1.03-40.51,14.49-12.85,32.46-19.08,50.73-24.36,1-.29,2.86.25,3.45,1.05,6.71,9.08,13.26,18.28,19.83,27.46.2.28.22.71.32,1.06-5.84,3.33-11.93,6.29-17.45,10.08-9.15,6.29-11.45,17.73-4.58,24.44,5,4.88,10.79,9.51,17.08,12.39,24.02,11.01,49.88,14.32,75.92,15.22,14.62.51,29.34-.95,43.97-2.04,16.08-1.19,31.75-4.8,46.78-10.61,8.37-3.23,16.43-7.28,22.58-14.27,4.16-4.74,5.37-11.44,2.43-16.99-5.31-10.03-15.22-13.86-24.8-18.08,4.77-7.48,11.59-11.58,20.37-12.64,6.13-.75,12.26-1.56,18.32-2.68,4.84-.89,9.6-2.28,14.39-3.44,7.31,4.41,15.42,7.9,21.76,13.43,15.15,13.22,14.68,28.96-.2,41.53-7.68,6.49-17.28,10.71-25.99,15.98-.79.48-1.47,1.13-2.2,1.7-.74.26-1.47.52-2.21.77-.52.23-1.03.45-1.55.68-14.54,3.8-28.92,8.58-43.68,11.15-17.85,3.1-35.98,5.2-54.08,6.12-19.51.99-39.17.92-58.68-.13-25.12-1.35-49.99-5.2-74.26-12.2-1.54-.45-3.1-.85-4.65-1.27Zm260.94-30.45c-7.02,7.59-15.76,12.46-25.37,15.92-3.76,1.35-7.56,2.58-11.35,3.86,11.9-.66,22.92-3.76,31.64-12.26,2.12-2.07,3.38-5.02,5.03-7.57.13-.11.26-.23.39-.34-.08.02-.2.01-.23.06-.06.09-.08.22-.11.33Z"/>
  <path class="cls-7" d="m323.82,275.23c-4.79,1.17-9.55,2.55-14.39,3.44-6.07,1.12-12.2,1.93-18.32,2.68-8.79,1.07-15.61,5.17-20.37,12.64-4.69,4.07-9.37,8.14-14.07,12.21-3.85,3.33-5.8,7.39-6.33,12.6-.6,5.83-4.13,10.23-9.84,12.05-12.69,4.05-25.8,6.34-39.07,6.5-12.66.15-25.36-.46-37.98-1.53-6.8-.57-13.46-2.81-20.18-4.29,32.82-1.18,60.3-14.84,84.54-36.13,25.17-22.11,44.48-48.83,60.47-77.98,7.6-13.86,13.88-28.45,20.76-42.7,1.02-2.28,2.05-4.56,3.07-6.84.3,3.57.59,7.15.94,11.33,2.58-.34,5.14-.54,7.64-1.04,21.26-4.27,43.81,11.95,45.91,33.57.72,7.38.85,15.05-.34,22.32-2.53,15.43-12.55,25.66-25.7,33.15-2.71,1.54-5.54,2.86-8.31,4.28-2.81,1.24-5.61,2.49-8.42,3.73Zm-29.82-13.34c2.01-.38,4.02-.76,6.03-1.14,12.79-1.1,25.29-3.61,35.97-11.08,14.11-9.86,18-29.41,9.27-43.6-2.43-3.95-5.48-7.09-10.32-7.94-7.01-1.24-13.94-.81-20.67,1.41-1.25.41-2.63,2.12-2.91,3.45-1.15,5.47-1.3,11.21-2.91,16.52-4.01,13.18-8.61,26.17-12.98,39.24-.53,1-1.05,2-1.57,2.99-.09.12-.18.25-.27.37.12-.08.25-.15.37-.23Z"/>
  <path class="cls-1" d="m312.1,167.89c-1.02,2.28-2.05,4.56-3.07,6.84-4.47,2.61-8.9,5.3-13.45,7.78-1.36.74-3.04.88-4.58,1.29-7.81-6.78-17.17-10.54-26.9-13.43-19.6-5.82-39.8-8.12-60.12-8.93-25.24-1.01-50.38.29-75.16,5.81-14.19,3.16-28.05,7.08-39.6,16.54-5.43-2.82-10.9-5.56-16.27-8.5-1.68-.92-3.07-2.38-4.59-3.59-2.4-9.47,3.32-14.44,10.47-18.36,12.18-6.68,25.53-9.72,39.02-12.41,32.05-6.4,64.48-7.04,96.91-5.6,25.16,1.12,50.25,3.99,74.19,12.56,6.48,2.32,12.53,6.05,18.42,9.7,3.48,2.16,5.45,5.81,4.73,10.3Zm-72.79-17.7l2.94.56c.04-.29.09-.58.13-.86-1.04-.22-2.09-.43-3.13-.65-24.46-6.3-48.99-8.08-73.62-1.15.98.26,1.96.32,2.94.24,8.44-.67,16.92-2.21,25.31-1.86,15.17.64,30.29,2.41,45.43,3.71Zm-75.57-1.04c0-.17,0-.35.01-.52-.37.03-.75.06-1.12.11-.02,0-.03.23-.02.24.37.07.75.12,1.13.18Zm-3.44.56c.11.04.21.1.32.09.04,0,.07-.17.1-.25-.11-.04-.21-.1-.32-.09-.04,0-.07.17-.1.26Zm83.95,1.33c.02.08,0,.19.06.23.07.05.19.04.28.06-.03-.13-.05-.26-.08-.39-.09.03-.18.07-.26.1Z"/>
  <path class="cls-3" d="m121.51,125.27c-.24-.94-.94-2.08-.64-2.79,5.24-12.29.95-22.19-7.45-31.25-3.79-4.09-7.67-8.23-10.71-12.86-6.51-9.9-7.02-20.57-2.2-31.34,5.47-12.23,14.65-21.07,26.25-27.53h0c-1.5,2.26-3,4.51-4.5,6.76-1.49,1.22-3.25,2.22-4.4,3.7-1.9,2.44-3.67,5.05-5.03,7.82-5.5,11.2-8.03,22.72-4.21,35.17,2.4,7.8,7.12,14.1,11.57,20.68,6.71,9.93,9.48,19.16,1.95,29.93-.34.48-.42,1.14-.63,1.71Z"/>
  <path class="cls-3" d="m252.76,19.51c-1.25,1.75-2.5,3.49-3.76,5.24-.66.29-1.54.41-1.96.91-8.47,10.02-14.24,21.23-14.53,34.66-.24,11.35,4.32,21,11.01,29.81,5.3,6.98,9.49,14.34,8.45,23.54-.5,4.38-1.8,8.42-5.99,10.81,1.46-5.47,3.96-10.68,2.62-16.72-1.58-7.16-5.89-12.46-10.45-17.81-4.09-4.8-8.52-9.55-11.49-15.03-4.97-9.18-4.58-18.95-.17-28.42,5.61-12.03,14.39-21.03,26.24-27.02,0,0,.02.02.02.02Z"/>
  <path class="cls-3" d="m182.99,124.51c1-3.7,2.51-7.34,2.91-11.11.98-9.25-4.36-15.91-9.83-22.54-4.64-5.63-10.05-11.07-12.99-17.56-6.14-13.53-1.87-26.04,6.81-37.27,5.38-6.96,11.95-12.58,19.86-16.54,0,0,.01.02.01.02-1,1.5-2.01,2.99-3.01,4.49-2.42,2.55-5.25,4.82-7.19,7.69-10.35,15.34-13.81,31.61-4.93,48.82,3.06,5.93,7.39,11.18,10.81,16.94,4.69,7.88,5.78,16.07.74,24.29-.7,1.14-2.11,1.86-3.19,2.77Z"/>
  <path class="cls-5" d="m245.98,124.49c4.19-2.39,5.49-6.44,5.99-10.81,1.05-9.2-3.15-16.56-8.45-23.54-6.68-8.81-11.25-18.46-11.01-29.81.29-13.43,6.05-24.64,14.53-34.66.42-.5,1.29-.62,1.96-.91-2.6,6.94-5.99,13.7-7.65,20.86-3.37,14.54-1.1,28.35,7.94,40.67,4.24,5.78,7.25,12.12,8.55,19.26,1.43,7.86-4.46,17.8-13.54,21.67.76-1.23,1.22-1.98,1.68-2.73Z"/>
  <path class="cls-5" d="m182.99,124.51c1.08-.91,2.49-1.62,3.19-2.77,5.04-8.21,3.95-16.41-.74-24.29-3.42-5.76-7.75-11.01-10.81-16.94-8.88-17.21-5.43-33.48,4.93-48.82,1.94-2.87,4.77-5.14,7.19-7.69-3.74,7.16-7.27,14.32-8.68,22.46-2.38,13.72-.24,26.33,7.06,38.31,3.7,6.09,7.1,12.59,9.23,19.34,2.83,8.99-3.3,19.32-12.84,23.07.62-1.13,1.05-1.9,1.48-2.67Z"/>
  <path class="cls-5" d="m121.51,125.27c.2-.57.29-1.23.63-1.71,7.54-10.77,4.77-20-1.95-29.93-4.45-6.58-9.17-12.87-11.57-20.68-3.82-12.45-1.29-23.97,4.21-35.17,1.36-2.77,3.13-5.38,5.03-7.82,1.15-1.48,2.91-2.49,4.4-3.7-2.35,6.92-5.28,13.71-6.92,20.79-3.08,13.32-.34,25.74,6.85,37.45,3.74,6.08,7.12,12.58,9.34,19.33,2.72,8.27-2.48,18.15-10.02,21.44Z"/>
  <path class="cls-8" d="m323.82,275.23c2.81-1.24,5.61-2.49,8.42-3.73,5.71,3.73,11.79,7.01,17.01,11.32,4.34,3.58,8.29,7.98,11.31,12.72,5.59,8.77,4.33,19.99-3.55,27.81-5.94,5.89-12.73,11.15-19.84,15.56-6.15,3.81-13.29,6.04-19.99,8.96.73-.57,1.41-1.22,2.2-1.7,8.72-5.27,18.31-9.49,25.99-15.98,14.88-12.57,15.35-28.31.2-41.53-6.33-5.53-14.45-9.01-21.76-13.43Z"/>
  <path class="cls-8" d="m313.43,349.32c.52-.23,1.03-.45,1.55-.68-.52.23-1.03.45-1.55.68Z"/>
  <path class="cls-3" d="m254.25,18.75c-.49.26-.99.51-1.48.77,0,0-.02-.02-.02-.02.5-.25,1.01-.49,1.51-.74,0,0,0,0,0,0Z"/>
  <path class="cls-3" d="m189.74,19.49c.27-.19.54-.37.8-.56.06.1.12.19.19.29-.33.1-.65.19-.98.29,0,0-.01-.02-.01-.02Z"/>
  <path class="cls-3" d="m126.75,19.5c.27-.19.54-.37.81-.56.06.1.12.19.18.29-.33.09-.66.18-.98.28,0,0,0,0,0,0Z"/>
  <path class="cls-3" d="m254.25,18.75c.06-.11.11-.21.17-.32-.06.11-.12.21-.17.32,0,0,0,0,0,0Z"/>
  <path class="cls-9" d="m143.26,331.54c6.72,1.48,13.38,3.72,20.18,4.29,12.62,1.07,25.32,1.68,37.98,1.53,13.27-.16,26.38-2.46,39.07-6.5,5.71-1.82,9.24-6.22,9.84-12.05.53-5.22,2.49-9.27,6.33-12.6,4.69-4.06,9.38-8.14,14.07-12.21,9.59,4.22,19.49,8.05,24.8,18.08,2.94,5.55,1.74,12.25-2.43,16.99-6.15,7-14.21,11.04-22.58,14.27-15.03,5.81-30.7,9.42-46.78,10.61-14.64,1.08-29.35,2.55-43.97,2.04-26.04-.91-51.9-4.22-75.92-15.22-6.29-2.88-12.08-7.52-17.08-12.39-6.87-6.7-4.57-18.15,4.58-24.44,5.52-3.79,11.62-6.75,17.45-10.08,1.53,1.2,3.11,2.36,4.59,3.62,3.12,2.65,6.1,5.47,9.31,8.01,4.12,3.25,6.56,7.25,7.08,12.57.74,7.62,6.28,13.02,13.46,13.49Z"/>
  <path class="cls-6" d="m89.23,183.79c11.55-9.46,25.41-13.39,39.6-16.54,24.78-5.51,49.91-6.81,75.16-5.81,20.32.81,40.52,3.1,60.12,8.93,9.72,2.89,19.08,6.65,26.9,13.43-2.52,1.08-5.03,2.15-7.55,3.22-.25.14-.49.28-.74.42-37.71,10.33-76.27,11.79-114.99,10.31-24.29-.93-48.42-3.79-71.79-11.05-2.31-.72-4.47-1.92-6.7-2.9Z"/>
  <path class="cls-4" d="m101.99,261.76c-2.5-3.15-5.39-6.06-7.42-9.48-8.25-13.88-12.4-28.98-12.24-45.35.3,1.15.62,2.3.89,3.45.31,1.33.56,2.68.85,4.02,3.51,16.06,8.75,31.45,17.32,45.59.31.52.41,1.16.61,1.74l-.02.02Z"/>
  <path class="cls-4" d="m102.01,261.74c.24.51.48,1.02.72,1.52l.04-.04c-.26-.49-.52-.98-.78-1.47,0,0,.02-.02.02-.02Z"/>
  <path class="cls-1" d="m282.71,187.44c.25-.14.5-.28.74-.42-.25.14-.49.28-.74.42Z"/>
  <path class="cls-4" d="m102.73,263.27c.12.1.24.2.35.3-.07-.02-.17-.01-.2-.05-.06-.08-.08-.19-.12-.28,0,0-.04.04-.04.04Z"/>
  <path class="cls-4" d="m338.97,322.47c-1.65,2.55-2.91,5.5-5.03,7.57-8.72,8.5-19.73,11.6-31.64,12.26,3.78-1.28,7.59-2.51,11.35-3.86,9.61-3.46,18.34-8.33,25.37-15.92l-.05-.05Z"/>
  <path class="cls-4" d="m339.02,322.53c.03-.11.05-.24.11-.33.03-.05.15-.04.23-.06-.13.11-.26.23-.39.34,0,0,.05.05.05.05Z"/>
  <path class="cls-2" d="m295.48,258.75c4.37-13.07,8.97-26.06,12.98-39.24,1.61-5.31,1.76-11.05,2.91-16.52.28-1.33,1.67-3.04,2.91-3.45,6.73-2.23,13.65-2.66,20.67-1.41,4.84.86,7.89,4,10.32,7.94,8.73,14.19,4.84,33.74-9.27,43.6-10.68,7.46-23.17,9.98-35.97,11.08-1.52-.67-3.03-1.33-4.55-2Z"/>
  <path class="cls-8" d="m295.48,258.75c1.52.67,3.03,1.33,4.55,2-2.01.38-4.02.76-6.03,1.14,0,0-.1-.14-.1-.14.53-1,1.05-2,1.58-2.99Z"/>
  <path class="cls-1" d="m294,261.89c-.12.08-.25.15-.37.23.09-.12.18-.25.27-.37,0,0,.1.14.1.14Z"/>
  <path class="cls-4" d="m239.31,150.19c-15.14-1.3-30.26-3.07-45.43-3.71-8.4-.35-16.87,1.19-25.31,1.86-.97.08-1.96.01-2.94-.24,24.64-6.93,49.16-5.14,73.62,1.15.02.32.04.63.06.95Z"/>
  <path class="cls-8" d="m239.31,150.19c-.02-.32-.04-.63-.06-.95,1.04.22,2.09.43,3.13.65-.04.29-.09.58-.13.86l-2.94-.56Z"/>
  <path class="cls-8" d="m163.75,149.15c-.38-.05-.75-.11-1.13-.18,0,0,0-.23.02-.24.37-.05.75-.07,1.12-.11,0,.17,0,.35-.01.52Z"/>
  <path class="cls-8" d="m160.31,149.71c.03-.09.06-.25.1-.26.11,0,.21.06.32.09-.03.09-.06.25-.1.25-.1,0-.21-.06-.32-.09Z"/>
  <path class="cls-8" d="m244.26,151.04c.09-.03.18-.07.26-.1.03.13.05.26.08.39-.1-.02-.21-.01-.28-.06-.05-.03-.04-.15-.06-.23Z"/>
</svg>