<?xml version="1.0" encoding="utf-8"?>
<!-- Generator: Adobe Illustrator 27.1.1, SVG Export Plug-In . SVG Version: 6.00 Build 0)  -->
<svg version="1.1" id="Layer_1" xmlns="http://www.w3.org/2000/svg" xmlns:xlink="http://www.w3.org/1999/xlink" x="0px" y="0px"
	 viewBox="0 0 350.7 348.9" style="enable-background:new 0 0 350.7 348.9;" xml:space="preserve">
<style type="text/css">
	.st0{fill:#FFDE9B;}
	.st1{fill:#FFD06C;}
	.st2{fill:#FEBC20;}
	.st3{fill:#DFE0FB;}
	.st4{fill:#E9E7FC;}
	.st5{fill:#F9A83D;}
	.st6{fill:#AA6256;}
	.st7{fill:#FFFEFB;}
</style>
<path class="st0" d="M61.6,334.6c-19.7-5.7-38.7-12.7-53.4-27.9c-11-11.2-10.9-25.2-0.1-36.7c10.2-10.8,23.2-17.2,36.8-22.2
	c6.9-2.6,14-4.6,21-6.9c0.8-0.3,1.5-0.7,2.3-1.1c-2.6-6.9-5.4-13.6-7.7-20.4c-5.4-16.3-8.7-33-8.8-50.2c0-5.3,0.1-10.7,0.2-16
	c1.5,1.2,2.9,2.7,4.6,3.6c5.4,2.9,10.8,5.7,16.3,8.5c2.2,1,4.4,2.2,6.7,2.9c23.4,7.3,47.5,10.1,71.8,11.1c38.7,1.5,77.3,0,115-10.3
	c0.2-0.1,0.5-0.3,0.7-0.4c2.5-1.1,5-2.1,7.5-3.2c1.5-0.4,3.2-0.6,4.6-1.3c4.5-2.5,9-5.2,13.5-7.8c-6.9,14.3-13.2,28.8-20.8,42.7
	c-16,29.1-35.3,55.9-60.5,78c-24.2,21.3-51.7,35-84.5,36.1c-7.2-0.5-12.7-5.9-13.5-13.5c-0.5-5.3-3-9.3-7.1-12.6
	c-3.2-2.5-6.2-5.4-9.3-8c-1.5-1.3-3.1-2.4-4.6-3.6c-0.1-0.4-0.1-0.8-0.3-1.1c-6.6-9.2-13.1-18.4-19.8-27.5c-0.6-0.8-2.4-1.3-3.4-1
	c-18.3,5.3-36.2,11.5-50.7,24.4c-14.1,12.5-14.4,27.7-1,40.5c8.8,8.5,19.7,13.8,31,18.2C52.6,330.7,57.1,332.6,61.6,334.6
	L61.6,334.6z M86.3,244.8c0,0.1,0.1,0.2,0.1,0.3c0,0,0.1,0,0.2,0C86.5,245,86.4,244.9,86.3,244.8c-0.3-0.5-0.5-1-0.8-1.5
	c-0.2-0.6-0.3-1.2-0.6-1.7C76.4,227.4,71.1,212,67.6,196c-0.3-1.3-0.5-2.7-0.8-4c-0.3-1.2-0.6-2.3-0.9-3.4
	c-0.2,16.4,4,31.5,12.2,45.4c2,3.4,4.9,6.3,7.4,9.5C85.8,243.8,86.1,244.3,86.3,244.8L86.3,244.8z"/>
<path class="st1" d="M61.6,334.6c-4.5-1.9-9-3.8-13.6-5.6c-11.3-4.4-22.2-9.7-31-18.2c-13.3-12.8-13.1-28,1-40.5
	c14.5-12.9,32.5-19.1,50.7-24.4c1-0.3,2.9,0.2,3.4,1c6.7,9.1,13.3,18.3,19.8,27.5c0.2,0.3,0.2,0.7,0.3,1.1
	c-5.8,3.3-11.9,6.3-17.5,10.1c-9.2,6.3-11.5,17.7-4.6,24.4c5,4.9,10.8,9.5,17.1,12.4c24,11,49.9,14.3,75.9,15.2
	c14.6,0.5,29.3-1,44-2c16.1-1.2,31.8-4.8,46.8-10.6c8.4-3.2,16.4-7.3,22.6-14.3c4.2-4.7,5.4-11.4,2.4-17
	c-5.3-10-15.2-13.9-24.8-18.1c4.8-7.5,11.6-11.6,20.4-12.6c6.1-0.8,12.3-1.6,18.3-2.7c4.8-0.9,9.6-2.3,14.4-3.4
	c7.3,4.4,15.4,7.9,21.8,13.4c15.1,13.2,14.7,29-0.2,41.5c-7.7,6.5-17.3,10.7-26,16c-0.8,0.5-1.5,1.1-2.2,1.7
	c-0.7,0.3-1.5,0.5-2.2,0.8c-0.5,0.2-1,0.5-1.5,0.7c-14.5,3.8-28.9,8.6-43.7,11.1c-17.9,3.1-36,5.2-54.1,6.1
	c-19.5,1-39.2,0.9-58.7-0.1c-25.1-1.4-50-5.2-74.3-12.2C64.7,335.4,63.2,335,61.6,334.6L61.6,334.6z M322.5,304.1
	c-7,7.6-15.8,12.5-25.4,15.9c-3.8,1.4-7.6,2.6-11.4,3.9c11.9-0.7,22.9-3.8,31.6-12.3C319.6,309.5,320.8,306.6,322.5,304.1
	c0.1-0.2,0.2-0.3,0.3-0.4c-0.1,0-0.2,0-0.2,0.1C322.6,303.9,322.6,304,322.5,304.1L322.5,304.1z"/>
<path class="st2" d="M307.3,256.8c-4.8,1.2-9.5,2.5-14.4,3.4c-6.1,1.1-12.2,1.9-18.3,2.7c-8.8,1.1-15.6,5.2-20.4,12.6
	c-4.7,4.1-9.4,8.1-14.1,12.2c-3.9,3.3-5.8,7.4-6.3,12.6c-0.6,5.8-4.1,10.2-9.8,12c-12.7,4-25.8,6.3-39.1,6.5
	c-12.7,0.1-25.4-0.5-38-1.5c-6.8-0.6-13.5-2.8-20.2-4.3c32.8-1.2,60.3-14.8,84.5-36.1c25.2-22.1,44.5-48.8,60.5-78
	c7.6-13.9,13.9-28.5,20.8-42.7c1-2.3,2-4.6,3.1-6.8c0.3,3.6,0.6,7.1,0.9,11.3c2.6-0.3,5.1-0.5,7.6-1c21.3-4.3,43.8,12,45.9,33.6
	c0.7,7.4,0.9,15-0.3,22.3c-2.5,15.4-12.5,25.7-25.7,33.1c-2.7,1.5-5.5,2.9-8.3,4.3C313,254.3,310.2,255.5,307.3,256.8L307.3,256.8z
	 M277.5,243.5c2-0.4,4-0.8,6-1.1c12.8-1.1,25.3-3.6,36-11.1c14.1-9.9,18-29.4,9.3-43.6c-2.4-4-5.5-7.1-10.3-7.9
	c-7-1.2-13.9-0.8-20.7,1.4c-1.2,0.4-2.6,2.1-2.9,3.4c-1.1,5.5-1.3,11.2-2.9,16.5c-4,13.2-8.6,26.2-13,39.2c-0.5,1-1,2-1.6,3
	c-0.1,0.1-0.2,0.2-0.3,0.4C277.3,243.6,277.4,243.5,277.5,243.5L277.5,243.5z"/>
<path class="st1" d="M295.6,149.5c-1,2.3-2,4.6-3.1,6.8c-4.5,2.6-8.9,5.3-13.5,7.8c-1.4,0.7-3,0.9-4.6,1.3
	c-7.8-6.8-17.2-10.5-26.9-13.4c-19.6-5.8-39.8-8.1-60.1-8.9c-25.2-1-50.4,0.3-75.2,5.8c-14.2,3.2-28.1,7.1-39.6,16.5
	c-5.4-2.8-10.9-5.6-16.3-8.5c-1.7-0.9-3.1-2.4-4.6-3.6c-2.4-9.5,3.3-14.4,10.5-18.4c12.2-6.7,25.5-9.7,39-12.4
	c32-6.4,64.5-7,96.9-5.6c25.2,1.1,50.2,4,74.2,12.6c6.5,2.3,12.5,6.1,18.4,9.7C294.4,141.3,296.3,145,295.6,149.5L295.6,149.5z
	 M222.8,131.8l2.9,0.6c0-0.3,0.1-0.6,0.1-0.9c-1-0.2-2.1-0.4-3.1-0.6c-24.5-6.3-49-8.1-73.6-1.1c1,0.3,2,0.3,2.9,0.2
	c8.4-0.7,16.9-2.2,25.3-1.9C192.6,128.7,207.7,130.5,222.8,131.8L222.8,131.8z M147.3,130.7c0-0.2,0-0.4,0-0.5
	c-0.4,0-0.8,0.1-1.1,0.1c0,0,0,0.2,0,0.2C146.5,130.6,146.9,130.7,147.3,130.7L147.3,130.7z M143.8,131.3c0.1,0,0.2,0.1,0.3,0.1
	c0,0,0.1-0.2,0.1-0.2c-0.1,0-0.2-0.1-0.3-0.1C143.9,131,143.9,131.2,143.8,131.3L143.8,131.3z M227.8,132.6c0,0.1,0,0.2,0.1,0.2
	c0.1,0.1,0.2,0,0.3,0.1c0-0.1-0.1-0.3-0.1-0.4C227.9,132.5,227.9,132.6,227.8,132.6z"/>
<path class="st3" d="M105,106.8c-0.2-0.9-0.9-2.1-0.6-2.8c5.2-12.3,0.9-22.2-7.4-31.2c-3.8-4.1-7.7-8.2-10.7-12.9
	c-6.5-9.9-7-20.6-2.2-31.3c5.5-12.2,14.7-21.1,26.2-27.5l0,0c-1.5,2.3-3,4.5-4.5,6.8c-1.5,1.2-3.2,2.2-4.4,3.7c-1.9,2.4-3.7,5-5,7.8
	c-5.5,11.2-8,22.7-4.2,35.2c2.4,7.8,7.1,14.1,11.6,20.7c6.7,9.9,9.5,19.2,1.9,29.9C105.3,105.6,105.2,106.3,105,106.8z"/>
<path class="st3" d="M236.3,1.1c-1.2,1.8-2.5,3.5-3.8,5.2c-0.7,0.3-1.5,0.4-2,0.9c-8.5,10-14.2,21.2-14.5,34.7
	c-0.2,11.3,4.3,21,11,29.8c5.3,7,9.5,14.3,8.4,23.5c-0.5,4.4-1.8,8.4-6,10.8c1.5-5.5,4-10.7,2.6-16.7c-1.6-7.2-5.9-12.5-10.4-17.8
	c-4.1-4.8-8.5-9.6-11.5-15c-5-9.2-4.6-19-0.2-28.4C215.6,16,224.4,7,236.3,1.1L236.3,1.1L236.3,1.1z"/>
<path class="st3" d="M166.5,106.1c1-3.7,2.5-7.3,2.9-11.1c1-9.2-4.4-15.9-9.8-22.5c-4.6-5.6-10.1-11.1-13-17.6
	c-6.1-13.5-1.9-26,6.8-37.3c5.4-7,11.9-12.6,19.9-16.5l0,0c-1,1.5-2,3-3,4.5c-2.4,2.5-5.2,4.8-7.2,7.7
	c-10.4,15.3-13.8,31.6-4.9,48.8c3.1,5.9,7.4,11.2,10.8,16.9c4.7,7.9,5.8,16.1,0.7,24.3C169,104.5,167.6,105.2,166.5,106.1z"/>
<path class="st4" d="M229.5,106.1c4.2-2.4,5.5-6.4,6-10.8c1.1-9.2-3.1-16.6-8.4-23.5c-6.7-8.8-11.2-18.5-11-29.8
	c0.3-13.4,6.1-24.6,14.5-34.7c0.4-0.5,1.3-0.6,2-0.9c-2.6,6.9-6,13.7-7.6,20.9c-3.4,14.5-1.1,28.3,7.9,40.7
	c4.2,5.8,7.3,12.1,8.6,19.3c1.4,7.9-4.5,17.8-13.5,21.7C228.6,107.6,229,106.8,229.5,106.1L229.5,106.1z"/>
<path class="st4" d="M166.5,106.1c1.1-0.9,2.5-1.6,3.2-2.8c5-8.2,3.9-16.4-0.7-24.3c-3.4-5.8-7.8-11-10.8-16.9
	c-8.9-17.2-5.4-33.5,4.9-48.8c1.9-2.9,4.8-5.1,7.2-7.7c-3.7,7.2-7.3,14.3-8.7,22.5c-2.4,13.7-0.2,26.3,7.1,38.3
	c3.7,6.1,7.1,12.6,9.2,19.3c2.8,9-3.3,19.3-12.8,23.1C165.7,107.6,166.1,106.8,166.5,106.1L166.5,106.1z"/>
<path class="st4" d="M105,106.8c0.2-0.6,0.3-1.2,0.6-1.7c7.5-10.8,4.8-20-1.9-29.9c-4.4-6.6-9.2-12.9-11.6-20.7
	c-3.8-12.5-1.3-24,4.2-35.2c1.4-2.8,3.1-5.4,5-7.8c1.2-1.5,2.9-2.5,4.4-3.7c-2.3,6.9-5.3,13.7-6.9,20.8c-3.1,13.3-0.3,25.7,6.8,37.5
	c3.7,6.1,7.1,12.6,9.3,19.3C117.8,93.7,112.6,103.6,105,106.8z"/>
<path class="st0" d="M307.3,256.8c2.8-1.2,5.6-2.5,8.4-3.7c5.7,3.7,11.8,7,17,11.3c4.3,3.6,8.3,8,11.3,12.7c5.6,8.8,4.3,20-3.5,27.8
	c-5.9,5.9-12.7,11.1-19.8,15.6c-6.1,3.8-13.3,6-20,9c0.7-0.6,1.4-1.2,2.2-1.7c8.7-5.3,18.3-9.5,26-16c14.9-12.6,15.4-28.3,0.2-41.5
	C322.8,264.7,314.6,261.2,307.3,256.8L307.3,256.8z"/>
<path class="st3" d="M237.8,0.3c-0.5,0.3-1,0.5-1.5,0.8l0,0C236.8,0.8,237.3,0.6,237.8,0.3L237.8,0.3L237.8,0.3z"/>
<path class="st3" d="M173.3,1.1c0.3-0.2,0.5-0.4,0.8-0.6c0.1,0.1,0.1,0.2,0.2,0.3C173.9,0.9,173.6,1,173.3,1.1L173.3,1.1L173.3,1.1z
	"/>
<path class="st3" d="M110.3,1.1c0.3-0.2,0.5-0.4,0.8-0.6c0.1,0.1,0.1,0.2,0.2,0.3C110.9,0.9,110.6,1,110.3,1.1L110.3,1.1L110.3,1.1z
	"/>
<path class="st3" d="M237.8,0.3c0.1-0.1,0.1-0.2,0.2-0.3C237.9,0.1,237.8,0.2,237.8,0.3L237.8,0.3z"/>
<path class="st5" d="M126.8,313.1c6.7,1.5,13.4,3.7,20.2,4.3c12.6,1.1,25.3,1.7,38,1.5c13.3-0.2,26.4-2.5,39.1-6.5
	c5.7-1.8,9.2-6.2,9.8-12c0.5-5.2,2.5-9.3,6.3-12.6c4.7-4.1,9.4-8.1,14.1-12.2c9.6,4.2,19.5,8,24.8,18.1c2.9,5.5,1.7,12.2-2.4,17
	c-6.1,7-14.2,11-22.6,14.3c-15,5.8-30.7,9.4-46.8,10.6c-14.6,1.1-29.4,2.5-44,2c-26-0.9-51.9-4.2-75.9-15.2
	c-6.3-2.9-12.1-7.5-17.1-12.4c-6.9-6.7-4.6-18.1,4.6-24.4c5.5-3.8,11.6-6.8,17.4-10.1c1.5,1.2,3.1,2.4,4.6,3.6
	c3.1,2.6,6.1,5.5,9.3,8c4.1,3.2,6.6,7.2,7.1,12.6C114,307.2,119.6,312.6,126.8,313.1L126.8,313.1z"/>
<path class="st6" d="M72.8,165.4c11.6-9.5,25.4-13.4,39.6-16.5c24.8-5.5,49.9-6.8,75.2-5.8c20.3,0.8,40.5,3.1,60.1,8.9
	c9.7,2.9,19.1,6.6,26.9,13.4c-2.5,1.1-5,2.1-7.5,3.2c-0.2,0.1-0.5,0.3-0.7,0.4c-37.7,10.3-76.3,11.8-115,10.3
	c-24.3-0.9-48.4-3.8-71.8-11C77.2,167.5,75,166.3,72.8,165.4L72.8,165.4z"/>
<path class="st7" d="M85.5,243.3c-2.5-3.1-5.4-6.1-7.4-9.5c-8.2-13.9-12.4-29-12.2-45.3c0.3,1.1,0.6,2.3,0.9,3.4
	c0.3,1.3,0.6,2.7,0.8,4c3.5,16.1,8.8,31.4,17.3,45.6C85.2,242.1,85.3,242.7,85.5,243.3L85.5,243.3L85.5,243.3z"/>
<path class="st7" d="M85.5,243.3c0.2,0.5,0.5,1,0.7,1.5l0,0C86,244.3,85.8,243.8,85.5,243.3L85.5,243.3L85.5,243.3z"/>
<path class="st1" d="M266.2,169c0.2-0.1,0.5-0.3,0.7-0.4C266.7,168.7,266.5,168.9,266.2,169z"/>
<path class="st7" d="M86.3,244.8c0.1,0.1,0.2,0.2,0.3,0.3c-0.1,0-0.2,0-0.2,0C86.3,245,86.3,244.9,86.3,244.8L86.3,244.8L86.3,244.8
	z"/>
<path class="st7" d="M322.5,304c-1.6,2.5-2.9,5.5-5,7.6c-8.7,8.5-19.7,11.6-31.6,12.3c3.8-1.3,7.6-2.5,11.4-3.9
	C306.8,316.6,315.5,311.7,322.5,304L322.5,304L322.5,304z"/>
<path class="st7" d="M322.5,304.1c0-0.1,0-0.2,0.1-0.3c0,0,0.1,0,0.2-0.1C322.8,303.8,322.6,303.9,322.5,304.1L322.5,304.1
	L322.5,304.1z"/>
<path class="st0" d="M279,240.3c1.5,0.7,3,1.3,4.5,2c-2,0.4-4,0.8-6,1.1l-0.1-0.1C278,242.3,278.5,241.3,279,240.3L279,240.3z"/>
<path class="st1" d="M277.5,243.5c-0.1,0.1-0.2,0.1-0.4,0.2c0.1-0.1,0.2-0.2,0.3-0.4L277.5,243.5L277.5,243.5z"/>
<path class="st7" d="M222.8,131.8c-15.1-1.3-30.3-3.1-45.4-3.7c-8.4-0.3-16.9,1.2-25.3,1.9c-1,0.1-2,0-2.9-0.2
	c24.6-6.9,49.2-5.1,73.6,1.1C222.8,131.1,222.8,131.4,222.8,131.8L222.8,131.8z"/>
<path class="st0" d="M222.8,131.8c0-0.3,0-0.6-0.1-1c1,0.2,2.1,0.4,3.1,0.6c0,0.3-0.1,0.6-0.1,0.9L222.8,131.8z"/>
<path class="st0" d="M147.3,130.7c-0.4-0.1-0.8-0.1-1.1-0.2c0,0,0-0.2,0-0.2c0.4,0,0.8-0.1,1.1-0.1
	C147.3,130.4,147.3,130.5,147.3,130.7L147.3,130.7z"/>
<path class="st0" d="M143.8,131.3c0-0.1,0.1-0.2,0.1-0.3c0.1,0,0.2,0.1,0.3,0.1c0,0.1-0.1,0.2-0.1,0.2
	C144.1,131.4,143.9,131.3,143.8,131.3L143.8,131.3z"/>
<path class="st0" d="M227.8,132.6c0.1,0,0.2-0.1,0.3-0.1c0,0.1,0.1,0.3,0.1,0.4c-0.1,0-0.2,0-0.3-0.1
	C227.8,132.8,227.8,132.7,227.8,132.6z"/>
</svg>
